<svg id="Layer_1" data-name="Layer 1" xmlns="http://www.w3.org/2000/svg" viewBox="0 0 15 24"><defs><style>.cls-1{fill:#fff;}</style></defs><title>JensenBlikk</title><g id="gnVCfG"><path class="cls-1" d="M9.62,17.8V13a.65.65,0,0,1,0-.14c0-.16,0-.16.16-.16H12.3c.15,0,.15,0,.17-.17s0-.59.07-.89l.21-2.3c0-.13,0-.15-.14-.15H9.79c-.18,0-.19,0-.19-.19V7.11a2.71,2.71,0,0,1,0-.41.53.53,0,0,1,.53-.5,4.36,4.36,0,0,1,.51,0h1.87c.15,0,.16,0,.16-.15V2.56c0-.14,0-.14-.14-.15l-1.65,0a16,16,0,0,0-1.83.06A6.65,6.65,0,0,0,7.5,2.8,3.06,3.06,0,0,0,5.63,4.68a4.69,4.69,0,0,0-.25,1.54c0,.91,0,1.82,0,2.74,0,.19,0,.19-.2.19H3.45c-.18,0-.19,0-.19.19v3.21c0,.16,0,.16.16.17l1,0,.74,0c.26,0,.26,0,.26.3v9.68c0,.21,0,.21.22.21H8.25C8.63,23,9,23,9.38,23s.24,0,.24-.26Z"/></g></svg>