<svg id="Layer_1" data-name="Layer 1" xmlns="http://www.w3.org/2000/svg" viewBox="0 0 334 372"><defs><style>.cls-1{fill:#3f549c;}</style></defs><title>JensenBlikk</title><path class="cls-1" d="M70.91,242.57a1.65,1.65,0,0,1,.52,1.17A1.72,1.72,0,0,1,71,244.9a1.75,1.75,0,0,1-1.39.52,1.5,1.5,0,0,0-1.4,1.05,8.68,8.68,0,0,0-.63,2.61,29.12,29.12,0,0,0-.18,3.31V292.1a26.62,26.62,0,0,1-2,11,18.38,18.38,0,0,1-5,6.86,17.82,17.82,0,0,1-6.92,3.48,29.7,29.7,0,0,1-7.44,1,32.5,32.5,0,0,1-9.29-1.27,23.11,23.11,0,0,1-7.44-3.67,16.37,16.37,0,0,1-6.63-13.42,9.68,9.68,0,0,1,1.22-4.83A8.94,8.94,0,0,1,27,287.91a8.07,8.07,0,0,1,4.24-1.16,8,8,0,0,1,4.53,1.51,7.37,7.37,0,0,1,2.85,6.51,7.71,7.71,0,0,1-1.33,3.6,8.09,8.09,0,0,1-3.37,2.79A3.39,3.39,0,0,0,31.62,304a5.1,5.1,0,0,0,1.51,3.84,13.66,13.66,0,0,0,4.94,3.31,20,20,0,0,0,7.9,1.39q4.43,0,6.57-2.38a12.6,12.6,0,0,0,2.91-5.7,28.36,28.36,0,0,0,.69-6.79c0-2.33,0-4.19,0-5.58V252.39a21.93,21.93,0,0,0-.24-3.31,10.33,10.33,0,0,0-.69-2.61,1.5,1.5,0,0,0-1.4-1.05,1.75,1.75,0,0,1-1.39-.52,1.68,1.68,0,0,1,0-2.33,1.75,1.75,0,0,1,1.39-.52H69.57A1.82,1.82,0,0,1,70.91,242.57Zm113.81,43.56c2.1.95,4.41,1.76,6.61,2.7a35.88,35.88,0,0,1,5.89,3.19,18.32,18.32,0,0,1,4.38,4.31,9.14,9.14,0,0,1,1.37,5.54,12,12,0,0,1-1.66,6.49,12.42,12.42,0,0,1-3.95,4.07,15.88,15.88,0,0,1-5.27,2.13,31.26,31.26,0,0,1-5.4.7,20.74,20.74,0,0,1-5.16-.53,19.49,19.49,0,0,1-5.36-2,13.22,13.22,0,0,1-4.19-3.58A8.23,8.23,0,0,1,170.3,304a9.26,9.26,0,0,1,.7-3.66,8.09,8.09,0,0,1,1.82-2.67,4.9,4.9,0,0,1,2.47-1.31,4.38,4.38,0,0,1,2.74.41,4.12,4.12,0,0,1,2,1.73,4.73,4.73,0,0,1,.56,2.23,5.62,5.62,0,0,1-.56,2.37,9.25,9.25,0,0,1-1.49,2.25,3.09,3.09,0,0,0-.89,2.79,4.49,4.49,0,0,0,1.68,2.5,12.06,12.06,0,0,0,3.46,1.62,10,10,0,0,0,3.94.42,9.41,9.41,0,0,0,5.83-1.71,7.49,7.49,0,0,0,3-4.17,7.11,7.11,0,0,0-1-5.18c-1-1.81-2.93-3.34-5.72-4.61q-2.15-.94-5.13-2.22a31.17,31.17,0,0,1-5.68-3.18,21.35,21.35,0,0,1-4.65-4.44,9.69,9.69,0,0,1-2-6.12,14.09,14.09,0,0,1,3.73-10.15q3.72-3.92,11.54-4.19a17.32,17.32,0,0,1,6.38.85,15.41,15.41,0,0,1,4.61,2.5,10.35,10.35,0,0,1,2.8,3.43,8.36,8.36,0,0,1,.93,3.65,11.46,11.46,0,0,1-.61,4.06,6.41,6.41,0,0,1-1.58,2.51,4.51,4.51,0,0,1-2.14,1.15,3.34,3.34,0,0,1-2.19-.23,4.34,4.34,0,0,1-2.89-3.48q-.47-2.53,2-5.28a5.43,5.43,0,0,0,1.35-2.61,2.94,2.94,0,0,0-.67-2.36,5.29,5.29,0,0,0-2.71-1.55,14.39,14.39,0,0,0-5.15-.53,9.5,9.5,0,0,0-6.7,2.82,6.05,6.05,0,0,0-1.77,4.52,11.27,11.27,0,0,0,1.54,5.93A9.62,9.62,0,0,0,184.72,286.13Zm-71.23,14.5c-.41,1-3,6.51-6.8,8.47s-13.81,4.62-16.87-4.16c-1.41-4.05-1.83-9.72-1.75-15.11.21-15.46,6.19-20.95,10-20.9,4.48.07,6.7,3.52,6.6,10.43-.16,11.5-4.85,11.15-10,12.15a32.25,32.25,0,0,1-4.19.54,1.07,1.07,0,0,0-.83,1.11,1.11,1.11,0,0,0,1.09,1.13h0c3.13,0,10.76-.37,16-2.74,5.65-2.57,7.85-6.24,7.93-11.92.11-7.8-5.68-12.46-16.54-12.61A22.82,22.82,0,0,0,75.9,290c-.22,15.88,8.37,24.07,21.14,24.25s17.3-8.28,17.8-11.4S113.88,299.64,113.49,300.63Zm132.84,0c-.41,1-3,6.51-6.81,8.47s-13.81,4.62-16.87-4.16c-1.41-4.05-1.83-9.72-1.75-15.11.22-15.46,6.19-20.95,10-20.9,4.47.07,6.69,3.52,6.59,10.43-.16,11.5-4.85,11.15-9.94,12.15a32.46,32.46,0,0,1-4.19.54,1.07,1.07,0,0,0-.83,1.11,1.1,1.1,0,0,0,1.08,1.13h0c3.14,0,10.76-.37,16-2.74,5.65-2.57,7.84-6.24,7.92-11.92.11-7.8-5.68-12.46-16.53-12.61a22.82,22.82,0,0,0-22.27,23c-.22,15.88,8.37,24.07,21.14,24.25s17.3-8.28,17.81-11.4S246.72,299.64,246.33,300.63ZM163.91,310.9c-1.51-.51-2.34-1.9-2.34-8.4l0-23.57a32.41,32.41,0,0,0-.29-4.25,9.6,9.6,0,0,0-1.39-3.89,8.44,8.44,0,0,0-3.14-2.85,10.48,10.48,0,0,0-5.26-1.1,16.38,16.38,0,0,0-5.7,1.09,17.75,17.75,0,0,0-4.54,2.32A21.69,21.69,0,0,0,138,273.1a22.19,22.19,0,0,0-2,2.5v-5.11c0-1.79-.33-2.6-1.29-2.47-4.39.57-6.49,1.61-10.29,4a8.91,8.91,0,0,0-2.44,2.14,1.09,1.09,0,0,0,.18,1,4,4,0,0,0,1.51,1,5.64,5.64,0,0,1,1.86,1.86,2.46,2.46,0,0,1,.35,1.28l.13,23.3c0,6.5-.8,7.74-2.31,8.26-.72.25-1.78.54-1.78,1.38,0,1.09.67,1.4,1.64,1.4h3.41v0h11.34c1,0,1.64-.32,1.64-1.41,0-.84-1.06-1.13-1.78-1.38-1.51-.51-2.27-1.65-2.27-8.14l.1-24.14c.39-.62.88-1.31,1.46-2.09a12.73,12.73,0,0,1,2.15-2.21,11.49,11.49,0,0,1,3-1.74,10,10,0,0,1,3.9-.7,5.34,5.34,0,0,1,2.8.48,3.78,3.78,0,0,1,1.57,1.63,6.94,6.94,0,0,1,.58,2.26c.07.85.11,1.74.11,2.68l.37,23.71c0,6.5-.88,7.75-2.39,8.26-.72.25-1.78.54-1.78,1.38,0,1.09.68,1.41,1.64,1.41h14.77c1,0,1.64-.32,1.64-1.41C165.69,311.44,164.63,311.15,163.91,310.9Zm131.7,0c-1.51-.51-2.33-1.9-2.33-8.4l-.06-23.57a32.41,32.41,0,0,0-.29-4.25,9.6,9.6,0,0,0-1.39-3.89,8.44,8.44,0,0,0-3.14-2.85,10.48,10.48,0,0,0-5.26-1.1,16.38,16.38,0,0,0-5.7,1.09,17.75,17.75,0,0,0-4.54,2.32,22.2,22.2,0,0,0-3.25,2.85,20.9,20.9,0,0,0-2,2.5v-5.11c0-1.79-.34-2.6-1.3-2.47-4.39.57-6.49,1.61-10.29,4a9.07,9.07,0,0,0-2.44,2.14,1.15,1.15,0,0,0,.18,1,4,4,0,0,0,1.51,1,5.29,5.29,0,0,1,1,.82,5.18,5.18,0,0,1,.81,1,2.46,2.46,0,0,1,.35,1.28l.13,23.3c0,6.5-.8,7.74-2.31,8.26-.72.25-1.78.54-1.78,1.38,0,1.09.68,1.4,1.64,1.4h3.41v0h11.33c1,0,1.64-.32,1.64-1.41,0-.84-1.06-1.13-1.78-1.38-1.51-.51-2.26-1.65-2.26-8.14l.1-24.14c.38-.62.87-1.31,1.45-2.09a13.11,13.11,0,0,1,2.15-2.21,11.49,11.49,0,0,1,3-1.74,10.05,10.05,0,0,1,3.9-.7,5.32,5.32,0,0,1,2.8.48,3.72,3.72,0,0,1,1.57,1.63,6.7,6.7,0,0,1,.58,2.26c.07.85.11,1.74.11,2.68l.37,23.71c0,6.5-.88,7.75-2.39,8.26-.72.25-1.78.54-1.78,1.38,0,1.09.68,1.41,1.64,1.41h14.77c1,0,1.64-.32,1.64-1.41C297.39,311.44,296.33,311.15,295.61,310.9Z"/><path class="cls-1" d="M199.3,124.27c-4.23,3.35-9.93,7.77-15.6,12.26.36,1,1.36,5.82,1.76,7,6.14-5,13.67-11,18.23-14.71Z"/><path class="cls-1" d="M209.34,109.65a1.82,1.82,0,0,1,2,1.88,7.42,7.42,0,0,0,6.06,7.68,2.85,2.85,0,0,1,2.35,2.6A5.76,5.76,0,0,0,221,125c1.82,2.39,4.67,3.56,8,1.2s3.13-5.42,1.47-7.93a5.8,5.8,0,0,0-2.59-2.16,2.83,2.83,0,0,1-1.7-3.07,7.43,7.43,0,0,0-5.26-8.24,1.81,1.81,0,0,1-1.12-2.54c1-2,1.9-4.82.74-6.45-1.91-2.68-5.87-2.61-8.8-1.12a27.68,27.68,0,0,0-3.62,2.19,26.63,26.63,0,0,0-3.25,2.71c-2.37,2.27-3.73,6-1.83,8.67C204.16,109.86,207.14,109.9,209.34,109.65Z"/><path class="cls-1" d="M225,198.14c2.42-2.95.59-8.45-4.08-12.28a13.87,13.87,0,0,0-8.43-3.42,3.33,3.33,0,0,1-2.09-.76,3.43,3.43,0,0,1-1.21-2.18,3.82,3.82,0,0,0-6.27-2.41L200.4,180h0c-.31.37-1.41,1.45-1.25,2.48.5,1.52.46,1.33.91,2.71a4.23,4.23,0,0,0,3.55,1.06,3.36,3.36,0,0,1,3.53,2.66,13.85,13.85,0,0,0,5,7.6C216.81,200.37,222.56,201.09,225,198.14Z"/><path class="cls-1" d="M201.55,175.58l-7-5.74c.89,2.59,2.82,7.43,3.62,9.81Z"/><rect class="cls-1" x="104.81" y="109.67" width="23.6" height="9.32" rx="0.48" transform="translate(-45.74 131.96) rotate(-50.63)"/><rect class="cls-1" x="103.41" y="122.16" width="5.91" height="9.32" rx="0.48" transform="translate(-59.14 128.6) rotate(-50.63)"/><path class="cls-1" d="M156.48,128.89c1.63.31,2.72-.31,5.51-2.25s3.49-6.37,3.18-8.31-3.8-11.33-5.74-17.93-2.48-9.55-3-9.55c-1.09,0-5.66,6.05-5.59,18.4C150.89,121.9,154.16,128.45,156.48,128.89Z"/><path class="cls-1" d="M141.42,200.93c-.86-1.16-1.48-1.63-.39-5.05s11-33.53,14.91-43.62,5.35-17.78,10.48-17.78a14.47,14.47,0,0,1,2.87.15l.23-1.7s-3,.4-4.11-1c-1.32-1.71-.16-4.58-.16-4.58-1.38-.13-2,1.2-3.36,2s-5.92-.5-8.71,6.78l-18.12-15.07-3.8,4.23,20,16.69c-1.86,6.1-4.56,15.54-7.2,24.92-11,8.76-27.2,21.39-27.93,22-2.64,2.33,1.56,7.77,4.51,5.59.58-.43,12.82-10,20.1-15.79-2.64,9.47-4.75,17.08-5.15,18.37-1.09,3.49-1.63,9.23,3.18,9.23S142.27,202.09,141.42,200.93Z"/><path class="cls-1" d="M202.9,199.92c-.77-5.9-15.21-46.27-18.16-54.73s-3.34-11-5.59-12.81-3.5-.39-4.35.31-1,1.17-3.65.62l-.54,2s.23-1.08,2.33,3.57c.3.67,1,2.32,2,4.64l-6.21,5L161,142.39c-.51,1.3-1.05,2.79-1.63,4.43l-.45,1.27,5.25,4.09c-3.65,2.93-7.22,5.81-9.81,7.87-1.28,3.57-2.78,7.91-4.29,12.36,7.32-5.94,19.49-15.91,27.56-22.47l3.8,9.09L175,153.76l-4.54,3.69,15.65,12.83c5.5,13.28,10.68,25.91,10.9,26.85a4.19,4.19,0,0,1-.85,4c-.62.62-1.79,2.71.08,4S203.68,205.82,202.9,199.92Z"/><circle class="cls-1" cx="167.89" cy="129.9" r="1.63"/><path class="cls-1" d="M172.63,132.3c1.08-.07,4.73-.23,8.61-12.11S179.77,96,178.45,93.41s-2-2.25-2.33-1.63-10.33,33.15-10.33,33.15c-.23,1.4.39,2.25,1.17,2.33s2-.47,3,.54.46,2.56.38,3.42S171.54,132.38,172.63,132.3Z"/><path class="cls-1" d="M161.89,77.64A10.71,10.71,0,0,1,157,71.88a.11.11,0,0,1,.2-.1,10.45,10.45,0,0,0,12.45,4.53l7.36,12h11l-11.77-19a10.46,10.46,0,0,0-9-13.26,10.46,10.46,0,0,0-11.47,10.41,10.33,10.33,0,0,0,.4,2.85l-11.77,19h11Zm4.29-16a4.86,4.86,0,1,1-4.86,4.86A4.85,4.85,0,0,1,166.18,61.59Z"/><path class="cls-1" d="M100.12,169.33,153.4,89.84h-8l-15.63,27-3.93-3.39-3.64,4.43,4.67,4L99.62,169A.3.3,0,0,0,100.12,169.33Z"/><path class="cls-1" d="M232.75,169l-25.32-43.77c2.86-2.23,6.59-4.87,6.59-4.87a34.68,34.68,0,0,1-2.64-2.33,3.2,3.2,0,0,1-1.08-2.48s-3.44,2.38-6,4.3L187,89.84h-8l53.28,79.49A.3.3,0,0,0,232.75,169Z"/><path class="cls-1" d="M81.73,67.87a.32.32,0,0,0,.24-.14c.1-.13.28-.12.54,0a5.22,5.22,0,0,1,.75.51l7.92,6.36.43.34a3.6,3.6,0,0,1,.45.41,1.7,1.7,0,0,1,.31.39.28.28,0,0,1,0,.33.3.3,0,0,0-.08.26.31.31,0,0,0,.11.2.28.28,0,0,0,.22.06.29.29,0,0,0,.23-.13l2.32-2.89a10.53,10.53,0,0,0,1.21-1.84,4.6,4.6,0,0,0,.5-1.75,3.11,3.11,0,0,0-.37-1.64,4.86,4.86,0,0,0-1.35-1.55A3.33,3.33,0,0,0,92.54,66a5.2,5.2,0,0,0-2.74,1.35,4.91,4.91,0,0,0,.56-2.6,3,3,0,0,0-1.26-2.1A3.36,3.36,0,0,0,87.7,62a2.09,2.09,0,0,0-1.28.14,4,4,0,0,0-1.26.87,14,14,0,0,0-1.36,1.5l-2.32,2.89a.34.34,0,0,0-.08.26.31.31,0,0,0,.11.2A.29.29,0,0,0,81.73,67.87Zm9-.34a2.39,2.39,0,0,1,1.41-.09,4.77,4.77,0,0,1,1.75,1,6.46,6.46,0,0,1,1,1,3.47,3.47,0,0,1,.63,1.2,2.8,2.8,0,0,1,0,1.32,3.35,3.35,0,0,1-.7,1.38l-.77,1-5.78-4.63c.39-.49.77-.93,1.15-1.32A3.49,3.49,0,0,1,90.7,67.53Zm-6.63-2.85a4.54,4.54,0,0,1,.76-.76,2,2,0,0,1,.84-.35,1.8,1.8,0,0,1,1,.12,4.34,4.34,0,0,1,1.13.69,3.35,3.35,0,0,1,1.36,2.23,4.3,4.3,0,0,1-1,2.86L83.3,65.64Z"/><path class="cls-1" d="M92.31,55.57a.34.34,0,0,0,.25-.1.29.29,0,0,1,.31-.08,1.07,1.07,0,0,1,.34.19,2.85,2.85,0,0,1,.34.35c.12.13.23.27.35.39L101,64a6,6,0,0,1,.57.72c.15.25.17.42,0,.54a.32.32,0,0,0,0,.46.35.35,0,0,0,.21.1.35.35,0,0,0,.25-.11l6.39-5.87a.38.38,0,0,0,.16-.31.49.49,0,0,0-.15-.28l-1.62-1.77a.29.29,0,0,0-.22-.09.29.29,0,0,0-.21.08.27.27,0,0,0,0,.43,1.72,1.72,0,0,1,.52,1.25,3.19,3.19,0,0,1-.35,1.35,5.85,5.85,0,0,1-.87,1.29,11,11,0,0,1-1,1.09l-1,.91-8.34-9.07L95,54.42a3.38,3.38,0,0,1-.26-.33.71.71,0,0,1-.12-.31.31.31,0,0,1,.12-.27.33.33,0,0,0,.13-.25.33.33,0,0,0-.09-.21.26.26,0,0,0-.21-.09.35.35,0,0,0-.25.09l-2.13,2a.34.34,0,0,0-.13.27.47.47,0,0,0,.1.2A.31.31,0,0,0,92.31,55.57Z"/><path class="cls-1" d="M104.69,45A.34.34,0,0,0,105,45c.14-.1.32-.06.56.14a3.54,3.54,0,0,1,.62.66L112,54l.32.46a5.54,5.54,0,0,1,.3.53,2.08,2.08,0,0,1,.16.48.29.29,0,0,1-.1.32.34.34,0,0,0-.15.23.33.33,0,0,0,0,.22.32.32,0,0,0,.46,0l2.35-1.68a.33.33,0,0,0,.15-.22.3.3,0,0,0,0-.23.28.28,0,0,0-.19-.12.3.3,0,0,0-.26.07.34.34,0,0,1-.35,0,2.38,2.38,0,0,1-.42-.3,5.81,5.81,0,0,1-.43-.43l-.35-.43-5.9-8.26a3.73,3.73,0,0,1-.4-.83c-.09-.29-.07-.49.08-.6a.3.3,0,0,0,.16-.22.36.36,0,0,0-.06-.23.27.27,0,0,0-.2-.11.32.32,0,0,0-.26.06l-2.35,1.68a.36.36,0,0,0-.15.23.32.32,0,0,0,0,.22A.31.31,0,0,0,104.69,45Z"/><path class="cls-1" d="M113.32,39.13a.33.33,0,0,0,.27,0c.15-.08.32,0,.5.23a4.5,4.5,0,0,1,.49.76L119.39,49c.08.15.16.33.25.53a4.25,4.25,0,0,1,.23.57,2.66,2.66,0,0,1,.1.47c0,.14,0,.22-.06.26a.26.26,0,0,0-.17.2.29.29,0,0,0,0,.22.3.3,0,0,0,.43.12L122.75,50a.32.32,0,0,0,.16-.2.32.32,0,0,0-.2-.37.36.36,0,0,0-.29,0,.24.24,0,0,1-.28-.06,1.3,1.3,0,0,1-.31-.34c-.1-.15-.21-.31-.32-.51l-.3-.54L119.55,45l.47-2.54.79.61,1.11.88c.41.31.82.64,1.25,1s.83.69,1.19,1l1,.84a3.82,3.82,0,0,1,.52.54.28.28,0,0,1,0,.21.22.22,0,0,1-.11.21.32.32,0,0,0-.14.18.36.36,0,0,0,0,.23.3.3,0,0,0,.19.14.33.33,0,0,0,.22,0l2.66-1.43a.25.25,0,0,0,.12-.4.27.27,0,0,0-.17-.14.26.26,0,0,0-.23,0,.53.53,0,0,1-.5,0s-.23-.17-.55-.43-.73-.58-1.21-1l-1.56-1.3L123,42.19,121.47,41l-1-.85.76-4.25a1.94,1.94,0,0,1,.14-.51,1.58,1.58,0,0,1,.26-.44,1.47,1.47,0,0,1,.5-.4.26.26,0,0,0,.11-.41.26.26,0,0,0-.4-.13l-2.57,1.38a.26.26,0,0,0-.12.41.27.27,0,0,0,.41.13,2,2,0,0,1,.8-.3.4.4,0,0,1,.34.12.57.57,0,0,1,0,.42l-1.47,8.25-2.84-5.29a8,8,0,0,1-.33-.83c-.1-.27-.07-.45.08-.53a.31.31,0,0,0,.15-.44.3.3,0,0,0-.18-.15.32.32,0,0,0-.27,0l-2.55,1.37a.32.32,0,0,0-.18.2.38.38,0,0,0,0,.24A.34.34,0,0,0,113.32,39.13Z"/><path class="cls-1" d="M129.37,31.38c.16-.05.31.05.45.31a5.62,5.62,0,0,1,.36.83l3.28,9.61c0,.16.11.35.17.56a5.77,5.77,0,0,1,.12.6,2.17,2.17,0,0,1,0,.49c0,.13,0,.21-.11.24a.28.28,0,0,0-.2.16.3.3,0,0,0,0,.23.34.34,0,0,0,.14.18.29.29,0,0,0,.26,0l2.74-.93a.32.32,0,0,0,.19-.17.31.31,0,0,0,0-.23.28.28,0,0,0-.15-.17.32.32,0,0,0-.29,0,.25.25,0,0,1-.27-.1,1.44,1.44,0,0,1-.24-.39c-.08-.16-.16-.35-.24-.55s-.14-.4-.21-.59l-1.12-3.31.87-2.43c.17.17.39.41.68.73l1,1c.34.38.7.77,1.06,1.19s.71.81,1,1.18l.8,1a3.34,3.34,0,0,1,.43.62.31.31,0,0,1,0,.22.23.23,0,0,1-.15.19.29.29,0,0,0-.16.15.25.25,0,0,0,0,.22.27.27,0,0,0,.16.17.29.29,0,0,0,.22,0l2.86-1a.26.26,0,0,0,.18-.37.3.3,0,0,0-.38-.19.56.56,0,0,1-.48-.1s-.2-.21-.48-.52l-1-1.16L139.5,37.6,138.09,36l-1.26-1.46-.87-1,1.45-4.07a1.79,1.79,0,0,1,.21-.47,1.71,1.71,0,0,1,.33-.4,1.57,1.57,0,0,1,.56-.31.27.27,0,0,0,.18-.39.27.27,0,0,0-.38-.2l-2.76.94a.31.31,0,0,0,.2.59,2.14,2.14,0,0,1,.84-.17.41.41,0,0,1,.31.18.5.5,0,0,1,0,.42l-2.79,7.9-1.94-5.68a7.85,7.85,0,0,1-.2-.88c0-.28,0-.46.18-.51a.3.3,0,0,0,.21-.18.36.36,0,0,0,0-.23.33.33,0,0,0-.43-.19l-2.74.93A.35.35,0,0,0,129,31a.37.37,0,0,0,0,.23.31.31,0,0,0,.16.18A.28.28,0,0,0,129.37,31.38Z"/><path class="cls-1" d="M146.13,26.39c.17,0,.3.1.4.38a5.66,5.66,0,0,1,.23.88l1.73,10q0,.23.09.54a4.39,4.39,0,0,1,.07.61,2,2,0,0,1,0,.5.28.28,0,0,1-.22.24.32.32,0,0,0-.23.14.3.3,0,0,0,0,.22.28.28,0,0,0,.12.2.33.33,0,0,0,.27,0l8-1.38c.15,0,.25-.08.29-.17a.55.55,0,0,0,0-.32l-.41-2.37a.23.23,0,0,0-.13-.19.32.32,0,0,0-.23,0,.26.26,0,0,0-.24.35c.06.36.11.69.15,1a1.35,1.35,0,0,1-.16.82,1.81,1.81,0,0,1-.83.66,7.43,7.43,0,0,1-1.84.51l-2.25.38-1.2-7,1.76-.3.49-.07a2.7,2.7,0,0,1,.69,0,1.44,1.44,0,0,1,.65.33,1.28,1.28,0,0,1,.38.79.36.36,0,0,0,.13.21.29.29,0,0,0,.22.06.33.33,0,0,0,.21-.14.28.28,0,0,0,0-.23l-.55-3.19a.24.24,0,0,0-.13-.19.28.28,0,0,0-.23-.05.26.26,0,0,0-.25.34,1.3,1.3,0,0,1-.09.88,1.34,1.34,0,0,1-.51.52,2.11,2.11,0,0,1-.63.26c-.22.06-.38.09-.49.11l-1.76.3-1.1-6.37,2.24-.39a7.39,7.39,0,0,1,1.91-.14,1.84,1.84,0,0,1,1,.34,1.26,1.26,0,0,1,.42.73c.07.3.13.63.2,1a.33.33,0,0,0,.12.21.27.27,0,0,0,.23,0,.3.3,0,0,0,.2-.13.34.34,0,0,0,.06-.24l-.41-2.36a.53.53,0,0,0-.14-.3.41.41,0,0,0-.33-.06l-8,1.39a.3.3,0,0,0-.24.13.32.32,0,0,0,0,.23.33.33,0,0,0,.12.19A.31.31,0,0,0,146.13,26.39Z"/><path class="cls-1" d="M162.32,37.52c-.2,0-.3.1-.3.31s.1.31.3.31l2.58,0a.3.3,0,0,0,.2-.09.27.27,0,0,0,.09-.2.27.27,0,0,0-.1-.22.24.24,0,0,0-.2-.08,1.23,1.23,0,0,1-.55-.1.71.71,0,0,1-.33-.24.76.76,0,0,1-.17-.32,1.47,1.47,0,0,1,0-.36l-.1-10.34,7.92,11.69a.24.24,0,0,0,.06.11.25.25,0,0,0,.15.09.18.18,0,0,0,.21-.22l-.12-12.75a2.21,2.21,0,0,1,0-.35.74.74,0,0,1,.16-.32,1.08,1.08,0,0,1,.33-.24,1.59,1.59,0,0,1,.55-.1.28.28,0,0,0,.2-.09.27.27,0,0,0,.1-.22.34.34,0,0,0-.1-.21.3.3,0,0,0-.21-.09l-2.57,0a.27.27,0,0,0-.3.31.33.33,0,0,0,.09.21.27.27,0,0,0,.22.1.92.92,0,0,1,.86.32,1.23,1.23,0,0,1,.21.67l.08,8.36-6.28-9.3a1.58,1.58,0,0,0-.26-.31,2,2,0,0,0-.34-.21,1.38,1.38,0,0,0-.52-.09l-1.8,0a.29.29,0,0,0-.21.1.29.29,0,0,0-.09.21.31.31,0,0,0,.3.3.62.62,0,0,1,.44.15,1.19,1.19,0,0,1,.26.36,2.3,2.3,0,0,1,.14.42,1.85,1.85,0,0,1,.05.34l.1,11.07a1.29,1.29,0,0,1-.19.67A.94.94,0,0,1,162.32,37.52Z"/><path class="cls-1" d="M179.82,38.15a4.93,4.93,0,0,0,1.28.76,6.54,6.54,0,0,0,1.46.42,5.13,5.13,0,0,0,2-.06,3.71,3.71,0,0,0,1.48-.71,3.6,3.6,0,0,0,1-1.16A4.59,4.59,0,0,0,187.5,36a3.77,3.77,0,0,0-.07-1.59,3.56,3.56,0,0,0-.71-1.27A6.29,6.29,0,0,0,185.49,32c-.49-.34-1-.69-1.65-1.06a3.83,3.83,0,0,1-1.25-1.11,4.42,4.42,0,0,1-.68-1.4,3.74,3.74,0,0,1-.12-1.44,2.86,2.86,0,0,1,.43-1.24,2.12,2.12,0,0,1,.95-.82,2.6,2.6,0,0,1,1.47-.15,4.15,4.15,0,0,1,1.61.54,1.91,1.91,0,0,1,.76.84,1.14,1.14,0,0,1,0,.87,1.28,1.28,0,0,1-.62.66,1.52,1.52,0,0,0-.7.64,1.29,1.29,0,0,0-.14.73,1.4,1.4,0,0,0,.27.67,1.48,1.48,0,0,0,.54.44,1.39,1.39,0,0,0,.59.07,1.35,1.35,0,0,0,.63-.21,1.81,1.81,0,0,0,.52-.57,2.51,2.51,0,0,0,.32-1,2.79,2.79,0,0,0-.11-1.27,3.37,3.37,0,0,0-.67-1.21,4.52,4.52,0,0,0-1.23-1,4.76,4.76,0,0,0-1.73-.56,4.1,4.1,0,0,0-1.72.06,3.7,3.7,0,0,0-1.41.68,3.79,3.79,0,0,0-1,1.18A4.23,4.23,0,0,0,180,28a3.58,3.58,0,0,0,.08,1.65,4.22,4.22,0,0,0,.71,1.34A6.79,6.79,0,0,0,182,32.12c.46.35,1,.7,1.49,1.06a3.92,3.92,0,0,1,1.13,1.09,4.67,4.67,0,0,1,.63,1.34,3.88,3.88,0,0,1,.13,1.35,2.57,2.57,0,0,1-.38,1.17,2,2,0,0,1-.92.75,2.51,2.51,0,0,1-1.45.13,3.89,3.89,0,0,1-1.5-.49,2.3,2.3,0,0,1-.82-.73.85.85,0,0,1-.1-.75.88.88,0,0,1,.65-.51,1.46,1.46,0,0,0,.74-.47,1.35,1.35,0,0,0,.27-.7,1.28,1.28,0,0,0-.12-.69.94.94,0,0,0-.47-.49,1.73,1.73,0,0,0-.72-.17,1.67,1.67,0,0,0-.76.18,1.86,1.86,0,0,0-.64.56,2.12,2.12,0,0,0-.38,1,2.17,2.17,0,0,0,.2,1.34A3.26,3.26,0,0,0,179.82,38.15Z"/><path class="cls-1" d="M192.21,41l8.29,2.56a.39.39,0,0,0,.34,0,.54.54,0,0,0,.18-.27l.71-2.3a.27.27,0,0,0,0-.23.28.28,0,0,0-.17-.15.27.27,0,0,0-.38.2,1.78,1.78,0,0,1-.83,1.08,3.07,3.07,0,0,1-1.34.37,6.31,6.31,0,0,1-1.55-.1c-.53-.1-1-.22-1.47-.35l-1.28-.4,3.64-11.77c0-.14.09-.28.13-.43a2.42,2.42,0,0,1,.16-.39.86.86,0,0,1,.2-.27.38.38,0,0,1,.3,0,.31.31,0,0,0,.27,0,.29.29,0,0,0,.15-.18.32.32,0,0,0,0-.23.29.29,0,0,0-.21-.16l-2.76-.86c-.14,0-.23,0-.3,0a.41.41,0,0,0-.12.18.34.34,0,0,0,0,.22.33.33,0,0,0,.22.17.31.31,0,0,1,.22.22,1.27,1.27,0,0,1,0,.39,2.47,2.47,0,0,1-.13.48c-.06.16-.11.33-.16.49l-3.1,10a4.82,4.82,0,0,1-.34.86c-.13.25-.28.36-.44.31a.31.31,0,0,0-.27,0,.43.43,0,0,0-.15.18.37.37,0,0,0,0,.23A.36.36,0,0,0,192.21,41Z"/><path class="cls-1" d="M208,46.72a.24.24,0,0,0,.37-.13.23.23,0,0,0-.13-.35v0a1.4,1.4,0,0,1-.64-.5.6.6,0,0,1-.11-.44.72.72,0,0,1,.28-.46l3.51-3.62a3.26,3.26,0,0,1,1.12,1,5.18,5.18,0,0,1,.66,1.36,7.51,7.51,0,0,1,.33,1.46c0,.49.09.92.1,1.31s-.15.89-.23,1.21a2.18,2.18,0,0,1-.2.62c-.1.2-.23.27-.38.19a.26.26,0,0,0-.21,0,.3.3,0,0,0-.17.14.25.25,0,0,0,.11.39l2.52,1.26a.27.27,0,0,0,.4-.14.33.33,0,0,0,0-.22.27.27,0,0,0-.15-.18l0,0a.49.49,0,0,1-.21-.39,2.57,2.57,0,0,1,.06-.67c.05-.38.13-.85.22-1.43s.21-1.23.34-2,.25-1.49.39-2.27.27-1.56.41-2.34.27-1.5.39-2.18.23-1.27.33-1.79.16-.93.21-1.21a1.55,1.55,0,0,1,0-.23c0-.09-.07-.16-.2-.23s-.24-.08-.32,0l-.21.15c-.32.33-.84.9-1.56,1.7l-7.63,7.89-.27.26a1.21,1.21,0,0,1-.32.22.93.93,0,0,1-.4.09,1.09,1.09,0,0,1-.47-.12v0a.24.24,0,0,0-.37.1.24.24,0,0,0,.13.37Zm6.83-9.14c-.06.31-.12.67-.19,1.1s-.14.89-.21,1.39-.14,1-.22,1.59l-.24,1.66a5,5,0,0,0-.83-1.08A6.32,6.32,0,0,0,211.44,41Z"/><path class="cls-1" d="M222.46,55.49a4.58,4.58,0,0,0,1.84.83,3.48,3.48,0,0,0,1.7-.14,4.72,4.72,0,0,0,1.57-1A10.35,10.35,0,0,0,229,53.58a1.54,1.54,0,0,1,.55-.52.5.5,0,0,1,.55.08.28.28,0,0,0,.43-.08.28.28,0,0,0-.07-.43l-2.55-1.81a.31.31,0,0,0-.36.51.52.52,0,0,1,.27.5,1.46,1.46,0,0,1-.31.69q-.44.61-.9,1.35a6.17,6.17,0,0,1-1,1.25,2.5,2.5,0,0,1-1.28.61,2.31,2.31,0,0,1-1.62-.53,1.94,1.94,0,0,1-.93-1.45,3.6,3.6,0,0,1,.35-1.78,11.59,11.59,0,0,1,1.16-2c.49-.71,1-1.43,1.5-2.15.29-.4.59-.83.9-1.28s.63-.88,1-1.28a14.12,14.12,0,0,1,1-1.13,4.6,4.6,0,0,1,1.1-.79,2.31,2.31,0,0,1,1.14-.25,2.18,2.18,0,0,1,1.2.45,3.06,3.06,0,0,1,.85.91,2,2,0,0,1,.31,1.08,1.86,1.86,0,0,1-.42,1.08,3.35,3.35,0,0,1-1.3.95A1.13,1.13,0,0,0,230,48a1.06,1.06,0,0,0-.15.57,1.19,1.19,0,0,0,.18.57,1.52,1.52,0,0,0,.42.45,1.45,1.45,0,0,0,.47.22,1.31,1.31,0,0,0,.56,0,1.89,1.89,0,0,0,.6-.24,2.08,2.08,0,0,0,.56-.55,3.7,3.7,0,0,0,.67-1.55,3.76,3.76,0,0,0-.06-1.57,4.36,4.36,0,0,0-.7-1.46,5.22,5.22,0,0,0-1.25-1.23,4.23,4.23,0,0,0-2-.79,4.54,4.54,0,0,0-2.13.29A7.67,7.67,0,0,0,225,44.09a13.27,13.27,0,0,0-2.1,2.39,14.4,14.4,0,0,0-1.5,2.59,8.17,8.17,0,0,0-.69,2.46,4.71,4.71,0,0,0,.3,2.19A4,4,0,0,0,222.46,55.49Z"/><path class="cls-1" d="M239.87,52.85l-7.08,7.28-.38.39a5.76,5.76,0,0,1-.45.42,1.89,1.89,0,0,1-.43.27.28.28,0,0,1-.32,0,.38.38,0,0,0-.25-.11.3.3,0,0,0-.21.1.34.34,0,0,0-.09.21.37.37,0,0,0,.12.25l5.81,5.65a.41.41,0,0,0,.31.14.5.5,0,0,0,.28-.17l1.68-1.72a.29.29,0,0,0,.08-.22.33.33,0,0,0-.11-.22.26.26,0,0,0-.42,0c-.25.26-.49.5-.72.71a1.26,1.26,0,0,1-.76.36,1.88,1.88,0,0,1-1-.28,8,8,0,0,1-1.49-1.2l-1.63-1.59L237.73,58,239,59.26l.34.36a2.16,2.16,0,0,1,.38.58,1.39,1.39,0,0,1,.12.71,1.29,1.29,0,0,1-.42.78.29.29,0,0,0-.09.22.24.24,0,0,0,.09.21.29.29,0,0,0,.22.09.32.32,0,0,0,.23-.09l2.25-2.32a.25.25,0,0,0,.08-.22.3.3,0,0,0-.1-.22.26.26,0,0,0-.42,0,1.29,1.29,0,0,1-.77.44,1.45,1.45,0,0,1-.72-.1,2.58,2.58,0,0,1-.58-.36l-.37-.34L238,57.77l4.51-4.64,1.64,1.58a8.2,8.2,0,0,1,1.24,1.46,1.87,1.87,0,0,1,.3,1,1.3,1.3,0,0,1-.33.78c-.2.23-.43.47-.69.74a.35.35,0,0,0-.1.22.29.29,0,0,0,.09.21.32.32,0,0,0,.23.09.27.27,0,0,0,.22-.1l1.68-1.72a.46.46,0,0,0,.15-.28.36.36,0,0,0-.14-.31l-5.82-5.65a.34.34,0,0,0-.25-.11.35.35,0,0,0-.21.1.34.34,0,0,0-.09.21.39.39,0,0,0,.12.25c.12.11.1.29-.07.54A6,6,0,0,1,239.87,52.85Z"/><path class="cls-1" d="M241.69,70.47a3.85,3.85,0,0,1-.42.25,1.37,1.37,0,0,1-.36.12.24.24,0,0,1-.25-.1.26.26,0,0,0-.22-.13.34.34,0,0,0-.22.07.31.31,0,0,0-.13.19.27.27,0,0,0,.06.26l1.74,2.31a.31.31,0,0,0,.23.14.31.31,0,0,0,.35-.26.3.3,0,0,0-.07-.26c-.1-.14-.06-.31.13-.51a7.64,7.64,0,0,1,.65-.61l4.69-3.51.76,1a4,4,0,0,1,.63,1.11,1.46,1.46,0,0,1,0,1,2.83,2.83,0,0,1-.65,1,10.85,10.85,0,0,1-1.39,1.2,9.47,9.47,0,0,0-1.65,1.49,3.21,3.21,0,0,0-.66,1.17,1.48,1.48,0,0,0,.07,1,4.57,4.57,0,0,0,.52.89l.71.93a.32.32,0,0,0,.22.14.34.34,0,0,0,.23-.05.27.27,0,0,0,.11-.19.31.31,0,0,0-.07-.27,2.12,2.12,0,0,1-.3-.56,1.26,1.26,0,0,1,0-.75,3,3,0,0,1,.56-1,8,8,0,0,1,1.4-1.27c.55-.42,1-.79,1.38-1.13a3.83,3.83,0,0,0,.82-1,1.82,1.82,0,0,0,.22-1,2.78,2.78,0,0,0-.36-1.13,4.73,4.73,0,0,0,2.17.88,2.94,2.94,0,0,0,2.09-.65,2.88,2.88,0,0,0,1-1.23,2.42,2.42,0,0,0,.1-1.39,5.28,5.28,0,0,0-.62-1.55A17.3,17.3,0,0,0,254,65.34l-2.22-3a.31.31,0,0,0-.23-.15.28.28,0,0,0-.22.06.31.31,0,0,0-.12.19.32.32,0,0,0,.08.27c.1.13,0,.31-.15.52a6.62,6.62,0,0,1-.68.6l-8.39,6.28C242,70.26,241.84,70.37,241.69,70.47ZM253,64.58l.74,1a5.86,5.86,0,0,1,.58,1,2.68,2.68,0,0,1,.22,1,2.12,2.12,0,0,1-.27,1,3.42,3.42,0,0,1-3.52,1.59,5.16,5.16,0,0,1-2.65-1.9Z"/><path class="cls-1" d="M121.5,222.48l-2.1-1.1-2-1.27c-.5-.32-1-.63-1.52-.94-.86-.53-1.72-1-2.53-1.59-1.77-1.28-4-1.22-5,.12l-3.6,5a1.49,1.49,0,0,1-1.07.57,4.23,4.23,0,0,1-3-1A4.41,4.41,0,0,1,99,219.5a1.48,1.48,0,0,1,.3-1.11l4-4.71a.57.57,0,0,0-.88-.74l-4,4.7a2.6,2.6,0,0,0-.57,2,5.51,5.51,0,0,0,2.11,3.57,5.29,5.29,0,0,0,3.89,1.21,2.69,2.69,0,0,0,1.85-1l3.58-5c.61-.82,2.15-.76,3.4.14.85.56,1.72,1.09,2.59,1.63.5.31,1,.61,1.51.93l2.08,1.29,2.13,1.12c1.52.8,2.37,2.35,1.86,3.4l-2.72,5.52a.58.58,0,0,0,.26.77.57.57,0,0,0,.25.06.59.59,0,0,0,.52-.32l2.72-5.53C124.63,225.77,123.58,223.57,121.5,222.48Z"/><path class="cls-1" d="M100.36,208.7l1.78,1.68,1.85,1.54c1.32,1.09,1.83,2.79,1.13,3.7l-3.8,4.85a.58.58,0,0,0,.1.81.57.57,0,0,0,.35.12.58.58,0,0,0,.45-.22l3.8-4.85c1.1-1.42.51-3.79-1.3-5.29l-1.82-1.51-1.75-1.66-1.3-1.24c-.73-.69-1.46-1.38-2.15-2.06-1.46-1.61-3.66-2-4.9-.9l-4.53,4.13a1.5,1.5,0,0,1-1.16.34,4.23,4.23,0,0,1-2.77-1.56,4.46,4.46,0,0,1-1.09-3.07,1.51,1.51,0,0,1,.52-1l4.85-3.8a.57.57,0,0,0-.7-.9l-4.85,3.79a2.63,2.63,0,0,0-1,1.8,5.56,5.56,0,0,0,1.35,3.94,5.4,5.4,0,0,0,3.58,2,2.69,2.69,0,0,0,2-.65l4.52-4.12c.76-.68,2.26-.3,3.3.84q1.08,1.06,2.19,2.1Z"/><path class="cls-1" d="M84.1,189.25l4.12,6,1.5,1.88c1.07,1.34,1.23,3.1.35,3.86l-4.71,4a.58.58,0,0,0-.07.81.6.6,0,0,0,.44.2.58.58,0,0,0,.37-.13l4.71-4c1.36-1.16,1.28-3.61-.19-5.44l-1.48-1.86-4.08-5.91c-1.1-1.87-3.17-2.71-4.61-1.87l-5.28,3.11a1.55,1.55,0,0,1-1.2.1,4.24,4.24,0,0,1-2.39-2.09,4.42,4.42,0,0,1-.44-3.22,1.52,1.52,0,0,1,.73-.9L77.39,181a.57.57,0,0,0-.5-1l-5.52,2.72a2.6,2.6,0,0,0-1.31,1.56,5.56,5.56,0,0,0,.5,4.13,5.37,5.37,0,0,0,3.12,2.66,2.64,2.64,0,0,0,2.08-.22L81,187.74C81.91,187.23,83.3,187.9,84.1,189.25Z"/><path class="cls-1" d="M74.89,170.88l1.86,4.45.33.78c.2.49.4,1,.63,1.46l1.08,2.15c.77,1.53.56,3.29-.46,3.85l-5.41,2.93a.58.58,0,0,0,.27,1.08.52.52,0,0,0,.27-.07l5.42-2.93c1.57-.86,2-3.27.94-5.37l-1.08-2.15c-.22-.45-.41-.91-.6-1.38-.11-.27-.22-.54-.34-.8L76,170.48c-.71-2.1-2.51-3.32-4.12-2.79l-5.8,2a1.46,1.46,0,0,1-1.16-.13,4.41,4.41,0,0,1-2-2.55,4.5,4.5,0,0,1,.26-3.25,1.51,1.51,0,0,1,.9-.73l6-1.53a.57.57,0,1,0-.28-1.11l-6,1.53a2.59,2.59,0,0,0-1.61,1.26,5.56,5.56,0,0,0-.36,4.16,5.5,5.5,0,0,0,2.55,3.25,2.59,2.59,0,0,0,2,.19l5.8-2C73.16,168.46,74.39,169.41,74.89,170.88Z"/><path class="cls-1" d="M69.7,151c.15.79.29,1.58.43,2.38a68.17,68.17,0,0,0,1.54,7.07c.43,1.66-.15,3.34-1.26,3.68l-5.9,1.75a.57.57,0,0,0-.39.71.58.58,0,0,0,.55.42.45.45,0,0,0,.16,0l5.91-1.75c1.71-.52,2.63-2.79,2-5.08a65.36,65.36,0,0,1-1.52-7c-.14-.79-.29-1.59-.44-2.38-.38-2.24-1.83-3.72-3.47-3.54l-6.09.73a1.52,1.52,0,0,1-1.09-.36,4.38,4.38,0,0,1-1.39-2.94,4.07,4.07,0,0,1,.82-3,1.59,1.59,0,0,1,1.1-.61l6.15-.27a.57.57,0,0,0,.55-.6.55.55,0,0,0-.6-.54l-6.14.27a2.75,2.75,0,0,0-1.92,1,5.27,5.27,0,0,0-1.1,3.9,5.54,5.54,0,0,0,1.82,3.72,2.58,2.58,0,0,0,1.94.59l6.08-.72C68.48,148.29,69.42,149.4,69.7,151Z"/><path class="cls-1" d="M60.87,127l6.09.52c1,.09,1.75,1.43,1.69,3-.09,1.22-.11,2.46-.13,3.66l0,1.2c0,1,.06,2,.1,3,0,.61.05,1.21.06,1.81a4.1,4.1,0,0,1-.6,2.37,1.81,1.81,0,0,1-1.36,1l-6.13.5a.57.57,0,0,0-.53.62.58.58,0,0,0,.57.53h0l6.14-.5A2.89,2.89,0,0,0,69,143.12a5.22,5.22,0,0,0,.79-3c0-.6,0-1.21-.07-1.81,0-1-.08-2-.09-3l0-1.19c0-1.19,0-2.41.12-3.62.09-2.23-1.08-4-2.73-4.18l-6.1-.52a1.55,1.55,0,0,1-1-.62,4.21,4.21,0,0,1-.69-3.12,4.16,4.16,0,0,1,1.42-2.83,1.54,1.54,0,0,1,1.16-.35l6.08,1a.57.57,0,1,0,.18-1.13l-6.07-1a2.64,2.64,0,0,0-2,.57,5.24,5.24,0,0,0-1.87,3.61,5.3,5.3,0,0,0,.94,4A2.6,2.6,0,0,0,60.87,127Z"/><path class="cls-1" d="M64.91,105.11l5.86,1.76c1,.29,1.41,1.76,1,3.26a96.11,96.11,0,0,0-2,9.47c-.29,1.72-1.45,3-2.56,2.89l-6.11-.75a.57.57,0,1,0-.14,1.13l6.12.76h.3c1.66,0,3.14-1.59,3.53-3.85a91.35,91.35,0,0,1,2-9.37c.55-2.16-.23-4.16-1.81-4.65L65.23,104a1.54,1.54,0,0,1-.89-.82,4.18,4.18,0,0,1,0-3.18,4.14,4.14,0,0,1,2-2.47,1.55,1.55,0,0,1,1.21-.11l5.75,2.22a.57.57,0,0,0,.74-.33.56.56,0,0,0-.33-.74L67.9,96.37a2.64,2.64,0,0,0-2.12.13,5.85,5.85,0,0,0-2.46,7.21A2.65,2.65,0,0,0,64.91,105.11Z"/><path class="cls-1" d="M73.36,84.59l5.37,2.93c.87.48,1,2,.34,3.4a94.67,94.67,0,0,0-3.92,8.86c-.63,1.62-2,2.65-3.1,2.29l-5.83-2a.57.57,0,0,0-.37,1.08l5.83,2a2.54,2.54,0,0,0,.81.13,4.44,4.44,0,0,0,3.73-3.1,94.93,94.93,0,0,1,3.87-8.76c1-2,.62-4.12-.81-4.92L73.9,83.58a1.51,1.51,0,0,1-.7-1,4.24,4.24,0,0,1,.61-3.13.58.58,0,0,0-.2-.79.57.57,0,0,0-.78.2,5.36,5.36,0,0,0-.74,4A2.6,2.6,0,0,0,73.36,84.59Z"/><path class="cls-1" d="M233,212.94a.57.57,0,1,0-.88.74l4,4.71a1.48,1.48,0,0,1,.3,1.11,4.42,4.42,0,0,1-1.67,2.77,4.27,4.27,0,0,1-3,1,1.51,1.51,0,0,1-1.07-.58l-3.6-5c-1-1.34-3.21-1.39-5-.14-.83.56-1.69,1.08-2.55,1.61l-1.51.94-2,1.25-2.14,1.12c-2.07,1.09-3.13,3.29-2.35,4.91l2.72,5.53a.59.59,0,0,0,.52.32.58.58,0,0,0,.51-.83l-2.72-5.52c-.5-1,.35-2.6,1.86-3.4l2.16-1.14,2-1.27c.5-.32,1-.62,1.51-.93.87-.54,1.74-1.07,2.61-1.65,1.23-.88,2.78-.94,3.38-.12l3.58,5a2.69,2.69,0,0,0,1.85,1,5.32,5.32,0,0,0,3.91-1.22,5.57,5.57,0,0,0,2.1-3.56,2.61,2.61,0,0,0-.58-1.95Z"/><path class="cls-1" d="M252.25,201.58l-4.84-3.8a.58.58,0,0,0-.81.1.57.57,0,0,0,.1.8l4.85,3.8a1.51,1.51,0,0,1,.52,1,4.46,4.46,0,0,1-1.08,3.06,4.24,4.24,0,0,1-2.78,1.57,1.54,1.54,0,0,1-1.16-.34l-4.53-4.13c-1.24-1.11-3.43-.71-4.88.88-.71.7-1.44,1.39-2.17,2.08l-1.3,1.24-1.72,1.63L230.6,211c-1.81,1.5-2.4,3.87-1.3,5.29l3.8,4.85a.58.58,0,0,0,.45.22.57.57,0,0,0,.35-.12.58.58,0,0,0,.1-.81l-3.79-4.84c-.71-.92-.2-2.62,1.12-3.71l1.88-1.56L235,208.7l1.3-1.24c.74-.69,1.47-1.39,2.21-2.12,1-1.12,2.53-1.5,3.28-.82l4.52,4.12a2.67,2.67,0,0,0,2,.65,5.37,5.37,0,0,0,3.59-2,5.51,5.51,0,0,0,1.34-3.93A2.55,2.55,0,0,0,252.25,201.58Z"/><path class="cls-1" d="M264,182.73,258.43,180a.57.57,0,0,0-.5,1l5.52,2.72a1.49,1.49,0,0,1,.73.9,4.43,4.43,0,0,1-.43,3.21,4.27,4.27,0,0,1-2.4,2.1,1.58,1.58,0,0,1-1.21-.1l-5.27-3.12c-1.44-.83-3.51,0-4.59,1.85l-4.07,5.91-1.51,1.89c-1.46,1.83-1.55,4.28-.19,5.44l4.71,4a.58.58,0,0,0,.37.13.6.6,0,0,0,.44-.2.58.58,0,0,0-.07-.81l-4.7-4c-.88-.76-.73-2.52.34-3.86l1.52-1.91,4.13-6c.77-1.31,2.16-2,3-1.47l5.27,3.11a2.6,2.6,0,0,0,2.08.23,5.35,5.35,0,0,0,3.13-2.68,5.54,5.54,0,0,0,.49-4.11A2.62,2.62,0,0,0,264,182.73Z"/><path class="cls-1" d="M271.54,161.88l-6-1.53a.57.57,0,0,0-.28,1.11l6,1.53a1.51,1.51,0,0,1,.89.73,4.49,4.49,0,0,1-1.71,5.8,1.49,1.49,0,0,1-1.16.13l-5.81-2c-1.6-.53-3.4.7-4.1,2.75l-1.85,4.43c-.12.27-.23.54-.34.81-.19.47-.38.93-.59,1.38l-1.08,2.15c-1.06,2.1-.64,4.51.93,5.37l5.42,2.93a.54.54,0,0,0,.27.07.58.58,0,0,0,.28-1.08L257,183.57c-1-.56-1.23-2.32-.46-3.85l1.08-2.15c.24-.48.44-1,.63-1.46l.33-.79,1.87-4.48c.49-1.43,1.72-2.38,2.67-2.06l5.8,2a2.63,2.63,0,0,0,2-.19,5.64,5.64,0,0,0,2.19-7.41A2.6,2.6,0,0,0,271.54,161.88Z"/><path class="cls-1" d="M276.58,140.91a2.75,2.75,0,0,0-1.91-1l-6.15-.27a.55.55,0,0,0-.6.54.57.57,0,0,0,.55.6l6.15.27a1.59,1.59,0,0,1,1.1.61,4,4,0,0,1,.82,3,4.42,4.42,0,0,1-1.38,2.94,1.58,1.58,0,0,1-1.11.36l-6.08-.73c-1.61-.18-3.09,1.3-3.47,3.53-.15.8-.3,1.59-.44,2.39a64.35,64.35,0,0,1-1.52,7c-.59,2.27.33,4.54,2,5.06l5.91,1.75a.45.45,0,0,0,.16,0,.58.58,0,0,0,.55-.42.57.57,0,0,0-.39-.71l-5.9-1.75c-1.11-.34-1.69-2-1.27-3.66a66.78,66.78,0,0,0,1.55-7.1c.14-.79.28-1.58.44-2.38.27-1.6,1.24-2.71,2.21-2.6l6.08.72a2.6,2.6,0,0,0,1.95-.59,5.58,5.58,0,0,0,1.81-3.73A5.22,5.22,0,0,0,276.58,140.91Z"/><path class="cls-1" d="M266.77,119.4a.58.58,0,0,0,.66.47l6.08-1a1.54,1.54,0,0,1,1.16.35,4.76,4.76,0,0,1,.73,6,1.55,1.55,0,0,1-1,.62l-6.11.52c-1.64.15-2.81,2-2.72,4.2.08,1.2.1,2.4.12,3.6l0,1.17c0,1-.05,2-.09,3,0,.61-.05,1.22-.07,1.82a5.29,5.29,0,0,0,.78,3,2.93,2.93,0,0,0,2.24,1.51l6.13.5h0a.58.58,0,0,0,.05-1.15l-6.14-.5a1.81,1.81,0,0,1-1.36-1,4.12,4.12,0,0,1-.6-2.36l.06-1.81c0-1,.08-2,.1-3l0-1.17c0-1.2,0-2.45-.12-3.66-.07-1.56.69-2.9,1.67-3l6.1-.52a2.58,2.58,0,0,0,1.84-1,5.29,5.29,0,0,0,.94-4,5.21,5.21,0,0,0-1.87-3.62,2.62,2.62,0,0,0-2-.57l-6.08,1A.58.58,0,0,0,266.77,119.4Z"/><path class="cls-1" d="M261.35,99.32a.58.58,0,0,0,.74.33l5.75-2.22a1.5,1.5,0,0,1,1.21.11,4.15,4.15,0,0,1,2,2.48,4.2,4.2,0,0,1,0,3.17,1.53,1.53,0,0,1-.9.82l-5.86,1.76c-1.58.49-2.35,2.49-1.81,4.66a93.3,93.3,0,0,1,2,9.36c.38,2.26,1.87,3.85,3.53,3.85h.3l6.11-.76a.57.57,0,0,0,.5-.64.57.57,0,0,0-.64-.49l-6.11.75c-1.1.14-2.27-1.17-2.56-2.88a94.9,94.9,0,0,0-2-9.47c-.38-1.51.08-3,1-3.27l5.86-1.76a2.65,2.65,0,0,0,1.59-1.4,5.86,5.86,0,0,0-2.46-7.21,2.68,2.68,0,0,0-2.12-.14l-5.74,2.22A.57.57,0,0,0,261.35,99.32Z"/><path class="cls-1" d="M255.23,91.45a94.63,94.63,0,0,1,3.88,8.74,4.41,4.41,0,0,0,3.72,3.1,2.75,2.75,0,0,0,.81-.13l5.83-2a.57.57,0,0,0-.37-1.08l-5.83,2c-1.07.36-2.46-.67-3.1-2.29a94.54,94.54,0,0,0-3.91-8.84c-.69-1.44-.54-2.94.33-3.42L262,84.59a2.6,2.6,0,0,0,1.27-1.68,5.35,5.35,0,0,0-.73-4,.58.58,0,0,0-1,.59,4.25,4.25,0,0,1,.62,3.13,1.56,1.56,0,0,1-.71,1L256,86.52C254.61,87.31,254.26,89.42,255.23,91.45Z"/><path class="cls-1" d="M136.68,231.45l-4.25-1.57a.41.41,0,0,0-.35,0,.47.47,0,0,0-.2.22.44.44,0,0,0,0,.3.42.42,0,0,0,.19.22v0a2.54,2.54,0,0,1-.13.45l-2.08,5.61a2,2,0,0,1-.13.29.54.54,0,0,1-.09.15.39.39,0,0,0-.28,0,.45.45,0,0,0-.2.23.34.34,0,0,0,0,.28.41.41,0,0,0,.26.26l4.25,1.57a.46.46,0,0,0,.19,0,.4.4,0,0,0,.21-.06.52.52,0,0,0,.2-.26l.47-1.27a.4.4,0,0,0,0-.32.44.44,0,0,0-.24-.2.4.4,0,0,0-.31,0,.39.39,0,0,0-.21.24c-.07.19-.13.36-.2.52a.5.5,0,0,1-.2.23.76.76,0,0,1-.45.06,4.3,4.3,0,0,1-1-.26l-1-.36,1.21-3.26.71.26.25.11a1,1,0,0,1,.26.17.46.46,0,0,1,.15.23.5.5,0,0,1,0,.33.39.39,0,0,0,0,.3.37.37,0,0,0,.23.23.4.4,0,0,0,.32,0,.41.41,0,0,0,.22-.23l.63-1.7a.43.43,0,0,0,0-.33.39.39,0,0,0-.23-.19.38.38,0,0,0-.52.23.59.59,0,0,1-.19.28.74.74,0,0,1-.58,0l-.25-.08-.71-.26,1.08-2.94,1,.36a4.12,4.12,0,0,1,.91.43.82.82,0,0,1,.3.34.54.54,0,0,1,0,.31c0,.16-.11.34-.18.53a.42.42,0,0,0,0,.31.45.45,0,0,0,.23.22.42.42,0,0,0,.33,0,.42.42,0,0,0,.21-.24l.47-1.26a.51.51,0,0,0,0-.32A.42.42,0,0,0,136.68,231.45Z"/><path class="cls-1" d="M145.26,235.86l.35-1.3a.55.55,0,0,0,0-.31h0a.4.4,0,0,0-.31-.26l-5.44-1.47a.42.42,0,0,0-.41.07.61.61,0,0,0-.16.27l-.35,1.3a.41.41,0,1,0,.8.21,2.11,2.11,0,0,1,.22-.56.53.53,0,0,1,.27-.24,1.55,1.55,0,0,1,.57-.06,5.85,5.85,0,0,1,.82.14l-1.74,6.44a2.11,2.11,0,0,1-.1.3.8.8,0,0,1-.08.16.35.35,0,0,0-.28.06.43.43,0,0,0-.18.24.45.45,0,0,0,0,.3.43.43,0,0,0,.28.21l1.56.42.12,0a.37.37,0,0,0,.21-.06.35.35,0,0,0,.19-.24.41.41,0,0,0-.24-.49v-.19c0-.1,0-.2.07-.3l1.73-6.43a4,4,0,0,1,.79.36,1.52,1.52,0,0,1,.44.44.65.65,0,0,1,.1.37,1.34,1.34,0,0,1-.06.4.41.41,0,0,0,.06.31.41.41,0,0,0,.74-.1Z"/><path class="cls-1" d="M151.05,243h0l0-.05a2.36,2.36,0,0,1-.06-.31c0-.21-.06-.47-.09-.8l-.13-1.1c0-.41-.09-.84-.13-1.28s-.1-.88-.14-1.32l-.23-2.24c0-.27-.05-.49-.07-.69l0-.17a.37.37,0,0,0-.32-.25.41.41,0,0,0-.41.11l-.12.16c-.12.22-.31.61-.57,1.15l-2.89,5.4-.11.19a.39.39,0,0,1-.08.1.27.27,0,0,1-.12.06.37.37,0,0,1-.15,0l-.29,0v.09a.39.39,0,0,0-.17.27.37.37,0,0,0,.31.46l1.44.26a.36.36,0,0,0,.46-.31.37.37,0,0,0-.09-.34l0-.08-.24,0c-.22,0-.29-.09-.3-.11a.13.13,0,0,1-.06-.09s0-.06.06-.13l1.24-2.32a1.78,1.78,0,0,1,.48.28,2.66,2.66,0,0,1,.52.59,3.88,3.88,0,0,1,.38.69c.1.24.18.47.24.62s.05.49.06.67a2.24,2.24,0,0,1,0,.27.46.46,0,0,0-.21.08.42.42,0,0,0-.16.26.39.39,0,0,0,.31.47l1.55.28H151a.41.41,0,0,0,.22-.06.37.37,0,0,0,.16-.27.41.41,0,0,0-.32-.48Zm-2.17-3.62a3.12,3.12,0,0,0-.84-.35l.76-1.41c0,.2,0,.41.08.63l.13.89c0,.12,0,.23,0,.34Z"/><path class="cls-1" d="M159.55,236.46a2.78,2.78,0,0,0-.87-.35,9.81,9.81,0,0,0-1.15-.17l-2.06-.19a.47.47,0,0,0-.34.1.49.49,0,0,0-.13.28.4.4,0,0,0,.08.28.45.45,0,0,0,.25.15v.05a1.85,1.85,0,0,1,0,.47l-.55,6a2.91,2.91,0,0,1,0,.31.84.84,0,0,1-.05.17.41.41,0,0,0-.27.1.43.43,0,0,0-.13.27.44.44,0,0,0,.08.29.39.39,0,0,0,.31.16l2.06.19.63,0c.23,0,.45,0,.65,0a2.88,2.88,0,0,0,1.06-.34,2,2,0,0,0,.74-.77,3.09,3.09,0,0,0,.34-1.2,2.11,2.11,0,0,0-.51-1.64,2.91,2.91,0,0,0-.85-.65,2.47,2.47,0,0,0,.73-.41,2,2,0,0,0,.68-1.4,2,2,0,0,0-.11-1A1.49,1.49,0,0,0,159.55,236.46Zm-2.53.11.45,0a1.91,1.91,0,0,1,.52.11.83.83,0,0,1,.33.22.85.85,0,0,1,.18.37,2,2,0,0,1,0,.66,1.63,1.63,0,0,1-.53,1.16,2,2,0,0,1-1.24.35Zm1.51,5.5a4.74,4.74,0,0,1-.15.75,2,2,0,0,1-.32.59,1.43,1.43,0,0,1-.51.36,1.61,1.61,0,0,1-.75.08l-.45,0,.34-3.64.7.1a1.73,1.73,0,0,1,.68.27,1,1,0,0,1,.38.51A2.38,2.38,0,0,1,158.53,242.07Z"/><path class="cls-1" d="M168.27,242.75a.38.38,0,0,0-.41.41.73.73,0,0,1-.2.54,1.52,1.52,0,0,1-.57.37,3.18,3.18,0,0,1-.78.18,4.86,4.86,0,0,1-.82.05H165l0-6.64v-.25a1.12,1.12,0,0,1,0-.2s0,0,0,0a.44.44,0,0,0,.29-.13.41.41,0,0,0,0-.57.42.42,0,0,0-.31-.13h-1.62a.37.37,0,0,0-.36.18.42.42,0,0,0-.06.23.33.33,0,0,0,.1.27.39.39,0,0,0,.29.14.29.29,0,0,0,0,.09,1.69,1.69,0,0,1,0,.23c0,.1,0,.2,0,.3l0,5.85a3.57,3.57,0,0,1,0,.47s0,0,0,0a.46.46,0,0,0-.27.14.39.39,0,0,0-.1.27.38.38,0,0,0,.11.28.4.4,0,0,0,.32.14h4.85a.41.41,0,0,0,.37-.16.46.46,0,0,0,.1-.31v-1.35a.35.35,0,0,0-.14-.3A.4.4,0,0,0,168.27,242.75Z"/><path class="cls-1" d="M172.45,243.05a.86.86,0,0,0-.61.29.89.89,0,0,0-.21.63.88.88,0,0,0,.29.6.86.86,0,0,0,.58.21h.06a.86.86,0,0,0,.59-.29.81.81,0,0,0,.21-.64h0a.8.8,0,0,0-.29-.59A.87.87,0,0,0,172.45,243.05Z"/><path class="cls-1" d="M181.06,241.73a.49.49,0,0,0-.29-.06.41.41,0,0,0-.3.16.39.39,0,0,0-.08.31c.05.34,0,.43,0,.44a.64.64,0,0,1-.38.15.56.56,0,0,1-.36-.06,4.29,4.29,0,0,1-.45-.26,3.91,3.91,0,0,0-.54-.28,2,2,0,0,0-.35-.09l.52-.53a10.74,10.74,0,0,0,1-1.12,5.67,5.67,0,0,0,.76-1.3,3,3,0,0,0,.2-1.55h0a2.49,2.49,0,0,0-.27-.85,1.83,1.83,0,0,0-.59-.71,2.37,2.37,0,0,0-.92-.43,3.36,3.36,0,0,0-1.24,0,2.65,2.65,0,0,0-1,.31,2.12,2.12,0,0,0-.7.59,2.17,2.17,0,0,0-.39.79,2.33,2.33,0,0,0-.06.91,1.66,1.66,0,0,0,.51,1.11,1,1,0,0,0,1,.15.89.89,0,0,0,.48-.35.93.93,0,0,0,.17-.56,1.05,1.05,0,0,0-.21-.57,1.36,1.36,0,0,0-.65-.42c-.18-.05-.23-.14-.25-.2a.52.52,0,0,1,0-.4,1.1,1.1,0,0,1,.36-.44,1.57,1.57,0,0,1,.72-.26,1.2,1.2,0,0,1,.65,0,.77.77,0,0,1,.34.3,1.67,1.67,0,0,1,.2.53c.05.23.08.47.12.72a2.24,2.24,0,0,1,0,.68,4.14,4.14,0,0,1-.19.73,6.17,6.17,0,0,1-.32.72,7.33,7.33,0,0,1-.39.67,10.67,10.67,0,0,1-1.12,1.48l-.22.26a1.5,1.5,0,0,0-.25.34,1.46,1.46,0,0,0-.16.39,1.31,1.31,0,0,0,0,.49l.08.62a.48.48,0,0,0,.18.29.41.41,0,0,0,.26.09H177a.4.4,0,0,0,.3-.18.42.42,0,0,0,.07-.31c0-.07,0-.15.13-.25a1.16,1.16,0,0,1,.5-.19.91.91,0,0,1,.45,0,3.62,3.62,0,0,1,.45.2l.49.23a1.57,1.57,0,0,0,.7.06,1.2,1.2,0,0,0,1-.69,2.56,2.56,0,0,0,.15-1.4A.49.49,0,0,0,181.06,241.73Z"/><path class="cls-1" d="M188.66,236a4.18,4.18,0,0,0-.92-1.2,2.63,2.63,0,0,0-1.07-.58,2.28,2.28,0,0,0-1.07,0,2.18,2.18,0,0,0-.91.46,2.42,2.42,0,0,0-.72,1,4.36,4.36,0,0,0-.34,1.47,6.65,6.65,0,0,0,.18,2,7.47,7.47,0,0,0,.67,1.9,4.73,4.73,0,0,0,.92,1.2,2.66,2.66,0,0,0,1.06.58,2.62,2.62,0,0,0,.61.08,2,2,0,0,0,.42-.05,2.33,2.33,0,0,0,.95-.46,2.67,2.67,0,0,0,.74-1,4.55,4.55,0,0,0,.34-1.47,7.14,7.14,0,0,0-.2-2A6.83,6.83,0,0,0,188.66,236Zm-.59,5.21c-.07.76-.44.93-.72,1s-.63.06-1-.6a10.78,10.78,0,0,1-.93-2.85,10.52,10.52,0,0,1-.34-3c.07-.76.41-.93.67-1a.66.66,0,0,1,.21,0c.25,0,.56.12.85.63a14.69,14.69,0,0,1,1.27,5.8Z"/><path class="cls-1" d="M196.47,233.65a4.13,4.13,0,0,0-1-1.11,2.57,2.57,0,0,0-1.12-.49,2.35,2.35,0,0,0-1.06.07,2.18,2.18,0,0,0-.87.53,2.52,2.52,0,0,0-.64,1,4.44,4.44,0,0,0-.2,1.49,6.72,6.72,0,0,0,.35,2,6.88,6.88,0,0,0,.83,1.84,4.27,4.27,0,0,0,1,1.11,2.61,2.61,0,0,0,1.11.5l.41,0a2,2,0,0,0,.61-.09,2.38,2.38,0,0,0,.92-.55,2.66,2.66,0,0,0,.64-1,4.32,4.32,0,0,0,.21-1.5,7.25,7.25,0,0,0-.36-2A7.47,7.47,0,0,0,196.47,233.65Zm-.77,6.29h0c-.25.08-.63.11-1.07-.52a10.9,10.9,0,0,1-1.17-2.75,11.07,11.07,0,0,1-.6-2.92c0-.77.34-1,.59-1a1.1,1.1,0,0,1,.27,0,1,1,0,0,1,.84.55,10.93,10.93,0,0,1,1.17,2.74,10.8,10.8,0,0,1,.6,2.93C196.32,239.66,196,239.86,195.7,239.94Z"/><path class="cls-1" d="M205,232.43a7.47,7.47,0,0,0-1-1.75,4.36,4.36,0,0,0-1.12-1,2.56,2.56,0,0,0-1.16-.38,2.3,2.3,0,0,0-1,.15h0a2.2,2.2,0,0,0-.82.6,2.49,2.49,0,0,0-.54,1.09,4.26,4.26,0,0,0-.08,1.5,8.06,8.06,0,0,0,1.51,3.7,4.5,4.5,0,0,0,1.11,1,2.54,2.54,0,0,0,1.15.39h.19a2.14,2.14,0,0,0,.82-.15,2.36,2.36,0,0,0,.87-.63,2.57,2.57,0,0,0,.55-1.08,4.32,4.32,0,0,0,.08-1.51A7.22,7.22,0,0,0,205,232.43ZM203.82,237c-.24.1-.62.16-1.11-.43a10.2,10.2,0,0,1-1.4-2.64,10.72,10.72,0,0,1-.85-2.85c-.07-.77.25-1,.49-1.09a.84.84,0,0,1,.33-.07,1.09,1.09,0,0,1,.82.48,10.64,10.64,0,0,1,1.4,2.63,10.81,10.81,0,0,1,.85,2.87C204.42,236.68,204.08,236.91,203.82,237Z"/><path class="cls-1" d="M123,341a5.05,5.05,0,0,1,1.5,3.6,5.17,5.17,0,0,1-5.16,5.16h-5.68V332.26h5.68a5.17,5.17,0,0,1,5.16,5.16A5.1,5.1,0,0,1,123,341Zm-6.26-1.53h2.6a2.08,2.08,0,0,0,0-4.16h-2.6Zm4.68,5.13a2.07,2.07,0,0,0-2.08-2.07h-2.6v4.15h2.6A2.07,2.07,0,0,0,121.43,344.63Z"/><path class="cls-1" d="M149.35,346.71v3.08H139.9V332.26H143v14.45Z"/><path class="cls-1" d="M164.74,349.79V332.26h3.08v17.53Z"/><path class="cls-1" d="M191.43,349.79l-4-6.68-.9,1.4v5.28h-3.08V332.26h3.08V339l4.35-6.69h3.66l-5.23,8,5.76,9.54Z"/><path class="cls-1" d="M218.17,349.79l-4-6.68-.9,1.4v5.28h-3.08V332.26h3.08V339l4.35-6.69h3.66l-5.23,8,5.76,9.54Z"/><path class="cls-1" d="M168.25,229.13A92.75,92.75,0,1,1,261,136.38,92.86,92.86,0,0,1,168.25,229.13Zm0-183.86a91.11,91.11,0,1,0,91.11,91.11A91.21,91.21,0,0,0,168.25,45.27Z"/></svg>