<svg id="Layer_1" data-name="Layer 1" xmlns="http://www.w3.org/2000/svg" viewBox="0 0 174 191"><defs><style>.cls-1{fill:#fff;}.cls-2{fill:#3f549c;}</style></defs><title>JensenBlikk</title><path class="cls-1" d="M33.19,121.09a1,1,0,0,1,.32.71,1,1,0,0,1-1.14,1,.92.92,0,0,0-.85.64,5.43,5.43,0,0,0-.39,1.6,18.51,18.51,0,0,0-.11,2v24.25a16.17,16.17,0,0,1-1.21,6.71,11.05,11.05,0,0,1-3.09,4.19,10.88,10.88,0,0,1-4.22,2.13A17.86,17.86,0,0,1,18,165a19.84,19.84,0,0,1-5.68-.78A14,14,0,0,1,7.73,162a10.05,10.05,0,0,1-4.05-8.2,5.86,5.86,0,0,1,.75-2.95,5.5,5.5,0,0,1,1.92-2,4.83,4.83,0,0,1,5.36.21,4.54,4.54,0,0,1,1.38,1.78,4.4,4.4,0,0,1,.36,2.2,4.75,4.75,0,0,1-.82,2.2,4.87,4.87,0,0,1-2.06,1.7,2.07,2.07,0,0,0-1.38,1.74,3.13,3.13,0,0,0,.92,2.35,8.34,8.34,0,0,0,3,2,12.17,12.17,0,0,0,4.83.85,5.15,5.15,0,0,0,4-1.45,7.69,7.69,0,0,0,1.77-3.48,17.44,17.44,0,0,0,.43-4.16c0-1.42,0-2.55,0-3.41V127.09a13.08,13.08,0,0,0-.14-2,6.48,6.48,0,0,0-.42-1.6.93.93,0,0,0-.86-.64,1.05,1.05,0,0,1-.85-.32,1,1,0,0,1-.28-.71,1,1,0,0,1,.28-.71,1.09,1.09,0,0,1,.85-.32h9.66A1.14,1.14,0,0,1,33.19,121.09Zm69.52,26.61c1.28.58,2.69,1.07,4,1.65a23,23,0,0,1,3.6,2,11.32,11.32,0,0,1,2.67,2.63,5.6,5.6,0,0,1,.84,3.39,7.4,7.4,0,0,1-1,4,7.9,7.9,0,0,1-2.42,2.49,9.61,9.61,0,0,1-3.22,1.3,19.42,19.42,0,0,1-3.3.43,13,13,0,0,1-3.15-.33,11.73,11.73,0,0,1-3.27-1.23,8.12,8.12,0,0,1-2.56-2.19,5,5,0,0,1-1-3.15,5.53,5.53,0,0,1,.43-2.24,4.9,4.9,0,0,1,1.11-1.63,2.94,2.94,0,0,1,1.51-.8,2.69,2.69,0,0,1,1.67.25,2.58,2.58,0,0,1,1.2,1.06,2.83,2.83,0,0,1,.34,1.36,3.37,3.37,0,0,1-.34,1.45,5.93,5.93,0,0,1-.91,1.37,1.87,1.87,0,0,0-.54,1.71,2.66,2.66,0,0,0,1,1.52,7.58,7.58,0,0,0,2.12,1,6.19,6.19,0,0,0,2.4.25,5.76,5.76,0,0,0,3.56-1,4.59,4.59,0,0,0,1.85-2.55,4.34,4.34,0,0,0-.6-3.17,7.24,7.24,0,0,0-3.5-2.81c-.87-.39-1.91-.84-3.13-1.36A19.43,19.43,0,0,1,98.62,151a13.07,13.07,0,0,1-2.84-2.71,5.93,5.93,0,0,1-1.19-3.74,8.6,8.6,0,0,1,2.27-6.2c1.52-1.59,3.87-2.45,7-2.56a10.51,10.51,0,0,1,3.9.52,9.44,9.44,0,0,1,2.82,1.53,6.3,6.3,0,0,1,1.7,2.09,5.09,5.09,0,0,1,.57,2.23,7,7,0,0,1-.37,2.48,4,4,0,0,1-1,1.54,2.85,2.85,0,0,1-1.31.7,2.11,2.11,0,0,1-1.34-.14,2.66,2.66,0,0,1-1.76-2.13,3.83,3.83,0,0,1,1.19-3.23,3.23,3.23,0,0,0,.83-1.59,1.81,1.81,0,0,0-.41-1.44,3.27,3.27,0,0,0-1.66-.95,8.62,8.62,0,0,0-3.14-.32,5.81,5.81,0,0,0-4.1,1.72,3.73,3.73,0,0,0-1.08,2.76,7,7,0,0,0,.94,3.62A5.9,5.9,0,0,0,102.71,147.7ZM59.2,156.56c-.25.63-1.85,4-4.16,5.17s-8.43,2.83-10.3-2.54A29,29,0,0,1,43.67,150c.13-9.45,3.78-12.8,6.11-12.76,2.73,0,4.09,2.14,4,6.36-.1,7-3,6.81-6.07,7.43a21.89,21.89,0,0,1-2.56.33.65.65,0,0,0-.51.68.66.66,0,0,0,.66.68h0c1.92,0,6.58-.22,9.76-1.67,3.46-1.57,4.8-3.81,4.84-7.28.07-4.76-3.46-7.61-10.09-7.7a13.92,13.92,0,0,0-13.6,14c-.14,9.7,5.11,14.71,12.91,14.82s10.57-5.06,10.88-7S59.44,156,59.2,156.56Zm81.14,0c-.25.63-1.85,4-4.16,5.17s-8.43,2.83-10.3-2.54a29,29,0,0,1-1.07-9.23c.13-9.45,3.78-12.8,6.11-12.76,2.73,0,4.09,2.14,4,6.36-.1,7-3,6.81-6.07,7.43a21.89,21.89,0,0,1-2.56.33.65.65,0,0,0-.51.68.66.66,0,0,0,.66.68h0c1.92,0,6.58-.22,9.76-1.67,3.46-1.57,4.8-3.81,4.85-7.28.06-4.76-3.47-7.61-10.1-7.7a13.92,13.92,0,0,0-13.6,14c-.14,9.7,5.11,14.71,12.91,14.82s10.57-5.06,10.88-7S140.58,156,140.34,156.56ZM90,162.83c-.93-.31-1.43-1.16-1.43-5.13l0-14.4a19,19,0,0,0-.18-2.59,5.85,5.85,0,0,0-.85-2.38,5.08,5.08,0,0,0-1.92-1.74,6.41,6.41,0,0,0-3.21-.68,10,10,0,0,0-3.48.67A10.76,10.76,0,0,0,76.13,138a13.46,13.46,0,0,0-2,1.74,11.73,11.73,0,0,0-1.24,1.53v-3.13c0-1.08-.21-1.58-.79-1.5a13.47,13.47,0,0,0-6.29,2.41,5.48,5.48,0,0,0-1.49,1.31.67.67,0,0,0,.11.62,2.26,2.26,0,0,0,.92.64,3.33,3.33,0,0,1,1.14,1.14,1.52,1.52,0,0,1,.21.78l.08,14.23c0,4-.49,4.73-1.41,5-.44.15-1.09.33-1.09.84,0,.67.41.86,1,.86h9c.59,0,1-.19,1-.86,0-.51-.65-.69-1.09-.84-.92-.31-1.39-1-1.39-5l.07-14.75c.23-.37.53-.8.88-1.27a7.62,7.62,0,0,1,1.32-1.35,7.15,7.15,0,0,1,1.81-1.07,6.24,6.24,0,0,1,2.38-.42,3.29,3.29,0,0,1,1.71.29,2.28,2.28,0,0,1,1,1,4.43,4.43,0,0,1,.35,1.39c0,.52.07,1.06.07,1.63l.23,14.49c0,4-.54,4.73-1.46,5-.44.15-1.09.33-1.09.84,0,.67.41.86,1,.86h9c.59,0,1-.19,1-.86C91.08,163.16,90.44,163,90,162.83Zm80.44,0c-.92-.31-1.42-1.16-1.42-5.13l0-14.4a19,19,0,0,0-.18-2.59,5.85,5.85,0,0,0-.85-2.38,5.08,5.08,0,0,0-1.92-1.74,6.41,6.41,0,0,0-3.21-.68,10,10,0,0,0-3.49.67,10.85,10.85,0,0,0-2.76,1.42,13,13,0,0,0-2,1.74,11.73,11.73,0,0,0-1.24,1.53v-3.13c0-1.08-.21-1.58-.79-1.5a13.47,13.47,0,0,0-6.29,2.41,5.48,5.48,0,0,0-1.49,1.31.65.65,0,0,0,.11.62,2.26,2.26,0,0,0,.92.64,3.33,3.33,0,0,1,1.14,1.14,1.52,1.52,0,0,1,.21.78l.08,14.23c0,4-.49,4.73-1.41,5-.44.15-1.09.33-1.09.84,0,.67.41.86,1,.86h9c.59,0,1-.19,1-.86,0-.51-.64-.69-1.08-.84-.92-.31-1.39-1-1.39-5l.07-14.75c.23-.37.53-.8.88-1.27a7.29,7.29,0,0,1,1.32-1.35,7.15,7.15,0,0,1,1.81-1.07,6.24,6.24,0,0,1,2.38-.42,3.29,3.29,0,0,1,1.71.29,2.25,2.25,0,0,1,1,1,4.17,4.17,0,0,1,.36,1.39c.05.52.07,1.06.07,1.63l.22,14.49c0,4-.53,4.73-1.45,5-.44.15-1.09.33-1.09.84,0,.67.41.86,1,.86h9c.59,0,1-.19,1-.86C171.53,163.16,170.89,163,170.44,162.83Z"/><path class="cls-1" d="M65,181.24a3.11,3.11,0,0,1,.91,2.2,3.16,3.16,0,0,1-3.15,3.15H59.3v-10.7h3.47A3.14,3.14,0,0,1,65,181.24Zm-3.82-.94h1.58a1.27,1.27,0,1,0,0-2.53H61.19ZM64,183.44a1.27,1.27,0,0,0-1.27-1.27H61.19v2.54h1.58A1.27,1.27,0,0,0,64,183.44Z"/><path class="cls-1" d="M81.1,184.71v1.88H75.33v-10.7h1.88v8.82Z"/><path class="cls-1" d="M90.5,186.59v-10.7h1.88v10.7Z"/><path class="cls-1" d="M106.8,186.59l-2.46-4.08-.55.85v3.23h-1.88v-10.7h1.88V180l2.66-4.08h2.23l-3.19,4.87,3.51,5.83Z"/><path class="cls-1" d="M123.14,186.59l-2.47-4.08-.55.85v3.23h-1.88v-10.7h1.88V180l2.66-4.08H125l-3.2,4.87,3.52,5.83Z"/><circle class="cls-1" cx="87.61" cy="57.46" r="52.32"/><path class="cls-2" d="M101.58,53.07c-1.87,1.48-4.39,3.43-6.89,5.41.16.43.6,2.57.77,3.08l8.05-6.49Z"/><path class="cls-2" d="M106,46.61a.81.81,0,0,1,.9.83,3.26,3.26,0,0,0,2.68,3.39,1.24,1.24,0,0,1,1,1.15,2.53,2.53,0,0,0,.53,1.4,2.35,2.35,0,0,0,3.52.53,2.38,2.38,0,0,0,.65-3.51,2.55,2.55,0,0,0-1.14-.95,1.24,1.24,0,0,1-.75-1.36,3.26,3.26,0,0,0-2.33-3.63.82.82,0,0,1-.49-1.13c.43-.87.84-2.12.33-2.84-.85-1.19-2.6-1.16-3.89-.5a13,13,0,0,0-1.6,1A12.84,12.84,0,0,0,104,42.15c-1,1-1.65,2.65-.81,3.83C103.72,46.7,105,46.72,106,46.61Z"/><path class="cls-2" d="M111.11,80.26a6.11,6.11,0,0,0-3.72-1.51,1.43,1.43,0,0,1-.92-.34,1.45,1.45,0,0,1-.53-1,1.7,1.7,0,0,0-2.77-1.07l-1.11,1.3h0c-.13.17-.62.64-.55,1.1l.4,1.2a1.87,1.87,0,0,0,1.57.46,1.54,1.54,0,0,1,1,.34h0a1.47,1.47,0,0,1,.51.84,6.14,6.14,0,0,0,2.2,3.35c2.07,1.7,4.61,2,5.68.71S113.18,82,111.11,80.26Z"/><path class="cls-2" d="M102.57,75.72l-3.09-2.54c.39,1.15,1.25,3.28,1.6,4.34Z"/><rect class="cls-2" x="59.86" y="46.62" width="10.42" height="4.11" rx="0.21" transform="translate(-13.84 68.1) rotate(-50.63)"/><rect class="cls-2" x="59.24" y="52.13" width="2.61" height="4.11" rx="0.21" transform="translate(-19.75 66.62) rotate(-50.63)"/><path class="cls-2" d="M89.8,56.61c.48,0,2.09-.1,3.8-5.34S93,40.57,92.37,39.44s-.89-1-1-.72-4.56,14.64-4.56,14.64c-.1.61.18,1,.52,1s.89-.21,1.34.24.2,1.13.17,1.5S89.32,56.65,89.8,56.61Z"/><path class="cls-2" d="M87,55.55a.72.72,0,1,0,.72-.72A.72.72,0,0,0,87,55.55Z"/><path class="cls-2" d="M82.64,38.31c-.48,0-2.5,2.67-2.47,8.12s1.48,8.48,2.5,8.67c.72.14,1.2-.13,2.43-1a4.21,4.21,0,0,0,1.41-3.67c-.14-.85-1.68-5-2.54-7.91S82.88,38.31,82.64,38.31Z"/><path class="cls-2" d="M75.85,84.68c.48-1.5,4.87-14.8,6.58-19.26s2.37-7.85,4.63-7.85a6,6,0,0,1,1.27.07l.1-.75s-1.33.18-1.82-.45-.07-2-.07-2c-.6-.06-.87.53-1.48.9s-2.61-.22-3.85,3l-8-6.66-1.67,1.87,8.83,7.37c-.82,2.69-2,6.86-3.18,11-4.87,3.87-12,9.44-12.33,9.73-1.16,1,.69,3.43,2,2.47.26-.19,5.66-4.41,8.88-7-1.17,4.18-2.1,7.54-2.28,8.11-.48,1.54-.72,4.08,1.41,4.08s1.54-1.88,1.16-2.4S75.37,86.19,75.85,84.68Z"/><path class="cls-2" d="M95.15,62.3c-1.31-3.73-1.48-4.86-2.47-5.65a1.27,1.27,0,0,0-1.92.13c-.38.31-.45.52-1.61.28l-.24.89s.1-.48,1,1.58c.13.29.44,1,.88,2l-2.74,2.2-3.42-2.71c-.22.58-.46,1.24-.72,2-.06.19-.13.37-.2.56l2.32,1.81c-1.61,1.29-3.18,2.56-4.33,3.47-.56,1.58-1.22,3.49-1.89,5.46L92,64.4c.5,1.21,1.07,2.58,1.67,4l-2.84-2.32-2,1.62,6.91,5.67c2.43,5.86,4.71,11.44,4.81,11.85a1.85,1.85,0,0,1-.37,1.75,1.16,1.16,0,0,0,0,1.78,2,2,0,0,0,3-2.29C102.82,83.86,96.45,66,95.15,62.3Z"/><path class="cls-2" d="M82.18,37.19l2.88-4.71a4.75,4.75,0,0,1-2.16-2.54c0-.06.06-.1.09-.05a4.62,4.62,0,0,0,5.5,2l3.25,5.3h4.85l-5.2-8.39A4.58,4.58,0,0,0,91.54,27a4.62,4.62,0,0,0-9.2.56,4.41,4.41,0,0,0,.18,1.26l-5.2,8.39ZM87,25.39a2.15,2.15,0,1,1-2.15,2.15A2.14,2.14,0,0,1,87,25.39Z"/><path class="cls-2" d="M116.34,72.82,105.17,53.49c1.26-1,2.91-2.15,2.91-2.15a14.12,14.12,0,0,1-1.17-1,1.4,1.4,0,0,1-.48-1.09s-1.51,1.05-2.64,1.9L96.13,37.86H92.6L116.12,73A.13.13,0,0,0,116.34,72.82Z"/><path class="cls-2" d="M77.78,37.86,70.89,49.79l-1.74-1.5-1.61,2L69.6,52l-12,20.81a.13.13,0,0,0,.22.14l23.52-35.1Z"/><path class="cls-2" d="M53.23,28a2.25,2.25,0,0,1,1.21-.59,1.44,1.44,0,0,1,1.16.34,2.18,2.18,0,0,1,.6.68,1.47,1.47,0,0,1,.16.73,2.15,2.15,0,0,1-.22.77,5,5,0,0,1-.54.81l-1,1.27a.2.2,0,0,1-.1.07.17.17,0,0,1-.1,0,.16.16,0,0,1-.05-.09.15.15,0,0,1,0-.12.12.12,0,0,0,0-.14.73.73,0,0,0-.14-.18,1.12,1.12,0,0,0-.2-.17l-.19-.16-3.49-2.8a3.29,3.29,0,0,0-.33-.23c-.12-.06-.2-.06-.25,0a.21.21,0,0,1-.1.06.17.17,0,0,1-.1,0,.14.14,0,0,1,0-.21l1-1.27q.33-.39.6-.66a2,2,0,0,1,.56-.39.9.9,0,0,1,.56-.06,1.48,1.48,0,0,1,.63.33,1.36,1.36,0,0,1,.55.92A2.21,2.21,0,0,1,53.23,28Zm-2.87-.77,2.11,1.69a1.87,1.87,0,0,0,.46-1.26,1.47,1.47,0,0,0-.6-1,2.35,2.35,0,0,0-.5-.3.79.79,0,0,0-.42-.05.91.91,0,0,0-.37.15,2.1,2.1,0,0,0-.34.33Zm5.12,3.41a1.54,1.54,0,0,0,.31-.61,1.26,1.26,0,0,0,0-.58,1.59,1.59,0,0,0-.28-.53,2.86,2.86,0,0,0-.46-.46,2,2,0,0,0-.78-.43,1,1,0,0,0-.62,0,1.58,1.58,0,0,0-.53.38,6,6,0,0,0-.51.58l2.55,2Z"/><path class="cls-2" d="M60.54,23.59a.13.13,0,0,1,.1,0,.11.11,0,0,1,.09,0l.72.78a.19.19,0,0,1,.06.13.13.13,0,0,1-.06.13l-2.83,2.6a.15.15,0,0,1-.11,0,.13.13,0,0,1-.09,0,.3.3,0,0,1,0-.1.15.15,0,0,1,.06-.11c.05-.05.05-.12,0-.23a1.85,1.85,0,0,0-.25-.32L55,23.07l-.15-.18a1.06,1.06,0,0,0-.15-.15l-.15-.09a.15.15,0,0,0-.14,0s-.07,0-.11,0a.1.1,0,0,1-.09,0,.19.19,0,0,1,0-.09s0-.07.06-.11l.94-.87a.15.15,0,0,1,.11,0,.13.13,0,0,1,.09,0,.18.18,0,0,1,0,.1.14.14,0,0,1-.06.1.13.13,0,0,0,0,.12.27.27,0,0,0,0,.14.79.79,0,0,0,.12.15l.13.14,3.68,4,.44-.4a4.4,4.4,0,0,0,.46-.49,2.83,2.83,0,0,0,.39-.56,1.48,1.48,0,0,0,.15-.6.77.77,0,0,0-.23-.55A.12.12,0,0,1,60.54,23.59Z"/><path class="cls-2" d="M61,17.3c-.07.05-.08.14,0,.26a1.81,1.81,0,0,0,.18.37l2.61,3.65.15.19.19.19a.72.72,0,0,0,.19.13.14.14,0,0,0,.15,0,.13.13,0,0,1,.11,0,.15.15,0,0,1,.09.06.11.11,0,0,1,0,.1.15.15,0,0,1-.06.09l-1,.75a.14.14,0,0,1-.12,0,.12.12,0,0,1-.08-.06s0-.06,0-.09,0-.07.07-.1a.14.14,0,0,0,0-.14.7.7,0,0,0-.07-.22l-.13-.23-.14-.2L60.44,18.4a1.5,1.5,0,0,0-.27-.29C60.06,18,60,18,59.92,18a.19.19,0,0,1-.11,0,.15.15,0,0,1-.09-.06.12.12,0,0,1,0-.1.12.12,0,0,1,.06-.1l1-.74a.13.13,0,0,1,.11,0,.13.13,0,0,1,.09.05.13.13,0,0,1,0,.2Z"/><path class="cls-2" d="M67.49,13.44a.8.8,0,0,0-.22.17.66.66,0,0,0-.11.2.9.9,0,0,0-.06.22l-.34,1.88.45.37.66.55.73.61.69.57.53.43.25.19a.22.22,0,0,0,.22,0,.12.12,0,0,1,.1,0,.12.12,0,0,1,.08.06q.06.11-.06.18l-1.17.63h-.1a.11.11,0,0,1-.08-.07.11.11,0,0,1,0-.1.16.16,0,0,1,.06-.08s0,0,0-.09a.09.09,0,0,0,0-.09,2.16,2.16,0,0,0-.23-.24l-.42-.37L68,18l-.56-.44-.49-.38-.34-.27-.21,1.12.73,1.36c0,.07.08.16.13.24l.14.22a.51.51,0,0,0,.14.15.1.1,0,0,0,.12,0,.13.13,0,0,1,.13,0,.12.12,0,0,1,.08.06.17.17,0,0,1,0,.1.13.13,0,0,1-.07.09l-1.13.6a.12.12,0,0,1-.11,0,.19.19,0,0,1-.08-.07.16.16,0,0,1,0-.1s0-.06.07-.09,0,0,0-.11a1,1,0,0,0,0-.21c0-.08-.06-.16-.1-.25a1.61,1.61,0,0,0-.12-.23l-2.11-4a4,4,0,0,0-.22-.34c-.08-.1-.16-.13-.22-.1a.14.14,0,0,1-.12,0,.19.19,0,0,1-.08-.07.12.12,0,0,1,0-.1s0-.07.07-.1l1.13-.6a.13.13,0,0,1,.12,0,.16.16,0,0,1,.08.06.14.14,0,0,1,0,.11.16.16,0,0,1-.08.09c-.06,0-.08.11,0,.23a2.87,2.87,0,0,0,.15.37l1.26,2.33.64-3.64a.21.21,0,0,0,0-.18.18.18,0,0,0-.15-.06.9.9,0,0,0-.35.14.12.12,0,0,1-.18-.06.11.11,0,0,1,0-.18l1.13-.61a.11.11,0,0,1,.18.05A.12.12,0,0,1,67.49,13.44Z"/><path class="cls-2" d="M74.74,10.67a.74.74,0,0,0-.25.14,1,1,0,0,0-.14.17.62.62,0,0,0-.1.22L73.61,13l.39.45.55.64c.21.24.41.48.63.72l.58.68c.18.21.33.38.46.51a2,2,0,0,0,.21.23.25.25,0,0,0,.21.05.11.11,0,0,1,.11,0,.11.11,0,0,1,.06.07.11.11,0,0,1-.08.16L75.46,17a.14.14,0,0,1-.09,0,.11.11,0,0,1-.07-.08.12.12,0,0,1,0-.1.13.13,0,0,1,.07-.06.11.11,0,0,0,.07-.09.22.22,0,0,0,0-.09,2,2,0,0,0-.19-.28l-.35-.43-.45-.53L74,14.76l-.42-.46-.3-.33-.39,1.08.5,1.46.09.26c0,.09.07.17.11.24a.85.85,0,0,0,.1.17.11.11,0,0,0,.12.05.14.14,0,0,1,.13,0,.12.12,0,0,1,.07.07.14.14,0,0,1,0,.11s0,.05-.08.07l-1.21.41a.13.13,0,0,1-.12,0,.16.16,0,0,1-.06-.08.17.17,0,0,1,0-.1s0-.06.09-.08.05,0,.05-.1a1.77,1.77,0,0,0,0-.22,1.38,1.38,0,0,0-.06-.26c0-.1,0-.18-.07-.25l-1.45-4.24a2.43,2.43,0,0,0-.16-.37c-.06-.11-.13-.16-.2-.13a.16.16,0,0,1-.12,0,.27.27,0,0,1-.07-.08.12.12,0,0,1,0-.1s0-.06.09-.08l1.21-.41a.17.17,0,0,1,.12,0,.18.18,0,0,1,.07.08.14.14,0,0,1,0,.11.11.11,0,0,1-.09.07c-.07,0-.09.1-.08.23a3.56,3.56,0,0,0,.09.39l.86,2.5L74,11.28a.27.27,0,0,0,0-.19S74,11,73.89,11a1,1,0,0,0-.37.08.12.12,0,0,1-.17-.09.12.12,0,0,1,.08-.17l1.22-.42a.12.12,0,0,1,.17.09A.12.12,0,0,1,74.74,10.67Z"/><path class="cls-2" d="M81.73,9a.23.23,0,0,1,.06.13l.18,1a.14.14,0,0,1,0,.11.24.24,0,0,1-.09.06.12.12,0,0,1-.1,0,.15.15,0,0,1-.06-.09c0-.16,0-.3-.08-.44a.59.59,0,0,0-.19-.32A.81.81,0,0,0,81,9.31a3,3,0,0,0-.84.07l-1,.17.48,2.81.78-.13.22-.05a.94.94,0,0,0,.28-.12.66.66,0,0,0,.22-.22.61.61,0,0,0,0-.39.13.13,0,0,1,.11-.16.16.16,0,0,1,.1,0,.18.18,0,0,1,.06.09l.24,1.41a.12.12,0,0,1,0,.1.18.18,0,0,1-.09.06.1.1,0,0,1-.1,0,.15.15,0,0,1-.06-.09.53.53,0,0,0-.17-.35.62.62,0,0,0-.28-.14,1.09,1.09,0,0,0-.31,0l-.21,0-.78.14.53,3.08,1-.17A3.43,3.43,0,0,0,82,15.2a.79.79,0,0,0,.36-.29.58.58,0,0,0,.07-.37c0-.13,0-.28-.07-.44a.12.12,0,0,1,.11-.15.12.12,0,0,1,.1,0,.1.1,0,0,1,.06.09l.18,1a.21.21,0,0,1,0,.14.16.16,0,0,1-.13.08l-3.53.61a.16.16,0,0,1-.12,0,.14.14,0,0,1,0-.08.12.12,0,0,1,0-.1.17.17,0,0,1,.11-.06.13.13,0,0,0,.09-.11.75.75,0,0,0,0-.22,2.51,2.51,0,0,0,0-.27c0-.09,0-.17,0-.24l-.76-4.41a2.22,2.22,0,0,0-.1-.39c0-.13-.1-.18-.18-.17a.16.16,0,0,1-.12,0,.13.13,0,0,1,0-.09.2.2,0,0,1,0-.1.17.17,0,0,1,.11-.06L81.58,9A.17.17,0,0,1,81.73,9Z"/><path class="cls-2" d="M90.05,8.6a.12.12,0,0,1,0,.19.12.12,0,0,1-.08,0,.6.6,0,0,0-.25,0,.4.4,0,0,0-.14.11.27.27,0,0,0-.07.14.77.77,0,0,0,0,.15l.05,5.63c0,.07,0,.1-.09.1s0,0-.07,0a.08.08,0,0,1,0-.05l-3.5-5.16,0,4.57a.77.77,0,0,0,0,.15.51.51,0,0,0,.07.15.4.4,0,0,0,.15.1.6.6,0,0,0,.25,0,.12.12,0,0,1,.08,0,.14.14,0,0,1,0,.1.14.14,0,0,1-.13.13H85.25c-.09,0-.13,0-.13-.14s0-.13.13-.14a.44.44,0,0,0,.38-.14.49.49,0,0,0,.08-.3l0-4.89a1,1,0,0,0,0-.15,1.34,1.34,0,0,0-.07-.18.31.31,0,0,0-.11-.16.25.25,0,0,0-.19-.07.12.12,0,0,1-.09,0,.13.13,0,0,1,0-.09.11.11,0,0,1,0-.09.1.1,0,0,1,.08-.05h.8a.73.73,0,0,1,.23,0,.56.56,0,0,1,.15.1.35.35,0,0,1,.11.13L89.34,13l0-3.69a.58.58,0,0,0-.09-.3c-.06-.1-.19-.14-.38-.14a.13.13,0,0,1-.1,0,.17.17,0,0,1,0-.1c0-.09,0-.13.13-.13H90A.12.12,0,0,1,90.05,8.6Z"/><path class="cls-2" d="M94.75,11.88c.27.16.51.31.73.46a2.56,2.56,0,0,1,.54.48,1.48,1.48,0,0,1,.31.56,1.51,1.51,0,0,1,0,.71,2.39,2.39,0,0,1-.21.62,1.78,1.78,0,0,1-.43.52,1.84,1.84,0,0,1-.66.31,2.18,2.18,0,0,1-.89,0,2.56,2.56,0,0,1-.64-.18A2.09,2.09,0,0,1,93,15a1.35,1.35,0,0,1-.39-.47A1,1,0,0,1,92.5,14a1,1,0,0,1,.17-.44A.73.73,0,0,1,93,13.3a.62.62,0,0,1,.33-.08.68.68,0,0,1,.32.07.5.5,0,0,1,.21.22.6.6,0,0,1-.07.61.61.61,0,0,1-.33.21.37.37,0,0,0-.28.22.36.36,0,0,0,0,.33,1,1,0,0,0,.36.33,1.82,1.82,0,0,0,.67.21,1.21,1.21,0,0,0,.64-.05,1,1,0,0,0,.4-.34,1.19,1.19,0,0,0,.17-.51,2,2,0,0,0-.06-.6,2.12,2.12,0,0,0-.28-.59,1.72,1.72,0,0,0-.49-.48c-.24-.16-.46-.31-.67-.47a3.09,3.09,0,0,1-.52-.5,1.76,1.76,0,0,1-.31-.59,1.58,1.58,0,0,1,0-.73,2,2,0,0,1,.24-.7,1.88,1.88,0,0,1,.45-.52A1.76,1.76,0,0,1,95.13,9a2,2,0,0,1,1.3.67,1.52,1.52,0,0,1,.3.54,1.26,1.26,0,0,1-.09,1,.94.94,0,0,1-.23.25.59.59,0,0,1-.28.1.71.71,0,0,1-.26,0,.61.61,0,0,1-.24-.19.56.56,0,0,1-.12-.3.63.63,0,0,1,.06-.32.72.72,0,0,1,.31-.28.58.58,0,0,0,.27-.29.53.53,0,0,0,0-.39.86.86,0,0,0-.33-.37,1.9,1.9,0,0,0-.71-.24,1.22,1.22,0,0,0-.65.07,1,1,0,0,0-.43.36,1.37,1.37,0,0,0-.18.55,1.5,1.5,0,0,0,.05.63,2,2,0,0,0,.3.62A1.66,1.66,0,0,0,94.75,11.88Z"/><path class="cls-2" d="M102.56,16.13a.13.13,0,0,1,.07.06.15.15,0,0,1,0,.11l-.32,1a.24.24,0,0,1-.07.12.16.16,0,0,1-.15,0L98.45,16.3a.15.15,0,0,1-.1-.07.17.17,0,0,1,0-.1.13.13,0,0,1,.07-.08.16.16,0,0,1,.12,0c.07,0,.13,0,.19-.13a2.15,2.15,0,0,0,.15-.38l1.37-4.42c0-.07.05-.14.07-.21a1.15,1.15,0,0,0,.06-.21.54.54,0,0,0,0-.18.13.13,0,0,0-.1-.09.16.16,0,0,1-.1-.08.14.14,0,0,1,0-.09.24.24,0,0,1,.06-.09.14.14,0,0,1,.13,0l1.22.37a.18.18,0,0,1,.09.08.12.12,0,0,1,0,.1.16.16,0,0,1-.06.08.13.13,0,0,1-.12,0,.14.14,0,0,0-.13,0,.2.2,0,0,0-.09.11.75.75,0,0,0-.07.18l-.06.19-1.61,5.19.57.18c.19.06.41.11.65.16a3.14,3.14,0,0,0,.68,0,1.27,1.27,0,0,0,.59-.17.74.74,0,0,0,.37-.47C102.41,16.13,102.47,16.1,102.56,16.13Z"/><path class="cls-2" d="M108.59,20.11a.16.16,0,0,1,.06.08.17.17,0,0,1,0,.1.12.12,0,0,1-.18.06l-1.11-.55a.12.12,0,0,1,0-.18.14.14,0,0,1,.07-.06h.1c.06,0,.12,0,.16-.08a1,1,0,0,0,.09-.28,4.22,4.22,0,0,0,.1-.53c0-.17,0-.37,0-.58a3.5,3.5,0,0,0-.15-.64,2,2,0,0,0-.29-.61,1.51,1.51,0,0,0-.49-.45L105.31,18a.3.3,0,0,0-.08.4.74.74,0,0,0,.29.22h0a.1.1,0,0,1,.06.15.11.11,0,0,1-.16.06l-1-.52a.1.1,0,0,1-.05-.16c0-.07.08-.09.16,0h0a.41.41,0,0,0,.2.06.48.48,0,0,0,.18,0A.5.5,0,0,0,105,18l.12-.11,3.37-3.49.69-.75.09-.06s.08,0,.15,0,.08.06.08.1v.1c0,.12,0,.3-.09.53s-.09.5-.14.8-.11.62-.17,1-.13.69-.19,1-.11.68-.17,1-.1.61-.15.87-.07.46-.1.63a1.28,1.28,0,0,0,0,.3.21.21,0,0,0,.09.17Zm-1.65-3.8a3.08,3.08,0,0,1,.74.54,2.36,2.36,0,0,1,.36.47c0-.24.07-.48.11-.73s.06-.48.09-.7.06-.43.1-.61,0-.35.08-.49Z"/><path class="cls-2" d="M115.36,21.62a.11.11,0,0,1-.18,0,.26.26,0,0,0-.25,0,.89.89,0,0,0-.24.24,4.51,4.51,0,0,1-.63.72,1.94,1.94,0,0,1-.69.42,1.36,1.36,0,0,1-.75.06,1.9,1.9,0,0,1-.82-.36,1.78,1.78,0,0,1-.65-.78,2.1,2.1,0,0,1-.13-1,3.68,3.68,0,0,1,.31-1.09,6.09,6.09,0,0,1,.66-1.14,5.42,5.42,0,0,1,.93-1,3.13,3.13,0,0,1,1-.6,2.07,2.07,0,0,1,.94-.13,1.9,1.9,0,0,1,.88.35,2.36,2.36,0,0,1,.55.54,1.94,1.94,0,0,1,.31.65,1.58,1.58,0,0,1-.27,1.37.82.82,0,0,1-.24.25.74.74,0,0,1-.27.1.53.53,0,0,1-.25,0,.75.75,0,0,1-.2-.1.61.61,0,0,1-.19-.2.57.57,0,0,1-.08-.25.51.51,0,0,1,.07-.26.49.49,0,0,1,.24-.2,1.43,1.43,0,0,0,.58-.42.87.87,0,0,0,.18-.48.83.83,0,0,0-.14-.47,1.44,1.44,0,0,0-.37-.41,1.09,1.09,0,0,0-.53-.2,1.19,1.19,0,0,0-.51.12,2.08,2.08,0,0,0-.48.35,4.22,4.22,0,0,0-.45.49c-.15.18-.29.37-.43.57l-.39.57c-.23.31-.45.63-.67.94a5.24,5.24,0,0,0-.51.89,1.72,1.72,0,0,0-.16.79.87.87,0,0,0,.41.64,1,1,0,0,0,.72.24,1.18,1.18,0,0,0,.57-.28,2.5,2.5,0,0,0,.45-.55l.4-.59a.64.64,0,0,0,.14-.31.23.23,0,0,0-.12-.22.14.14,0,0,1,.16-.22l1.12.8A.11.11,0,0,1,115.36,21.62Z"/><path class="cls-2" d="M122.59,23.42a.17.17,0,0,1-.06.12l-.74.76a.19.19,0,0,1-.1.05.15.15,0,0,1-.1,0,.14.14,0,0,1,0-.2,4.26,4.26,0,0,0,.3-.32.58.58,0,0,0,.15-.34.78.78,0,0,0-.13-.45,3.37,3.37,0,0,0-.55-.64l-.72-.7-2,2,.56.55a1.47,1.47,0,0,0,.17.15,1,1,0,0,0,.26.16.63.63,0,0,0,.31.05.58.58,0,0,0,.34-.2.12.12,0,0,1,.19,0,.15.15,0,0,1,0,.09.11.11,0,0,1,0,.1l-1,1a.15.15,0,0,1-.1,0,.14.14,0,0,1-.14-.14.13.13,0,0,1,0-.09.62.62,0,0,0,.18-.35.63.63,0,0,0,0-.31,1,1,0,0,0-.17-.26l-.15-.16-.57-.55-2.18,2.25.72.7a4.3,4.3,0,0,0,.66.53.89.89,0,0,0,.45.12.57.57,0,0,0,.34-.16l.32-.31a.11.11,0,0,1,.18,0,.19.19,0,0,1,0,.1.13.13,0,0,1,0,.1l-.74.76a.25.25,0,0,1-.12.07.16.16,0,0,1-.14-.06l-2.56-2.5a.14.14,0,0,1-.06-.1.3.3,0,0,1,0-.1.18.18,0,0,1,.1,0,.15.15,0,0,1,.11.05.12.12,0,0,0,.14,0,.59.59,0,0,0,.19-.12,1.57,1.57,0,0,0,.19-.18l.17-.17,3.13-3.22a2.42,2.42,0,0,0,.25-.31q.12-.15,0-.24a.16.16,0,0,1,0-.11.18.18,0,0,1,0-.09.13.13,0,0,1,.2,0l2.57,2.49A.16.16,0,0,1,122.59,23.42Z"/><path class="cls-2" d="M122.51,33a.19.19,0,0,1,0,.12.16.16,0,0,1-.06.08.09.09,0,0,1-.09,0,.11.11,0,0,1-.1-.06l-.31-.41a2.06,2.06,0,0,1-.24-.39.7.7,0,0,1,0-.43,1.45,1.45,0,0,1,.29-.52,4.58,4.58,0,0,1,.73-.66,5.35,5.35,0,0,0,.62-.53,1.47,1.47,0,0,0,.29-.45.73.73,0,0,0,0-.44,2.13,2.13,0,0,0-.28-.49l-.34-.45L121,30l-.29.27c-.08.09-.1.17,0,.23a.13.13,0,0,1,0,.11.15.15,0,0,1-.06.09.17.17,0,0,1-.1,0,.21.21,0,0,1-.1-.06l-.77-1a.13.13,0,0,1,0-.11.16.16,0,0,1,.06-.08.13.13,0,0,1,.1,0,.12.12,0,0,1,.1.06.12.12,0,0,0,.11.05l.16-.06a.87.87,0,0,0,.18-.11l.19-.13,3.7-2.78a2.55,2.55,0,0,0,.3-.26c.09-.1.11-.17.07-.23a.19.19,0,0,1,0-.12.12.12,0,0,1,.06-.08s.06,0,.09,0a.12.12,0,0,1,.1.06l1,1.31a5.11,5.11,0,0,1,.51.77,2.39,2.39,0,0,1,.28.68,1,1,0,0,1,0,.61,1.2,1.2,0,0,1-.45.55,1.27,1.27,0,0,1-.92.28,2,2,0,0,1-1-.39,1.25,1.25,0,0,1,.16.5.82.82,0,0,1-.1.45,1.94,1.94,0,0,1-.36.44,6.09,6.09,0,0,1-.61.5,3.49,3.49,0,0,0-.61.56,1.12,1.12,0,0,0-.25.44.53.53,0,0,0,0,.33A1.17,1.17,0,0,0,122.51,33Zm.62-4.69a2.31,2.31,0,0,0,1.17.84,1.3,1.3,0,0,0,1.15-.27,1.32,1.32,0,0,0,.4-.43A.94.94,0,0,0,126,28a1,1,0,0,0-.1-.45,2.09,2.09,0,0,0-.25-.43l-.33-.44Z"/><path class="cls-2" d="M79.12,105.73h0Z"/><path class="cls-2" d="M66.84,101.17a.25.25,0,0,1-.12,0,.26.26,0,0,1-.11-.34l1.2-2.44c.22-.46-.15-1.15-.82-1.5l-.94-.49-.92-.57c-.22-.14-.44-.28-.67-.41l-1.14-.72c-.55-.4-1.23-.43-1.5-.07L60.24,96.8a1.17,1.17,0,0,1-.82.46,2.36,2.36,0,0,1-1.72-.53,2.47,2.47,0,0,1-.93-1.57,1.14,1.14,0,0,1,.26-.87l1.75-2.07a.25.25,0,0,1,.38.32l-1.75,2.08a.63.63,0,0,0-.13.49A2,2,0,0,0,58,96.34a1.85,1.85,0,0,0,1.33.42.71.71,0,0,0,.48-.25l1.58-2.19a1.59,1.59,0,0,1,2.2-.06c.36.24.74.47,1.12.7l.67.42.9.56.93.49a1.78,1.78,0,0,1,1,2.16L67.06,101A.24.24,0,0,1,66.84,101.17Z"/><path class="cls-2" d="M58.52,96a.3.3,0,0,1-.16,0,.26.26,0,0,1,0-.36L60,93.4c.31-.41.08-1.16-.5-1.64l-.82-.67-.78-.75-.58-.54-1-.93c-.46-.51-1.13-.67-1.46-.37l-2,1.82a1.19,1.19,0,0,1-.88.28,2.37,2.37,0,0,1-1.59-.87A2.42,2.42,0,0,1,49.84,88a1.11,1.11,0,0,1,.42-.79l2.14-1.68a.26.26,0,0,1,.36,0,.27.27,0,0,1,0,.36l-2.14,1.67a.7.7,0,0,0-.23.46,2,2,0,0,0,.48,1.36,1.94,1.94,0,0,0,1.23.69.65.65,0,0,0,.51-.16l2-1.82a1.59,1.59,0,0,1,2.16.4l1,.91.57.55.77.73.81.66a1.77,1.77,0,0,1,.57,2.34l-1.67,2.14A.25.25,0,0,1,58.52,96Z"/><path class="cls-2" d="M51.44,89.13a.27.27,0,0,1-.2-.09.26.26,0,0,1,0-.36l2.08-1.75c.39-.33.32-1.11-.15-1.71l-.67-.83-1.82-2.64c-.35-.59-1-.89-1.35-.66L47,82.46a1.11,1.11,0,0,1-.92.1,2.37,2.37,0,0,1-1.37-1.17,2.4,2.4,0,0,1-.22-1.82,1.14,1.14,0,0,1,.57-.69l2.44-1.21a.25.25,0,0,1,.34.12.26.26,0,0,1-.11.34l-2.44,1.2a.64.64,0,0,0-.32.4,2,2,0,0,0,.19,1.42,1.84,1.84,0,0,0,1.06.92.67.67,0,0,0,.53,0l2.33-1.38a1.58,1.58,0,0,1,2,.83l1.8,2.61.65.82a1.77,1.77,0,0,1,.09,2.4L51.6,89.07A.27.27,0,0,1,51.44,89.13Z"/><path class="cls-2" d="M45.9,81a.24.24,0,0,1-.22-.14.25.25,0,0,1,.1-.34l2.39-1.29c.45-.25.54-1,.2-1.7l-.48-1c-.1-.21-.19-.43-.27-.64l-.15-.35-.82-2c-.22-.65-.76-1.07-1.18-.92l-2.56.86a1.14,1.14,0,0,1-.9-.08,2.41,2.41,0,0,1-1.13-1.44A2.44,2.44,0,0,1,41,70.23a1.12,1.12,0,0,1,.71-.56L44.38,69a.25.25,0,0,1,.31.18.27.27,0,0,1-.18.31l-2.64.67a.7.7,0,0,0-.4.32,2,2,0,0,0-.11,1.44,2,2,0,0,0,.87,1.13.67.67,0,0,0,.51,0l2.57-.86c.7-.24,1.5.3,1.81,1.23l.82,1.94c.05.12.1.24.14.35s.17.42.27.61l.47.95a1.78,1.78,0,0,1-.41,2.37L46,81A.27.27,0,0,1,45.9,81Z"/><path class="cls-2" d="M42.14,71.94a.25.25,0,0,1-.24-.18.25.25,0,0,1,.17-.32l2.6-.77c.49-.15.75-.89.56-1.63a31,31,0,0,1-.68-3.12c-.06-.35-.13-.7-.19-1-.12-.71-.54-1.2-1-1.15L40.69,64a1.08,1.08,0,0,1-.85-.27A2.44,2.44,0,0,1,39,62.13a2.32,2.32,0,0,1,.49-1.72,1.19,1.19,0,0,1,.85-.43l2.71-.13a.26.26,0,0,1,0,.51l-2.71.12a.7.7,0,0,0-.49.27,1.76,1.76,0,0,0-.36,1.33,2,2,0,0,0,.61,1.3.71.71,0,0,0,.48.16l2.69-.32c.73-.08,1.37.57,1.53,1.56.07.35.13.7.2,1a27.76,27.76,0,0,0,.67,3.08,1.8,1.8,0,0,1-.9,2.24l-2.61.78Z"/><path class="cls-2" d="M40.35,62.28a.26.26,0,0,1-.26-.23.27.27,0,0,1,.24-.28L43,61.55a.8.8,0,0,0,.59-.43,1.83,1.83,0,0,0,.27-1l0-.79c0-.45,0-.89,0-1.34v-.53c0-.53,0-1.08,0-1.62s-.3-1.27-.74-1.31l-2.69-.23a1.12,1.12,0,0,1-.81-.46,2.57,2.57,0,0,1,.41-3.35,1.18,1.18,0,0,1,.9-.25l2.68.43a.26.26,0,0,1,.21.29.25.25,0,0,1-.29.21l-2.68-.43a.66.66,0,0,0-.52.15A2.13,2.13,0,0,0,40,53.47a.64.64,0,0,0,.46.27l2.69.23c.73.07,1.25.86,1.21,1.85,0,.53,0,1.07,0,1.6v.52c0,.43,0,.87,0,1.31l0,.81a2.39,2.39,0,0,1-.35,1.33,1.32,1.32,0,0,1-1,.67l-2.71.22Z"/><path class="cls-2" d="M43.34,52.79h-.13l-2.7-.33a.25.25,0,0,1,.06-.5l2.7.33c.49,0,1-.52,1.13-1.28a42.36,42.36,0,0,1,.89-4.18c.16-.66,0-1.31-.46-1.44l-2.59-.77a1.17,1.17,0,0,1-.7-.62,2.32,2.32,0,0,1,0-1.8,2.27,2.27,0,0,1,1.13-1.38,1.13,1.13,0,0,1,.93-.06l2.54,1a.25.25,0,0,1,.14.33.24.24,0,0,1-.32.14l-2.54-1a.7.7,0,0,0-.54,0A1.86,1.86,0,0,0,42,42.35a1.89,1.89,0,0,0,0,1.41.69.69,0,0,0,.4.36L45,44.9a1.62,1.62,0,0,1,.8,2.05,41,41,0,0,0-.88,4.14A1.82,1.82,0,0,1,43.34,52.79Z"/><path class="cls-2" d="M45.59,43.8a1.13,1.13,0,0,1-.36-.06l-2.57-.88a.26.26,0,0,1-.16-.32.26.26,0,0,1,.32-.16l2.58.89c.47.15,1.08-.3,1.36-1,.57-1.46,1.14-2.74,1.73-3.91.3-.62.24-1.29-.15-1.5L46,35.55a1.22,1.22,0,0,1-.56-.74A2.4,2.4,0,0,1,45.74,33a.25.25,0,1,1,.43.26,1.89,1.89,0,0,0-.27,1.38.71.71,0,0,0,.31.43l2.38,1.3A1.63,1.63,0,0,1,49,38.57a40.07,40.07,0,0,0-1.71,3.87A2,2,0,0,1,45.59,43.8Z"/><path class="cls-2" d="M108.38,101.17a.27.27,0,0,1-.23-.14L107,98.59a1.77,1.77,0,0,1,1-2.16l.94-.5.89-.55.67-.42c.38-.23.75-.46,1.12-.71a1.59,1.59,0,0,1,2.19.07l1.59,2.19a.69.69,0,0,0,.48.25,1.83,1.83,0,0,0,1.33-.43,1.92,1.92,0,0,0,.74-1.22.67.67,0,0,0-.13-.49l-1.76-2.08a.25.25,0,0,1,0-.35.25.25,0,0,1,.36,0l1.75,2.07a1.13,1.13,0,0,1,.25.87,2.41,2.41,0,0,1-.92,1.57,2.38,2.38,0,0,1-1.73.53,1.17,1.17,0,0,1-.81-.46l-1.59-2.19c-.26-.36-.94-.33-1.49.06-.38.26-.76.49-1.15.73l-.66.41-.91.56-1,.5c-.67.35-1,1-.82,1.5l1.2,2.44a.25.25,0,0,1-.12.34A.2.2,0,0,1,108.38,101.17Z"/><path class="cls-2" d="M116.7,96a.23.23,0,0,1-.2-.1l-1.68-2.14a1.79,1.79,0,0,1,.58-2.34l.81-.67L117,90l.58-.55,1-.92a1.6,1.6,0,0,1,2.16-.39l2,1.82a.69.69,0,0,0,.51.16,1.93,1.93,0,0,0,1.23-.7,2,2,0,0,0,.48-1.35.66.66,0,0,0-.23-.45l-2.15-1.68a.26.26,0,1,1,.32-.4L125,87.2a1.14,1.14,0,0,1,.42.79,2.48,2.48,0,0,1-.59,1.73,2.35,2.35,0,0,1-1.59.88,1.21,1.21,0,0,1-.89-.28l-2-1.82c-.33-.3-1-.14-1.45.36l-1,.94-.58.54-.77.73-.83.69c-.58.48-.81,1.23-.5,1.64l1.68,2.14a.27.27,0,0,1-.05.36A.27.27,0,0,1,116.7,96Z"/><path class="cls-2" d="M123.78,89.13a.23.23,0,0,1-.16-.06l-2.08-1.76a1.78,1.78,0,0,1,.08-2.4l.67-.83,1.8-2.61a1.57,1.57,0,0,1,2-.82L128.44,82a.67.67,0,0,0,.53,0,1.82,1.82,0,0,0,1.06-.93,1.91,1.91,0,0,0,.19-1.41.67.67,0,0,0-.32-.4l-2.44-1.2a.25.25,0,0,1-.11-.34.25.25,0,0,1,.34-.12l2.43,1.21a1.15,1.15,0,0,1,.58.69,2.42,2.42,0,0,1-.22,1.81,2.34,2.34,0,0,1-1.38,1.18,1.16,1.16,0,0,1-.92-.1l-2.33-1.37c-.38-.23-1,.07-1.34.65l-1.82,2.64-.67.84c-.47.59-.54,1.38-.15,1.71l2.07,1.75a.25.25,0,0,1,0,.36A.25.25,0,0,1,123.78,89.13Z"/><path class="cls-2" d="M129.32,81a.27.27,0,0,1-.12,0l-2.39-1.3a1.78,1.78,0,0,1-.42-2.37l.48-.95a5.59,5.59,0,0,0,.26-.61l.15-.35.82-2a1.55,1.55,0,0,1,1.81-1.21l2.56.86a.69.69,0,0,0,.52,0,2,2,0,0,0,.75-2.57.67.67,0,0,0-.39-.32l-2.64-.67a.26.26,0,0,1-.18-.31.24.24,0,0,1,.31-.18l2.63.67a1.14,1.14,0,0,1,.71.56,2.5,2.5,0,0,1-1,3.27,1.15,1.15,0,0,1-.9.08l-2.56-.86c-.42-.14-1,.27-1.18.91l-.82,2-.15.35c-.09.21-.17.43-.28.64l-.48,1c-.33.67-.24,1.45.21,1.7l2.39,1.29a.26.26,0,0,1-.12.48Z"/><path class="cls-2" d="M133.08,71.94H133l-2.61-.78a1.78,1.78,0,0,1-.9-2.23,28.44,28.44,0,0,0,.67-3.09c.06-.35.13-.7.19-1.06.17-1,.82-1.63,1.54-1.55l2.68.32a.72.72,0,0,0,.49-.16,2,2,0,0,0,.61-1.3,1.8,1.8,0,0,0-.36-1.33.72.72,0,0,0-.49-.27l-2.72-.12a.26.26,0,0,1-.24-.26.26.26,0,0,1,.27-.25l2.71.13a1.19,1.19,0,0,1,.85.43,2.28,2.28,0,0,1,.48,1.72,2.39,2.39,0,0,1-.8,1.64,1.1,1.1,0,0,1-.86.27l-2.68-.32c-.43,0-.86.44-1,1.14-.07.36-.13.71-.19,1.06a31.83,31.83,0,0,1-.68,3.13c-.19.73.06,1.47.56,1.62l2.6.77a.26.26,0,0,1,.17.32A.25.25,0,0,1,133.08,71.94Z"/><path class="cls-2" d="M134.87,62.28h0l-2.71-.22a1.32,1.32,0,0,1-1-.67,2.32,2.32,0,0,1-.35-1.34l0-.8c0-.44,0-.88,0-1.32v-.51c0-.53,0-1.06-.05-1.59,0-1,.48-1.79,1.2-1.86l2.7-.22a.7.7,0,0,0,.46-.28,1.85,1.85,0,0,0,.3-1.37,1.9,1.9,0,0,0-.62-1.26.68.68,0,0,0-.52-.15l-2.68.43a.25.25,0,0,1-.29-.21.25.25,0,0,1,.21-.29l2.68-.43a1.18,1.18,0,0,1,.9.25,2.61,2.61,0,0,1,.41,3.35,1.14,1.14,0,0,1-.81.46l-2.69.23c-.44,0-.77.63-.75,1.32,0,.53.05,1.08.06,1.61v.52c0,.45,0,.9,0,1.34,0,.27,0,.54,0,.8a1.77,1.77,0,0,0,.26,1,.79.79,0,0,0,.6.44l2.71.22a.26.26,0,0,1,.23.28A.25.25,0,0,1,134.87,62.28Z"/><path class="cls-2" d="M131.88,52.79c-.74,0-1.39-.7-1.56-1.7a40.19,40.19,0,0,0-.88-4.13,1.62,1.62,0,0,1,.8-2.06l2.59-.78a.67.67,0,0,0,.39-.36,1.82,1.82,0,0,0,0-1.4,1.87,1.87,0,0,0-.87-1.1.68.68,0,0,0-.53,0l-2.54,1a.25.25,0,0,1-.33-.14.26.26,0,0,1,.15-.33l2.53-1a1.15,1.15,0,0,1,.94.06A2.57,2.57,0,0,1,133.67,44a1.15,1.15,0,0,1-.7.62l-2.58.77c-.42.13-.63.78-.46,1.45a41.16,41.16,0,0,1,.89,4.18c.13.75.64,1.33,1.13,1.27l2.7-.33a.25.25,0,1,1,.06.5l-2.7.33Z"/><path class="cls-2" d="M129.63,43.8A2,2,0,0,1,128,42.44a40.07,40.07,0,0,0-1.71-3.87,1.62,1.62,0,0,1,.36-2.17L129,35.1a.64.64,0,0,0,.31-.43,1.84,1.84,0,0,0-.27-1.38.26.26,0,1,1,.44-.26,2.35,2.35,0,0,1,.32,1.78,1.15,1.15,0,0,1-.56.74l-2.37,1.29c-.38.21-.45.88-.14,1.51.59,1.16,1.15,2.44,1.72,3.9.28.72.9,1.17,1.37,1l2.57-.88a.25.25,0,0,1,.32.16.24.24,0,0,1-.15.32l-2.58.88A1,1,0,0,1,129.63,43.8Z"/><path class="cls-2" d="M73.93,100.39l-1.88-.7a.18.18,0,0,0-.15,0,.2.2,0,0,0-.09.09.33.33,0,0,0,0,.14.19.19,0,0,0,.09.09v0a.66.66,0,0,1-.06.2l-.92,2.48a.69.69,0,0,1,0,.13l0,.06a.17.17,0,0,0-.13,0,.2.2,0,0,0-.09.09.28.28,0,0,0,0,.13.15.15,0,0,0,.12.11l1.87.7.09,0a.19.19,0,0,0,.09,0,.27.27,0,0,0,.09-.12l.21-.56a.23.23,0,0,0,0-.14A.2.2,0,0,0,73,103a.14.14,0,0,0-.13,0,.15.15,0,0,0-.09.1c0,.08-.07.16-.1.23a.16.16,0,0,1-.08.1.32.32,0,0,1-.2,0,1.79,1.79,0,0,1-.43-.12l-.43-.16.54-1.44.31.12.11,0a.26.26,0,0,1,.11.07.17.17,0,0,1,.07.1.27.27,0,0,1,0,.15.15.15,0,0,0,0,.13.18.18,0,0,0,.1.11.22.22,0,0,0,.14,0,.19.19,0,0,0,.1-.1l.28-.75a.26.26,0,0,0,0-.15.19.19,0,0,0-.1-.08.13.13,0,0,0-.14,0,.19.19,0,0,0-.1.1.23.23,0,0,1-.08.12.34.34,0,0,1-.26,0l-.11,0-.31-.11.48-1.3.43.16a1.89,1.89,0,0,1,.4.19.35.35,0,0,1,.13.15.17.17,0,0,1,0,.14c0,.07,0,.14-.08.23a.15.15,0,0,0,0,.13.16.16,0,0,0,.1.1.17.17,0,0,0,.24-.11l.21-.55a.26.26,0,0,0,0-.15A.17.17,0,0,0,73.93,100.39Z"/><path class="cls-2" d="M77.72,102.33l.15-.57a.23.23,0,0,0,0-.14h0a.17.17,0,0,0-.13-.12l-2.41-.65a.19.19,0,0,0-.18,0,.23.23,0,0,0-.07.11l-.15.58a.21.21,0,0,0,0,.14.24.24,0,0,0,.12.08.21.21,0,0,0,.14,0,.19.19,0,0,0,.08-.12.91.91,0,0,1,.1-.24.21.21,0,0,1,.12-.11.46.46,0,0,1,.25,0l.36.06-.77,2.85,0,.13a.16.16,0,0,1,0,.07.18.18,0,0,0-.12,0,.21.21,0,0,0-.08.11.19.19,0,0,0,0,.13.2.2,0,0,0,.13.1l.69.18h0l.09,0a.23.23,0,0,0,.09-.11.2.2,0,0,0,0-.13.16.16,0,0,0-.09-.09v-.08l0-.14.77-2.83a1.2,1.2,0,0,1,.34.16.61.61,0,0,1,.2.19.25.25,0,0,1,0,.16,1.1,1.1,0,0,1,0,.18.14.14,0,0,0,0,.14.18.18,0,0,0,.11.08A.17.17,0,0,0,77.72,102.33Z"/><path class="cls-2" d="M80.27,105.5h0l0,0a.88.88,0,0,1,0-.14c0-.09,0-.21,0-.35l0-.49-.06-.56-.06-.59-.1-1c0-.12,0-.21,0-.3l0-.08a.17.17,0,0,0-.14-.11.22.22,0,0,0-.18.05l-.05.07c0,.1-.14.27-.25.51L78,104.89l0,.09,0,0,0,0h-.07l-.13,0v0a.17.17,0,0,0-.08.12.16.16,0,0,0,.14.2l.64.12a.16.16,0,0,0,.13,0,.13.13,0,0,0,.07-.11.16.16,0,0,0,0-.15v0l-.11,0a.28.28,0,0,1-.13,0s0,0,0,0,0,0,0-.06l.55-1a.72.72,0,0,1,.21.12,1.38,1.38,0,0,1,.23.26,2.28,2.28,0,0,1,.17.3c0,.11.08.21.1.28a1.89,1.89,0,0,1,0,.3v.12a.16.16,0,0,0-.09,0,.19.19,0,0,0-.07.11.16.16,0,0,0,.14.21l.68.13h0a.17.17,0,0,0,.1,0,.16.16,0,0,0,.07-.11.15.15,0,0,0,0-.13A.18.18,0,0,0,80.27,105.5Zm-1.33-1.75.34-.62c0,.08,0,.18,0,.28l.05.39a.77.77,0,0,1,0,.15l-.07,0A1.5,1.5,0,0,0,78.94,103.75Z"/><path class="cls-2" d="M84,102.6a1.27,1.27,0,0,0-.39-.16,4.86,4.86,0,0,0-.51-.07l-.91-.09a.21.21,0,0,0-.14,0,.14.14,0,0,0-.06.12.21.21,0,0,0,0,.12.15.15,0,0,0,.11.07v0a1.41,1.41,0,0,1,0,.2l-.24,2.63a.59.59,0,0,1,0,.14.14.14,0,0,1,0,.07.22.22,0,0,0-.12.05.27.27,0,0,0-.06.12.22.22,0,0,0,0,.13.18.18,0,0,0,.14.07l.91.08.28,0,.28,0a1.13,1.13,0,0,0,.47-.15.83.83,0,0,0,.33-.34,1.33,1.33,0,0,0,.15-.53.93.93,0,0,0-.23-.72,1.32,1.32,0,0,0-.37-.29A1.4,1.4,0,0,0,84,104a.9.9,0,0,0,.3-.62,1,1,0,0,0,0-.44A.62.62,0,0,0,84,102.6Zm-1.12.05h.2l.23,0a.3.3,0,0,1,.14.1.27.27,0,0,1,.08.16.91.91,0,0,1,0,.29.71.71,0,0,1-.23.52.9.9,0,0,1-.55.15Zm.23,3.17a.68.68,0,0,1-.33,0l-.19,0,.14-1.6.32,0a.69.69,0,0,1,.29.12.4.4,0,0,1,.17.23,1.11,1.11,0,0,1,0,.44,1.86,1.86,0,0,1-.07.34.68.68,0,0,1-.14.25A.53.53,0,0,1,83.14,105.82Z"/><path class="cls-2" d="M87.88,105.38a.17.17,0,0,0-.18.18.32.32,0,0,1-.09.24.72.72,0,0,1-.25.16A2,2,0,0,1,87,106l-.36,0h-.22v-2.93a.2.2,0,0,0,0-.11.34.34,0,0,0,0-.09v0a.18.18,0,0,0,.13-.06.18.18,0,0,0,0-.12.22.22,0,0,0-.06-.13.19.19,0,0,0-.13,0h-.72a.19.19,0,0,0-.16.08.23.23,0,0,0,0,.11.19.19,0,0,0,0,.12.23.23,0,0,0,.12.06s0,0,0,0a.31.31,0,0,1,0,.1.57.57,0,0,0,0,.13v2.58a1.34,1.34,0,0,1,0,.21v0a.17.17,0,0,0-.11.06.18.18,0,0,0,0,.12.15.15,0,0,0,0,.12.15.15,0,0,0,.14.06h2.14a.23.23,0,0,0,.17-.07.29.29,0,0,0,0-.14v-.59a.2.2,0,0,0-.06-.14A.17.17,0,0,0,87.88,105.38Z"/><path class="cls-2" d="M89.72,105.51a.39.39,0,0,0-.27.13.42.42,0,0,0-.09.27.37.37,0,0,0,.38.36h0a.35.35,0,0,0,.26-.13.39.39,0,0,0,.1-.28h0a.43.43,0,0,0-.13-.26A.35.35,0,0,0,89.72,105.51Z"/><path class="cls-2" d="M93.52,104.93a.14.14,0,0,0-.12,0,.18.18,0,0,0-.14.07.17.17,0,0,0,0,.14c0,.15,0,.19,0,.19a.3.3,0,0,1-.16.07.27.27,0,0,1-.16,0l-.2-.11a1.36,1.36,0,0,0-.24-.13l-.15,0c.07-.07.14-.15.23-.23a4.14,4.14,0,0,0,.44-.5,2.21,2.21,0,0,0,.34-.57,1.3,1.3,0,0,0,.09-.68h0a1.13,1.13,0,0,0-.12-.38,1,1,0,0,0-.26-.32,1.22,1.22,0,0,0-.4-.18,1.42,1.42,0,0,0-.55,0,1.44,1.44,0,0,0-.43.13,1.3,1.3,0,0,0-.31.26,1.09,1.09,0,0,0-.17.36,1.07,1.07,0,0,0,0,.4.73.73,0,0,0,.22.49.48.48,0,0,0,.46.06.43.43,0,0,0,.21-.15.45.45,0,0,0,.07-.25.4.4,0,0,0-.09-.25.56.56,0,0,0-.29-.18.16.16,0,0,1-.11-.1.26.26,0,0,1,0-.17.47.47,0,0,1,.16-.19.71.71,0,0,1,.32-.12.48.48,0,0,1,.28,0,.28.28,0,0,1,.15.13.75.75,0,0,1,.09.24,2.87,2.87,0,0,1,.05.31,1,1,0,0,1,0,.3,1.68,1.68,0,0,1-.09.32,1.73,1.73,0,0,1-.14.32,2.14,2.14,0,0,1-.17.3,4.19,4.19,0,0,1-.5.65l-.09.11a.91.91,0,0,0-.11.16.51.51,0,0,0-.07.17.53.53,0,0,0,0,.22l0,.27a.2.2,0,0,0,.08.13.21.21,0,0,0,.11,0h0a.16.16,0,0,0,.13-.08.16.16,0,0,0,0-.13.11.11,0,0,1,.06-.11.43.43,0,0,1,.22-.09.41.41,0,0,1,.2,0,.88.88,0,0,1,.2.09l.21.1a.64.64,0,0,0,.31,0,.53.53,0,0,0,.43-.3,1.1,1.1,0,0,0,.06-.62A.15.15,0,0,0,93.52,104.93Z"/><path class="cls-2" d="M96.88,102.37a1.91,1.91,0,0,0-.41-.53,1.14,1.14,0,0,0-.47-.25,1,1,0,0,0-.87.19,1.1,1.1,0,0,0-.32.43,2,2,0,0,0-.15.65,3.16,3.16,0,0,0,.08.88,3,3,0,0,0,.29.84,2.12,2.12,0,0,0,.41.53,1.16,1.16,0,0,0,.47.26,1.24,1.24,0,0,0,.27,0l.18,0a1,1,0,0,0,.42-.2,1.07,1.07,0,0,0,.33-.44,1.89,1.89,0,0,0,.15-.65,3.2,3.2,0,0,0-.09-.88A3,3,0,0,0,96.88,102.37Zm-.26,2.3c0,.34-.2.42-.32.44s-.28,0-.45-.27a5,5,0,0,1-.41-1.25,5.32,5.32,0,0,1-.15-1.31c0-.34.19-.41.3-.43h.09c.11,0,.25,0,.38.27a5.31,5.31,0,0,1,.41,1.25A4.87,4.87,0,0,1,96.62,104.67Z"/><path class="cls-2" d="M100.33,101.36a1.68,1.68,0,0,0-.46-.49,1.18,1.18,0,0,0-.49-.22,1.22,1.22,0,0,0-.47,0,.93.93,0,0,0-.38.24,1,1,0,0,0-.28.45,1.91,1.91,0,0,0-.1.66,3.36,3.36,0,0,0,.16.87,3.14,3.14,0,0,0,.37.82,2,2,0,0,0,.45.49,1.11,1.11,0,0,0,.49.21l.18,0a.84.84,0,0,0,.27,0,1.19,1.19,0,0,0,.4-.24,1.25,1.25,0,0,0,.29-.46,2.19,2.19,0,0,0,.09-.66,3.65,3.65,0,0,0-.52-1.68Zm-.34,2.78h0c-.11,0-.28,0-.47-.23a4.75,4.75,0,0,1-.52-1.22,4.51,4.51,0,0,1-.26-1.29c0-.34.14-.42.25-.46l.13,0c.1,0,.23,0,.37.25a4.87,4.87,0,0,1,.51,1.21,4.58,4.58,0,0,1,.26,1.29C100.26,104,100.11,104.1,100,104.14Z"/><path class="cls-2" d="M104.34,101.68a3.42,3.42,0,0,0-.24-.86,3.2,3.2,0,0,0-.43-.77,2,2,0,0,0-.49-.45,1.06,1.06,0,0,0-.51-.17,1,1,0,0,0-.47.07h0a1,1,0,0,0-.36.26,1.21,1.21,0,0,0-.24.48,2.05,2.05,0,0,0,0,.67,3.2,3.2,0,0,0,.23.85,3.14,3.14,0,0,0,.44.78,2,2,0,0,0,.49.45,1.14,1.14,0,0,0,.51.17h.08a1,1,0,0,0,.36-.07,1.25,1.25,0,0,0,.39-.27,1.18,1.18,0,0,0,.24-.49A2,2,0,0,0,104.34,101.68Zm-.77,1.17c-.11,0-.27.07-.49-.19a5,5,0,0,1-.62-1.17,4.62,4.62,0,0,1-.37-1.26c0-.34.11-.43.22-.48a.32.32,0,0,1,.14,0,.51.51,0,0,1,.37.21,5.13,5.13,0,0,1,.61,1.16,4.88,4.88,0,0,1,.38,1.27C103.84,102.7,103.69,102.8,103.57,102.85Z"/><path class="cls-2" d="M87.61,98.41a40.95,40.95,0,1,1,41-40.95A41,41,0,0,1,87.61,98.41Zm0-81.18a40.23,40.23,0,1,0,40.22,40.23A40.28,40.28,0,0,0,87.61,17.23Z"/></svg>