<svg id="Layer_1" data-name="Layer 1" xmlns="http://www.w3.org/2000/svg" viewBox="0 0 248 112"><defs><style>.cls-1{fill:#3f549c;}.cls-2,.cls-3{fill:none;stroke:#3f549c;stroke-miterlimit:10;}.cls-2{stroke-width:0.6px;}</style></defs><title>JensenBlikk</title><path class="cls-1" d="M137.53,37.76a.69.69,0,0,1,.22.5.72.72,0,0,1-.19.49A.74.74,0,0,1,137,39a.63.63,0,0,0-.59.44,3.35,3.35,0,0,0-.27,1.11,12.42,12.42,0,0,0-.08,1.4v16.8a11.42,11.42,0,0,1-.83,4.65,8,8,0,0,1-2.14,2.9,7.58,7.58,0,0,1-2.93,1.47,12.53,12.53,0,0,1-3.15.42,13.73,13.73,0,0,1-3.93-.54,9.76,9.76,0,0,1-3.15-1.55,7.07,7.07,0,0,1-2.06-2.46,6.88,6.88,0,0,1-.74-3.22,4.12,4.12,0,0,1,.51-2,3.82,3.82,0,0,1,1.33-1.4,3.38,3.38,0,0,1,1.8-.49,3.31,3.31,0,0,1,1.91.64,2.91,2.91,0,0,1,1,1.23,3,3,0,0,1,.25,1.52,3.23,3.23,0,0,1-.57,1.52,3.37,3.37,0,0,1-1.42,1.19,1.43,1.43,0,0,0-1,1.2,2.13,2.13,0,0,0,.64,1.62,5.79,5.79,0,0,0,2.09,1.41,8.54,8.54,0,0,0,3.34.58,3.57,3.57,0,0,0,2.78-1A5.23,5.23,0,0,0,131,64a12.58,12.58,0,0,0,.3-2.88c0-1,0-1.77,0-2.36V41.92a9,9,0,0,0-.1-1.4,4.25,4.25,0,0,0-.29-1.11.64.64,0,0,0-.59-.44.74.74,0,0,1-.59-.22.73.73,0,0,1-.2-.49.76.76,0,0,1,.2-.5.78.78,0,0,1,.59-.22H137A.79.79,0,0,1,137.53,37.76ZM185.69,56.2c.89.4,1.86.74,2.8,1.14A15,15,0,0,1,191,58.69a7.45,7.45,0,0,1,1.85,1.82,3.87,3.87,0,0,1,.58,2.35,5.06,5.06,0,0,1-.7,2.74A5.29,5.29,0,0,1,191,67.32a6.62,6.62,0,0,1-2.23.9,12.22,12.22,0,0,1-2.29.3,8.75,8.75,0,0,1-2.18-.23,8,8,0,0,1-2.27-.85,5.64,5.64,0,0,1-1.77-1.51,3.53,3.53,0,0,1-.71-2.19,4,4,0,0,1,.29-1.54,3.47,3.47,0,0,1,.77-1.13,2.08,2.08,0,0,1,1-.56,1.84,1.84,0,0,1,1.16.18,1.76,1.76,0,0,1,.83.72,2,2,0,0,1,.23,1,2.28,2.28,0,0,1-.23,1,3.92,3.92,0,0,1-.63,1,1.33,1.33,0,0,0-.38,1.19,1.86,1.86,0,0,0,.71,1,5.14,5.14,0,0,0,1.47.69,4.19,4.19,0,0,0,1.66.18,4,4,0,0,0,2.47-.73,3.15,3.15,0,0,0,1.28-1.76,3,3,0,0,0-.42-2.19,5,5,0,0,0-2.42-2c-.6-.27-1.33-.59-2.17-.94a12.92,12.92,0,0,1-2.4-1.35,8.8,8.8,0,0,1-2-1.88,4.12,4.12,0,0,1-.83-2.59,6,6,0,0,1,1.58-4.29A6.75,6.75,0,0,1,186.52,48a7.08,7.08,0,0,1,2.7.36,6.22,6.22,0,0,1,1.95,1.05,4.48,4.48,0,0,1,1.19,1.45,3.58,3.58,0,0,1,.39,1.55,5,5,0,0,1-.26,1.72,2.72,2.72,0,0,1-.67,1.06,1.81,1.81,0,0,1-.9.48,1.47,1.47,0,0,1-.93-.09,1.86,1.86,0,0,1-1.22-1.47,2.65,2.65,0,0,1,.83-2.24,2.34,2.34,0,0,0,.57-1.1,1.27,1.27,0,0,0-.28-1,2.29,2.29,0,0,0-1.15-.66,6.21,6.21,0,0,0-2.18-.22,4,4,0,0,0-2.83,1.19A2.52,2.52,0,0,0,183,52a4.74,4.74,0,0,0,.65,2.51A4.13,4.13,0,0,0,185.69,56.2Zm-30.14,6.13a8,8,0,0,1-2.88,3.59c-1.6.83-5.84,2-7.14-1.77a20.3,20.3,0,0,1-.74-6.39c.09-6.54,2.62-8.86,4.24-8.84,1.89,0,2.83,1.48,2.79,4.41-.07,4.86-2,4.72-4.21,5.14a13.88,13.88,0,0,1-1.77.23.44.44,0,0,0-.35.47.46.46,0,0,0,.46.48h0a18.91,18.91,0,0,0,6.76-1.16,5,5,0,0,0,3.35-5.05c.05-3.3-2.4-5.27-7-5.33a9.65,9.65,0,0,0-9.42,9.73c-.1,6.72,3.54,10.18,8.94,10.26s7.32-3.51,7.53-4.83S155.72,61.91,155.55,62.33Zm56.21,0a8.09,8.09,0,0,1-2.88,3.59c-1.6.83-5.85,2-7.14-1.77a20,20,0,0,1-.74-6.39c.09-6.54,2.62-8.86,4.23-8.84,1.89,0,2.83,1.48,2.79,4.41-.07,4.86-2.05,4.72-4.21,5.14a13.45,13.45,0,0,1-1.77.23.45.45,0,0,0-.35.47.47.47,0,0,0,.46.48h0a18.88,18.88,0,0,0,6.76-1.16,5.06,5.06,0,0,0,3.36-5.05c0-3.3-2.41-5.27-7-5.33a9.66,9.66,0,0,0-9.42,9.73c-.09,6.72,3.54,10.18,8.94,10.26s7.32-3.51,7.54-4.83S211.92,61.91,211.76,62.33Zm-34.88,4.35c-.63-.22-1-.81-1-3.56l0-10a13.83,13.83,0,0,0-.12-1.8,4,4,0,0,0-.59-1.65,3.46,3.46,0,0,0-1.33-1.2,4.44,4.44,0,0,0-2.22-.47,7,7,0,0,0-2.42.46,7.63,7.63,0,0,0-1.91,1,9.29,9.29,0,0,0-1.38,1.2,8.72,8.72,0,0,0-.86,1.06V49.58c0-.76-.14-1.1-.55-1a9.27,9.27,0,0,0-4.35,1.67,4,4,0,0,0-1,.91.49.49,0,0,0,.08.43,1.67,1.67,0,0,0,.64.45,2.07,2.07,0,0,1,.44.34,2.51,2.51,0,0,1,.35.44,1.14,1.14,0,0,1,.14.54l.06,9.86c0,2.75-.34,3.28-1,3.5-.3.1-.75.23-.75.58s.28.6.69.6H166c.41,0,.7-.13.7-.59s-.45-.48-.76-.58c-.63-.22-.95-.7-.95-3.45L165,53c.16-.26.37-.56.61-.89a5.68,5.68,0,0,1,.91-.93,4.87,4.87,0,0,1,1.26-.74,4.18,4.18,0,0,1,1.64-.29,2.28,2.28,0,0,1,1.19.2,1.56,1.56,0,0,1,.66.69,2.71,2.71,0,0,1,.25.95c0,.37.05.74.05,1.14l.15,10c0,2.75-.37,3.28-1,3.5-.3.1-.75.23-.75.58s.29.59.69.59h6.25c.41,0,.7-.13.7-.59S177.19,66.78,176.88,66.68Zm55.73,0c-.64-.22-1-.81-1-3.56l0-10a13.83,13.83,0,0,0-.12-1.8,4.18,4.18,0,0,0-.59-1.65,3.61,3.61,0,0,0-1.33-1.2,4.47,4.47,0,0,0-2.22-.47,7,7,0,0,0-2.42.46,7.53,7.53,0,0,0-1.92,1,8.71,8.71,0,0,0-1.37,1.2,8.94,8.94,0,0,0-.87,1.06V49.58c0-.76-.14-1.1-.54-1a9.35,9.35,0,0,0-4.36,1.67,4.07,4.07,0,0,0-1,.91.46.46,0,0,0,.08.43,1.67,1.67,0,0,0,.64.45,2.07,2.07,0,0,1,.44.34,2.46,2.46,0,0,1,.34.44,1,1,0,0,1,.15.54l.05,9.86c0,2.75-.33,3.28-1,3.5-.31.1-.76.23-.76.58s.29.6.7.6h6.24c.41,0,.69-.13.69-.59s-.44-.48-.75-.58c-.64-.22-1-.7-1-3.45l0-10.21c.17-.26.37-.56.62-.89a5.68,5.68,0,0,1,.91-.93,5,5,0,0,1,1.25-.74,4.26,4.26,0,0,1,1.65-.29,2.3,2.3,0,0,1,1.19.2,1.56,1.56,0,0,1,.66.69,2.94,2.94,0,0,1,.25.95c0,.37.05.74.05,1.14l.15,10c0,2.75-.37,3.28-1,3.5-.3.1-.75.23-.75.58s.28.59.69.59h6.25c.41,0,.69-.13.69-.59S232.91,66.78,232.61,66.68Z"/><path class="cls-1" d="M159.58,79.43a2.15,2.15,0,0,1,.63,1.52A2.18,2.18,0,0,1,158,83.13h-2.4V75.72H158a2.18,2.18,0,0,1,1.55,3.71Zm-2.65-.65H158A.88.88,0,1,0,158,77h-1.1Zm2,2.17a.87.87,0,0,0-.88-.88h-1.1v1.76H158A.87.87,0,0,0,158.91,81Z"/><path class="cls-1" d="M170.72,81.83v1.3h-4V75.72H168v6.11Z"/><path class="cls-1" d="M177.24,83.13V75.72h1.3v7.41Z"/><path class="cls-1" d="M188.53,83.13l-1.71-2.83-.38.6v2.23h-1.3V75.72h1.3v2.83l1.84-2.83h1.55l-2.21,3.38,2.43,4Z"/><path class="cls-1" d="M199.84,83.13l-1.7-2.83-.38.6v2.23h-1.31V75.72h1.31v2.83l1.84-2.83h1.54l-2.21,3.38,2.44,4Z"/><path class="cls-1" d="M69.27,51.08,71,52.88c-1.82,1.48-4.81,3.87-7.25,5.85-.16-.46-.56-2.38-.7-2.77C65.32,54.17,67.59,52.42,69.27,51.08ZM51.4,65.31c-.51,1.42-1.11,3.15-1.71,4.92l11.22-9.15c-.4-1-.77-1.82-1.07-2.54C57.61,60.31,53.61,63.55,51.4,65.31ZM36.2,76.81c-1.05.93.62,3.09,1.79,2.22.26-.19,6.09-4.73,8.78-6.91l1.31-4.69C43.72,70.9,36.51,76.54,36.2,76.81ZM75.13,49.53a12.28,12.28,0,0,1-1-.92,1.29,1.29,0,0,1-.44-1s-1.79,1.24-2.79,2l1.24,2.15C73.24,50.86,75.13,49.53,75.13,49.53Zm-1.87-4.26a.72.72,0,0,1,.81.75,3,3,0,0,0,2.42,3,1.12,1.12,0,0,1,.93,1,2.3,2.3,0,0,0,.47,1.25,2.31,2.31,0,0,0,3.76-2.67,2.25,2.25,0,0,0-1-.86A1.14,1.14,0,0,1,80,46.61a3,3,0,0,0-2.1-3.28.72.72,0,0,1-.44-1c.38-.79.75-1.92.29-2.57-.76-1.06-2.33-1-3.5-.44a11.18,11.18,0,0,0-1.44.87,11.56,11.56,0,0,0-1.29,1.07c-.94.91-1.48,2.39-.73,3.45C71.21,45.35,72.39,45.37,73.26,45.27Z"/><path class="cls-1" d="M59.6,62.81l-1.8,1.47,6.46,5.29L62.4,65.1Z"/><polygon class="cls-1" points="40.06 46.78 38.62 48.55 40.8 50.42 41.96 48.42 40.06 46.78"/><path class="cls-1" d="M71,75.74a1.4,1.4,0,0,1,.94.3h0a1.37,1.37,0,0,1,.46.76,5.51,5.51,0,0,0,2,3c1.86,1.53,4.14,1.81,5.1.64s.24-3.36-1.62-4.89a5.47,5.47,0,0,0-3.35-1.35,1.27,1.27,0,0,1-.83-.31,1.32,1.32,0,0,1-.48-.86,1.49,1.49,0,0,0-.55-1,1.51,1.51,0,0,0-2,0l-1,1.17h0c-.12.15-.56.57-.5,1,.2.61.18.53.36,1.08A1.68,1.68,0,0,0,71,75.74Z"/><path class="cls-1" d="M51.1,56l-7.38-6.13L42.21,51.5l8.1,6.75C50.58,57.38,51.05,56.07,51.1,56Z"/><path class="cls-1" d="M70.17,71.49,67.38,69.2c.36,1,1.12,3,1.44,3.91Z"/><rect class="cls-1" x="31.7" y="45.28" width="9.38" height="3.7" rx="0.19" transform="translate(-23.13 45.37) rotate(-50.63)"/><rect class="cls-1" x="31.14" y="50.24" width="2.35" height="3.7" rx="0.19" transform="translate(-28.46 44.03) rotate(-50.63)"/><path class="cls-1" d="M53.21,60.56l2.32,1.8,1.82-1.45L54,58.29c-.21.52-.42,1.11-.65,1.76Z"/><path class="cls-1" d="M57.43,53.32a.65.65,0,1,1-.65-.65A.65.65,0,0,1,57.43,53.32Zm-1.7-1c-.55,0-.79.48-1.33.81s-2.36-.19-3.47,2.71-6.56,22.85-7,24.24-.65,3.67,1.26,3.67,1.39-1.7,1-2.16-.58-.65-.15-2S50.48,66.23,52,62.21s2.13-7.07,4.16-7.07a5.8,5.8,0,0,1,1.15.06l.09-.67s-1.2.16-1.64-.41A2.15,2.15,0,0,1,55.73,52.3Zm2.35,2.38-.22.8s.09-.43.93,1.42,9.38,22.38,9.57,23.16A1.67,1.67,0,0,1,68,81.63a1.05,1.05,0,0,0,0,1.61,1.82,1.82,0,0,0,2.65-2.07c-.3-2.35-6-18.4-7.22-21.77S62.15,55,61.26,54.31a1.14,1.14,0,0,0-1.73.12C59.19,54.71,59.13,54.9,58.08,54.68ZM50,45.11c0,5,1.33,7.63,2.25,7.81.65.12,1.08-.12,2.2-.9a3.81,3.81,0,0,0,1.26-3.3c-.12-.77-1.51-4.51-2.28-7.13s-1-3.8-1.21-3.8C51.78,37.79,50,40.2,50,45.11Zm6.42,7.16c.31,0,.8-.18,1.2.22s.19,1,.16,1.36.46.46.89.43,1.89-.09,3.43-4.82S61.5,39.83,61,38.81s-.8-.89-.93-.65S56,51.35,56,51.35C55.86,51.9,56.1,52.24,56.41,52.27Z"/><path class="cls-1" d="M47.84,37.39H51L29.83,69a.12.12,0,0,1-.2-.12Zm16.52,0H61.19L82.37,69a.12.12,0,0,0,.2-.12Zm.42-.61H60.41L57.48,32a4.18,4.18,0,0,1-4.95-1.8,0,0,0,0,0-.08,0,4.24,4.24,0,0,0,1.95,2.29l-2.6,4.24H47.42l4.68-7.56A4.22,4.22,0,0,1,52,28.09a4.15,4.15,0,0,1,8.28-.5,4.2,4.2,0,0,1-.13,1.63ZM58,28.09A1.94,1.94,0,1,0,56.1,30,1.93,1.93,0,0,0,58,28.09Z"/><path class="cls-1" d="M25.73,28.46a2.1,2.1,0,0,1,1.09-.53,1.35,1.35,0,0,1,1,.3,2,2,0,0,1,.54.62,1.26,1.26,0,0,1,.14.65,1.73,1.73,0,0,1-.2.7,4.55,4.55,0,0,1-.48.73l-.92,1.15a.14.14,0,0,1-.09.05.13.13,0,0,1-.09,0,.12.12,0,0,1,0-.08.12.12,0,0,1,0-.11.1.1,0,0,0,0-.13.79.79,0,0,0-.12-.15l-.18-.17-.17-.13-3.15-2.53a1.74,1.74,0,0,0-.3-.2c-.1-.06-.18-.06-.22,0a.16.16,0,0,1-.09.06.14.14,0,0,1-.09,0,.12.12,0,0,1,0-.08.1.1,0,0,1,0-.1l.92-1.15a5.6,5.6,0,0,1,.54-.6,1.83,1.83,0,0,1,.5-.35.9.9,0,0,1,.51-.05,1.37,1.37,0,0,1,.56.29,1.26,1.26,0,0,1,.5.84A1.94,1.94,0,0,1,25.73,28.46Zm-2.59-.69L25,29.29a1.68,1.68,0,0,0,.41-1.14,1.26,1.26,0,0,0-.54-.88,1.63,1.63,0,0,0-.45-.28.85.85,0,0,0-.38,0,.81.81,0,0,0-.33.15,1.61,1.61,0,0,0-.3.29Zm4.61,3.07a1.37,1.37,0,0,0,.28-.55,1.13,1.13,0,0,0,0-.52,1.38,1.38,0,0,0-.25-.48,2.78,2.78,0,0,0-.42-.42,1.85,1.85,0,0,0-.7-.39.93.93,0,0,0-.55,0,1.41,1.41,0,0,0-.49.33,6.22,6.22,0,0,0-.45.53l2.29,1.84Z"/><path class="cls-1" d="M32.31,24.53a.12.12,0,0,1,.09,0,.11.11,0,0,1,.08,0l.65.71a.3.3,0,0,1,.06.11.15.15,0,0,1-.07.12l-2.54,2.34a.13.13,0,0,1-.1,0,.12.12,0,0,1-.11-.13.11.11,0,0,1,.05-.09c0-.05,0-.12,0-.22a1.89,1.89,0,0,0-.23-.28l-2.81-3.07-.14-.15a.92.92,0,0,0-.14-.14.38.38,0,0,0-.13-.08.12.12,0,0,0-.12,0s-.07.05-.11,0a.08.08,0,0,1-.07,0,.12.12,0,0,1,0-.08s0-.07.05-.11l.85-.78a.18.18,0,0,1,.09,0,.19.19,0,0,1,.09,0,.12.12,0,0,1,0,.09.11.11,0,0,1,0,.09.18.18,0,0,0-.05.11.31.31,0,0,0,.05.12,1.34,1.34,0,0,0,.11.14l.12.13L31.21,27l.4-.36a5.77,5.77,0,0,0,.41-.43,2.73,2.73,0,0,0,.35-.51,1.35,1.35,0,0,0,.14-.54.72.72,0,0,0-.21-.5A.11.11,0,0,1,32.31,24.53Z"/><path class="cls-1" d="M32.69,18.87c-.06,0-.07.12,0,.24a2.49,2.49,0,0,0,.16.33l2.35,3.28a1.77,1.77,0,0,0,.14.17,1.36,1.36,0,0,0,.17.17.44.44,0,0,0,.17.12.14.14,0,0,0,.14,0,.12.12,0,0,1,.18,0,.13.13,0,0,1,0,.09.1.1,0,0,1,0,.08l-.94.67a.11.11,0,0,1-.1,0,.09.09,0,0,1-.08,0,.08.08,0,0,1,0-.08.12.12,0,0,1,.06-.1s0-.06,0-.12a.56.56,0,0,0-.07-.19,1.19,1.19,0,0,0-.12-.22c0-.07-.09-.13-.12-.18l-2.35-3.28a1.27,1.27,0,0,0-.25-.27c-.09-.07-.16-.09-.22-.05a.19.19,0,0,1-.1,0,.16.16,0,0,1-.08-.05.15.15,0,0,1,0-.09s0-.06.06-.09l.94-.67a.17.17,0,0,1,.1,0l.08.05a.13.13,0,0,1,0,.09A.12.12,0,0,1,32.69,18.87Z"/><path class="cls-1" d="M38.57,15.39a.64.64,0,0,0-.2.16,1.06,1.06,0,0,0-.1.17.53.53,0,0,0-.05.2l-.31,1.69.41.34.59.49c.21.18.43.37.66.55l.62.52.48.39.22.17a.24.24,0,0,0,.2,0,.1.1,0,0,1,.09,0,.11.11,0,0,1,.07.06c0,.07,0,.12,0,.16l-1.06.57a.11.11,0,0,1-.08,0,.09.09,0,0,1-.08-.05.14.14,0,0,1,0-.09s0-.06.05-.07a.11.11,0,0,0,0-.09.15.15,0,0,0,0-.08l-.21-.22-.38-.33c-.14-.13-.3-.26-.47-.4l-.5-.4-.44-.35-.31-.24-.19,1,.66,1.23a1.57,1.57,0,0,0,.12.21,1.17,1.17,0,0,0,.12.2.92.92,0,0,0,.13.14.09.09,0,0,0,.11,0,.15.15,0,0,1,.11,0s.06,0,.07.06a.1.1,0,0,1,0,.09s0,.06-.06.08l-1,.54a.12.12,0,0,1-.11,0,.17.17,0,0,1-.06-.06.15.15,0,0,1,0-.09.13.13,0,0,1,.07-.08s0-.05,0-.1a.77.77,0,0,0,0-.19c0-.07,0-.15-.08-.23l-.11-.21-1.91-3.55a3.21,3.21,0,0,0-.19-.31c-.08-.09-.14-.12-.2-.09a.15.15,0,0,1-.11,0,.23.23,0,0,1-.07-.07s0-.05,0-.09a.13.13,0,0,1,.07-.08l1-.55a.21.21,0,0,1,.11,0,.11.11,0,0,1,.07.06.11.11,0,0,1,0,.1s0,.06-.07.08-.07.1,0,.21a2.26,2.26,0,0,0,.13.33l1.13,2.1L38,16c0-.07,0-.13,0-.16s-.07,0-.13,0a.85.85,0,0,0-.32.12.11.11,0,0,1-.16-.06.1.1,0,0,1,0-.16l1-.55a.11.11,0,0,1,.17.05A.11.11,0,0,1,38.57,15.39Z"/><path class="cls-1" d="M45.1,12.9a.57.57,0,0,0-.22.12.83.83,0,0,0-.13.16.66.66,0,0,0-.09.19L44.08,15l.35.4.5.58.56.65.53.61.41.46.19.21a.23.23,0,0,0,.19,0,.11.11,0,0,1,.1,0s0,0,.05.06a.1.1,0,0,1-.07.15l-1.14.39a.08.08,0,0,1-.08,0,.08.08,0,0,1-.07-.07.12.12,0,0,1,0-.08s0-.06.07-.06a.12.12,0,0,0,.06-.08.22.22,0,0,0,0-.09,1.93,1.93,0,0,0-.17-.24l-.32-.4-.4-.47-.42-.47L44,16.17l-.27-.3-.35,1,.45,1.31a2.25,2.25,0,0,0,.08.24l.09.22a1,1,0,0,0,.1.15.09.09,0,0,0,.11,0,.2.2,0,0,1,.11,0,.13.13,0,0,1,.06.07.12.12,0,0,1-.08.16l-1.09.37a.17.17,0,0,1-.1,0,.19.19,0,0,1-.06-.07.14.14,0,0,1,0-.09.11.11,0,0,1,.08-.07s0,0,0-.1a1.34,1.34,0,0,0,0-.19c0-.07,0-.15-.05-.24s0-.16-.07-.22l-1.3-3.82a1.66,1.66,0,0,0-.15-.33c0-.11-.11-.15-.18-.13a.11.11,0,0,1-.11,0,.13.13,0,0,1-.06-.07.12.12,0,0,1,0-.1s0-.05.08-.07l1.09-.37a.14.14,0,0,1,.11,0,.13.13,0,0,1,.06.07.14.14,0,0,1,0,.09.13.13,0,0,1-.09.07c-.06,0-.08.09-.07.21s.05.23.08.35l.77,2.25,1.11-3.14a.19.19,0,0,0,0-.16s-.06-.06-.13-.07a.87.87,0,0,0-.33.06.1.1,0,0,1-.15-.08c0-.07,0-.12.07-.15l1.1-.37c.07,0,.12,0,.15.07A.11.11,0,0,1,45.1,12.9Z"/><path class="cls-1" d="M51.4,11.39a.33.33,0,0,1,.05.12l.16.94a.1.1,0,0,1,0,.09.16.16,0,0,1-.08.06.11.11,0,0,1-.09,0,.11.11,0,0,1-.05-.08c0-.14,0-.27-.07-.39a.56.56,0,0,0-.17-.29.78.78,0,0,0-.4-.14,2.8,2.8,0,0,0-.76.06l-.89.15.43,2.54.71-.12.19,0a.91.91,0,0,0,.25-.11.48.48,0,0,0,.2-.2.5.5,0,0,0,0-.35c0-.08,0-.13.1-.14a.1.1,0,0,1,.09,0s0,0,0,.07l.22,1.27a.12.12,0,0,1,0,.1.14.14,0,0,1-.08.05.15.15,0,0,1-.09,0,.16.16,0,0,1-.05-.09.5.5,0,0,0-.15-.31.58.58,0,0,0-.26-.13.83.83,0,0,0-.27,0l-.2,0-.7.12L50,17.33l.89-.15a3.42,3.42,0,0,0,.73-.2.72.72,0,0,0,.33-.27.52.52,0,0,0,.07-.33L52,16c0-.08,0-.13.09-.14a.12.12,0,0,1,.1,0,.16.16,0,0,1,0,.08l.16.94a.23.23,0,0,1,0,.12.15.15,0,0,1-.12.07l-3.18.55a.11.11,0,0,1-.1,0,.12.12,0,0,1,0-.17.13.13,0,0,1,.09-.05s.07,0,.09-.1a.62.62,0,0,0,0-.2,1.12,1.12,0,0,0,0-.24c0-.08,0-.15,0-.21l-.68-4a2,2,0,0,0-.09-.35c0-.11-.1-.16-.16-.15a.13.13,0,0,1-.11,0,.14.14,0,0,1-.05-.08A.15.15,0,0,1,48,12s0,0,.1-.05l3.17-.55A.2.2,0,0,1,51.4,11.39Z"/><path class="cls-1" d="M58.89,11a.12.12,0,0,1,0,.08.1.1,0,0,1,0,.09.09.09,0,0,1-.08,0,.48.48,0,0,0-.22,0,.43.43,0,0,0-.13.09.31.31,0,0,0-.06.13.66.66,0,0,0,0,.14l0,5.07c0,.06,0,.08-.08.08a.09.09,0,0,1-.06,0l0,0-3.15-4.65,0,4.11a.68.68,0,0,0,0,.14.24.24,0,0,0,.07.13.34.34,0,0,0,.13.1.65.65,0,0,0,.22,0,.1.1,0,0,1,.08,0,.13.13,0,0,1,0,.09.09.09,0,0,1,0,.07.09.09,0,0,1-.08,0h-1a.11.11,0,0,1-.12-.12.12.12,0,0,1,.11-.13c.18,0,.29,0,.35-.13a.54.54,0,0,0,.07-.27l0-4.4a.34.34,0,0,0,0-.13.84.84,0,0,0-.05-.17.31.31,0,0,0-.11-.14.24.24,0,0,0-.17-.06.1.1,0,0,1-.08,0,.09.09,0,0,1,0-.08.12.12,0,0,1,0-.09.12.12,0,0,1,.08,0h.72a.59.59,0,0,1,.2,0l.14.08a.64.64,0,0,1,.1.13l2.5,3.7,0-3.33a.43.43,0,0,0-.09-.26c-.05-.09-.17-.13-.34-.13a.12.12,0,0,1-.09,0,.13.13,0,0,1,0-.08c0-.09,0-.13.12-.13h1A.12.12,0,0,1,58.89,11Z"/><path class="cls-1" d="M63.12,14l.66.42a2.35,2.35,0,0,1,.49.44,1.46,1.46,0,0,1,.28.5,1.61,1.61,0,0,1,0,.63,1.67,1.67,0,0,1-.19.57A1.43,1.43,0,0,1,64,17a1.54,1.54,0,0,1-.59.28,1.92,1.92,0,0,1-.8,0,2.44,2.44,0,0,1-.57-.16,2,2,0,0,1-.52-.3,1.54,1.54,0,0,1-.34-.43.87.87,0,0,1-.08-.53.76.76,0,0,1,.15-.4.68.68,0,0,1,.26-.22.6.6,0,0,1,.3-.07.53.53,0,0,1,.28.07.35.35,0,0,1,.19.19.54.54,0,0,1,0,.28.57.57,0,0,1-.11.27.51.51,0,0,1-.29.19.35.35,0,0,0-.26.2.33.33,0,0,0,0,.3A.92.92,0,0,0,62,17a1.63,1.63,0,0,0,.6.2,1.08,1.08,0,0,0,.58-.05.77.77,0,0,0,.36-.3.9.9,0,0,0,.15-.47,1.44,1.44,0,0,0,0-.54,1.82,1.82,0,0,0-.25-.53,1.43,1.43,0,0,0-.45-.43c-.21-.14-.41-.28-.59-.42a2.89,2.89,0,0,1-.47-.45,1.51,1.51,0,0,1-.28-.53,1.43,1.43,0,0,1,0-.66,1.89,1.89,0,0,1,.22-.63,1.42,1.42,0,0,1,.41-.47,1.39,1.39,0,0,1,.56-.27,1.71,1.71,0,0,1,.68,0,1.87,1.87,0,0,1,.69.22,1.76,1.76,0,0,1,.49.39,1.42,1.42,0,0,1,.27.48,1.08,1.08,0,0,1,0,.5,1,1,0,0,1-.13.39.67.67,0,0,1-.21.23.46.46,0,0,1-.24.08.47.47,0,0,1-.24,0,.48.48,0,0,1-.21-.17.46.46,0,0,1-.11-.27.51.51,0,0,1,0-.29.63.63,0,0,1,.28-.25.53.53,0,0,0,.25-.26.47.47,0,0,0,0-.35.66.66,0,0,0-.3-.33,1.41,1.41,0,0,0-.64-.22,1.09,1.09,0,0,0-.58.06.82.82,0,0,0-.38.33,1.1,1.1,0,0,0-.17.49,1.38,1.38,0,0,0,0,.57,1.7,1.7,0,0,0,.27.56A1.39,1.39,0,0,0,63.12,14Z"/><path class="cls-1" d="M70.15,17.81a.11.11,0,0,1,.07.06.1.1,0,0,1,0,.09l-.29.92a.2.2,0,0,1-.06.11.17.17,0,0,1-.14,0l-3.3-1a.14.14,0,0,1-.09-.16.13.13,0,0,1,.06-.07.12.12,0,0,1,.1,0c.07,0,.13,0,.18-.13a2.52,2.52,0,0,0,.14-.33l1.23-4,.06-.2a.77.77,0,0,0,.05-.19.38.38,0,0,0,0-.15.11.11,0,0,0-.09-.09s-.07,0-.08-.07a.1.1,0,0,1,0-.09.15.15,0,0,1,0-.07s.06,0,.12,0l1.1.34a.27.27,0,0,1,.08.07.14.14,0,0,1,0,.09.13.13,0,0,1-.06.07.13.13,0,0,1-.11,0,.12.12,0,0,0-.12,0,.44.44,0,0,0-.08.1l-.06.16c0,.06,0,.12-.05.17l-1.45,4.68.51.16c.18.05.37.1.58.14a2.65,2.65,0,0,0,.62,0,1.13,1.13,0,0,0,.53-.15.7.7,0,0,0,.33-.43A.12.12,0,0,1,70.15,17.81Z"/><path class="cls-1" d="M75.58,21.4a.1.1,0,0,1,.06.07.14.14,0,0,1,0,.09c0,.07-.09.09-.16.05l-1-.49a.11.11,0,0,1,0-.16l.07-.06h.08c.07,0,.12,0,.16-.07a1.2,1.2,0,0,0,.08-.25q0-.2.09-.48c0-.15,0-.33,0-.52a3.75,3.75,0,0,0-.13-.58,2,2,0,0,0-.27-.54,1.24,1.24,0,0,0-.44-.41l-1.4,1.44a.35.35,0,0,0-.11.18.26.26,0,0,0,0,.18.75.75,0,0,0,.26.2h0c.06,0,.08.08.05.14a.09.09,0,0,1-.15,0l-.93-.46c-.07,0-.08-.08-.05-.15a.09.09,0,0,1,.14,0h0a.41.41,0,0,0,.18.05.41.41,0,0,0,.16,0l.13-.09a.52.52,0,0,1,.11-.1l3-3.14c.29-.32.49-.55.62-.68l.08-.06a.15.15,0,0,1,.13,0s.08.06.08.1v.09c0,.11,0,.27-.08.48s-.08.44-.13.71-.1.56-.16.87-.11.62-.16.93-.11.61-.16.9l-.13.78q-.06.34-.09.57a1,1,0,0,0,0,.27.18.18,0,0,0,.08.15ZM74.1,18a2.68,2.68,0,0,1,.66.48,2,2,0,0,1,.33.43c0-.22.07-.44.1-.66s.06-.43.09-.63,0-.38.08-.55,0-.32.07-.44Z"/><path class="cls-1" d="M81.69,22.76a.11.11,0,0,1-.17,0,.21.21,0,0,0-.22,0,.84.84,0,0,0-.22.21,3.77,3.77,0,0,1-.57.66,2,2,0,0,1-.62.38,1.41,1.41,0,0,1-.68,0,1.87,1.87,0,0,1-.73-.33,1.6,1.6,0,0,1-.58-.7,1.81,1.81,0,0,1-.12-.87,3.14,3.14,0,0,1,.27-1,5.49,5.49,0,0,1,.6-1,5,5,0,0,1,.84-.95,2.87,2.87,0,0,1,.85-.54,1.67,1.67,0,0,1,1.65.2,2.07,2.07,0,0,1,.49.49,1.73,1.73,0,0,1,.28.58,1.44,1.44,0,0,1,0,.62,1.4,1.4,0,0,1-.26.62.92.92,0,0,1-.22.22.68.68,0,0,1-.47.09.51.51,0,0,1-.18-.09.73.73,0,0,1-.17-.18.48.48,0,0,1-.07-.23.46.46,0,0,1,.06-.22.42.42,0,0,1,.22-.19,1.26,1.26,0,0,0,.51-.38.69.69,0,0,0,.17-.43.85.85,0,0,0-.12-.43,1.29,1.29,0,0,0-.34-.36,1,1,0,0,0-.48-.18,1,1,0,0,0-.45.1,1.82,1.82,0,0,0-.44.32,5.89,5.89,0,0,0-.41.44l-.38.51q-.18.27-.36.51c-.2.29-.4.57-.59.86a4.6,4.6,0,0,0-.47.8,1.58,1.58,0,0,0-.14.71.76.76,0,0,0,.38.57.81.81,0,0,0,1.15,0,2.22,2.22,0,0,0,.41-.49l.36-.54a.48.48,0,0,0,.12-.27.21.21,0,0,0-.1-.2.12.12,0,1,1,.14-.2l1,.71A.11.11,0,0,1,81.69,22.76Z"/><path class="cls-1" d="M88.2,24.38a.15.15,0,0,1-.06.11l-.67.69a.11.11,0,0,1-.08,0,.17.17,0,0,1-.1,0,.12.12,0,0,1,0-.09.09.09,0,0,1,0-.08l.27-.3a.52.52,0,0,0,.14-.31.84.84,0,0,0-.13-.4,3.32,3.32,0,0,0-.49-.58l-.65-.63-1.79,1.85.51.49a1.16,1.16,0,0,0,.15.13.76.76,0,0,0,.23.15.53.53,0,0,0,.28,0,.51.51,0,0,0,.31-.18.11.11,0,0,1,.17,0,.19.19,0,0,1,0,.09.09.09,0,0,1,0,.08l-.89.93a.16.16,0,0,1-.09,0,.09.09,0,0,1-.09,0,.1.1,0,0,1,0-.09.2.2,0,0,1,0-.08.57.57,0,0,0,.17-.31.56.56,0,0,0-.05-.29.91.91,0,0,0-.15-.23l-.14-.14-.51-.5-2,2,.65.64a2.76,2.76,0,0,0,.59.47.7.7,0,0,0,.41.11.52.52,0,0,0,.3-.14l.29-.28a.09.09,0,0,1,.16,0,.09.09,0,0,1,0,.08.08.08,0,0,1,0,.09l-.66.69-.11.06s-.08,0-.13-.06l-2.31-2.24a.16.16,0,0,1-.05-.1.36.36,0,0,1,0-.09.11.11,0,0,1,.08,0,.13.13,0,0,1,.1,0,.1.1,0,0,0,.13,0,.62.62,0,0,0,.17-.1l.18-.17.15-.15,2.81-2.9a1.49,1.49,0,0,0,.23-.28c.07-.09.08-.17,0-.21a.19.19,0,0,1,0-.1.25.25,0,0,1,0-.09.11.11,0,0,1,.08,0,.1.1,0,0,1,.1,0l2.31,2.25S88.21,24.34,88.2,24.38Z"/><path class="cls-1" d="M88.13,33a.1.1,0,0,1,0,.1.14.14,0,0,1,0,.08s0,0-.09,0a.16.16,0,0,1-.09-.06l-.28-.37a3.24,3.24,0,0,1-.21-.35.58.58,0,0,1,0-.39,1.18,1.18,0,0,1,.26-.47,3.72,3.72,0,0,1,.66-.59,4.82,4.82,0,0,0,.55-.48,1.09,1.09,0,0,0,.26-.4.58.58,0,0,0,0-.39,1.59,1.59,0,0,0-.25-.45l-.3-.4-1.87,1.39-.26.24c-.07.09-.09.15,0,.21a.1.1,0,0,1,0,.1.11.11,0,0,1,0,.08.14.14,0,0,1-.09,0,.15.15,0,0,1-.09-.06L85.52,30a.11.11,0,0,1,0-.1.22.22,0,0,1,.05-.08.16.16,0,0,1,.09,0,.12.12,0,0,1,.09.06.12.12,0,0,0,.1,0l.14-.05.17-.1.17-.12,3.33-2.5.27-.24q.12-.13.06-.21a.11.11,0,0,1,0-.1.11.11,0,0,1,0-.08.09.09,0,0,1,.09,0,.14.14,0,0,1,.09,0L91,27.65a7.51,7.51,0,0,1,.46.69,2.19,2.19,0,0,1,.24.62.93.93,0,0,1,0,.55,1.12,1.12,0,0,1-.4.49,1.17,1.17,0,0,1-.83.26,1.93,1.93,0,0,1-.87-.35,1.09,1.09,0,0,1,.15.44.77.77,0,0,1-.09.41,1.81,1.81,0,0,1-.32.4c-.15.13-.33.28-.55.44a2.92,2.92,0,0,0-.56.51,1.13,1.13,0,0,0-.22.39.51.51,0,0,0,0,.3A.84.84,0,0,0,88.13,33Zm.55-4.22a2.13,2.13,0,0,0,1.06.75,1.19,1.19,0,0,0,1-.24,1.6,1.6,0,0,0,.36-.39.85.85,0,0,0,.1-.4,1,1,0,0,0-.09-.4,1.54,1.54,0,0,0-.23-.39l-.29-.39Z"/><path class="cls-1" d="M49.05,98.52Z"/><path class="cls-1" d="M38,94.41a.18.18,0,0,1-.1,0,.22.22,0,0,1-.1-.3l1.08-2.2c.2-.41-.14-1-.74-1.35l-.85-.45-.82-.51-.61-.37c-.34-.21-.69-.42-1-.65-.5-.36-1.12-.38-1.36,0l-1.42,2a1.06,1.06,0,0,1-.74.41,2.11,2.11,0,0,1-1.54-.48A2.17,2.17,0,0,1,28.92,89a1,1,0,0,1,.22-.77l1.58-1.87a.23.23,0,0,1,.35.29l-1.58,1.87a.6.6,0,0,0-.12.44A1.77,1.77,0,0,0,30,90.06a1.68,1.68,0,0,0,1.2.38.62.62,0,0,0,.43-.23l1.42-2a1.44,1.44,0,0,1,2,0l1,.63.61.38.81.5.83.44a1.6,1.6,0,0,1,.94,2l-1.08,2.2A.24.24,0,0,1,38,94.41Z"/><path class="cls-1" d="M30.49,89.71a.24.24,0,0,1-.14,0,.23.23,0,0,1,0-.32l1.51-1.93c.28-.36.08-1-.45-1.47l-.74-.61-.7-.67-.52-.49-.87-.84c-.41-.46-1-.6-1.31-.33l-1.8,1.64a1.07,1.07,0,0,1-.8.25,2.09,2.09,0,0,1-1.42-.79,2.16,2.16,0,0,1-.54-1.56,1.09,1.09,0,0,1,.38-.72L25,80.32a.23.23,0,0,1,.32,0,.22.22,0,0,1,0,.32l-1.93,1.51a.68.68,0,0,0-.21.41,1.77,1.77,0,0,0,.44,1.22,1.72,1.72,0,0,0,1.1.63.6.6,0,0,0,.46-.14l1.8-1.64a1.45,1.45,0,0,1,1.95.35c.27.28.56.55.85.82l.52.5.7.66.72.6a1.6,1.6,0,0,1,.52,2.1l-1.51,1.93A.23.23,0,0,1,30.49,89.71Z"/><path class="cls-1" d="M24.11,83.57a.21.21,0,0,1-.17-.09.22.22,0,0,1,0-.32l1.87-1.58c.35-.3.29-1-.13-1.53l-.6-.75-1.64-2.38c-.32-.53-.87-.8-1.22-.6l-2.1,1.24a1,1,0,0,1-.82.09,2.09,2.09,0,0,1-1.24-1.06,2.16,2.16,0,0,1-.2-1.64,1,1,0,0,1,.52-.62l2.19-1.08a.23.23,0,0,1,.31.1.23.23,0,0,1-.11.31L18.6,74.74a.58.58,0,0,0-.29.36,1.76,1.76,0,0,0,.17,1.28,1.71,1.71,0,0,0,.95.83.59.59,0,0,0,.48,0L22,75.93a1.43,1.43,0,0,1,1.83.75L25.46,79l.59.73a1.6,1.6,0,0,1,.08,2.17l-1.87,1.58A.24.24,0,0,1,24.11,83.57Z"/><path class="cls-1" d="M19.12,76.26a.22.22,0,0,1-.2-.12.23.23,0,0,1,.09-.31l2.16-1.16a1.19,1.19,0,0,0,.18-1.54l-.43-.85c-.09-.19-.17-.39-.25-.58l-.13-.31-.74-1.77c-.2-.59-.69-1-1.07-.84l-2.3.78a1,1,0,0,1-.81-.07,2.18,2.18,0,0,1-1-1.3,2.22,2.22,0,0,1,.14-1.65,1,1,0,0,1,.64-.5l2.37-.61a.22.22,0,0,1,.28.17.22.22,0,0,1-.16.27l-2.38.61a.58.58,0,0,0-.35.29,1.8,1.8,0,0,0,.68,2.31.59.59,0,0,0,.46,0l2.31-.78a1.41,1.41,0,0,1,1.63,1.11L21,71.21c0,.1.09.21.13.32s.15.37.24.55l.43.85a1.62,1.62,0,0,1-.37,2.14l-2.16,1.16A.2.2,0,0,1,19.12,76.26Z"/><path class="cls-1" d="M15.73,68.08a.21.21,0,0,1-.21-.16.23.23,0,0,1,.15-.29L18,66.94c.44-.14.67-.81.5-1.46a25.83,25.83,0,0,1-.61-2.82l-.18-.94c-.11-.64-.48-1.09-.88-1L14.43,61a1,1,0,0,1-.77-.24,2.25,2.25,0,0,1-.72-1.48,2,2,0,0,1,.44-1.55,1.07,1.07,0,0,1,.76-.39l2.44-.11a.22.22,0,0,1,.24.22.22.22,0,0,1-.22.23l-2.44.11a.66.66,0,0,0-.44.24,1.66,1.66,0,0,0-.33,1.21,1.77,1.77,0,0,0,.55,1.16.56.56,0,0,0,.44.14l2.42-.28c.65-.07,1.23.51,1.38,1.4l.18.95a24,24,0,0,0,.6,2.77,1.64,1.64,0,0,1-.81,2l-2.35.69Z"/><path class="cls-1" d="M14.12,59.38a.23.23,0,0,1,0-.45l2.44-.2a.73.73,0,0,0,.54-.39,1.68,1.68,0,0,0,.24-1c0-.24,0-.48,0-.71,0-.4,0-.81,0-1.21V55c0-.48,0-1,.05-1.46s-.28-1.15-.67-1.18l-2.43-.21a1.05,1.05,0,0,1-.73-.42,2.1,2.1,0,0,1-.37-1.58,2.06,2.06,0,0,1,.74-1.43,1.08,1.08,0,0,1,.81-.23l2.42.39a.23.23,0,0,1,.19.26.23.23,0,0,1-.26.19l-2.42-.39a.65.65,0,0,0-.47.14,1.91,1.91,0,0,0-.29,2.37.63.63,0,0,0,.42.24l2.43.21a1.45,1.45,0,0,1,1.08,1.66c0,.49,0,1-.05,1.44v.48c0,.38,0,.78,0,1.18l0,.72a2.12,2.12,0,0,1-.32,1.2,1.16,1.16,0,0,1-.88.6l-2.44.2Z"/><path class="cls-1" d="M16.82,50.83H16.7l-2.43-.3a.23.23,0,0,1-.2-.26.22.22,0,0,1,.25-.19l2.43.29c.44.05.91-.46,1-1.14.21-1.29.48-2.56.8-3.77.15-.6,0-1.18-.41-1.3l-2.33-.7a1,1,0,0,1-.63-.55,2.1,2.1,0,0,1,0-1.62,2,2,0,0,1,1-1.25A1,1,0,0,1,17,40l2.28.88a.22.22,0,1,1-.16.42l-2.29-.88a.6.6,0,0,0-.48,0,1.89,1.89,0,0,0-.77,2.25A.65.65,0,0,0,16,43l2.33.7A1.45,1.45,0,0,1,19,45.58a35.45,35.45,0,0,0-.79,3.72A1.63,1.63,0,0,1,16.82,50.83Z"/><path class="cls-1" d="M18.84,42.74a1.19,1.19,0,0,1-.32-.05l-2.32-.8a.23.23,0,0,1,.15-.43l2.32.8c.43.14,1-.27,1.23-.92a36.06,36.06,0,0,1,1.56-3.52c.27-.56.21-1.16-.14-1.35L19.19,35.3a1,1,0,0,1-.5-.66A2.06,2.06,0,0,1,19,33a.22.22,0,0,1,.31-.08.23.23,0,0,1,.08.31,1.74,1.74,0,0,0-.25,1.25.67.67,0,0,0,.28.38l2.14,1.17a1.46,1.46,0,0,1,.33,2,36.59,36.59,0,0,0-1.54,3.49A1.78,1.78,0,0,1,18.84,42.74Z"/><path class="cls-1" d="M75.4,94.41a.21.21,0,0,1-.2-.12l-1.09-2.2a1.6,1.6,0,0,1,.94-2l.85-.45.79-.5.61-.37c.34-.21.68-.42,1-.64a1.42,1.42,0,0,1,2,.06l1.43,2a.62.62,0,0,0,.43.23,1.65,1.65,0,0,0,1.2-.39A1.73,1.73,0,0,0,84,89a.6.6,0,0,0-.12-.44l-1.58-1.87a.23.23,0,1,1,.35-.29l1.58,1.87a1.06,1.06,0,0,1,.23.77,2.25,2.25,0,0,1-.84,1.42,2.15,2.15,0,0,1-1.55.48,1.06,1.06,0,0,1-.74-.41l-1.42-2c-.24-.33-.86-.31-1.35,0-.34.23-.69.44-1,.65l-.6.37-.82.51-.86.45c-.6.32-.94.94-.74,1.35l1.08,2.2a.22.22,0,0,1-.1.3A.18.18,0,0,1,75.4,94.41Z"/><path class="cls-1" d="M82.89,89.71a.23.23,0,0,1-.18-.09L81.2,87.69a1.6,1.6,0,0,1,.52-2.1l.74-.61.68-.65.52-.5c.29-.27.58-.54.86-.82a1.42,1.42,0,0,1,1.94-.35l1.8,1.64a.64.64,0,0,0,.46.14,1.77,1.77,0,0,0,1.11-.63,1.81,1.81,0,0,0,.43-1.22.68.68,0,0,0-.21-.41l-1.93-1.51a.22.22,0,0,1,0-.32.23.23,0,0,1,.32,0l1.93,1.51a1,1,0,0,1,.38.71,2.19,2.19,0,0,1-.53,1.56,2.13,2.13,0,0,1-1.43.79,1,1,0,0,1-.8-.26L86.15,83c-.3-.27-.9-.13-1.3.32l-.88.85-.52.49-.69.66-.75.62c-.53.43-.73,1.11-.45,1.47l1.51,1.93a.23.23,0,0,1,0,.32A.24.24,0,0,1,82.89,89.71Z"/><path class="cls-1" d="M89.27,83.57a.24.24,0,0,1-.15-.06l-1.87-1.58a1.6,1.6,0,0,1,.08-2.17l.6-.74,1.62-2.36a1.42,1.42,0,0,1,1.82-.73l2.1,1.24a.59.59,0,0,0,.48,0,1.69,1.69,0,0,0,1-.84,1.73,1.73,0,0,0,.17-1.27.58.58,0,0,0-.29-.36l-2.19-1.08a.23.23,0,0,1-.11-.31.23.23,0,0,1,.31-.1L95,74.33a1,1,0,0,1,.52.62,2.2,2.2,0,0,1-.19,1.64,2.13,2.13,0,0,1-1.25,1.06,1.07,1.07,0,0,1-.83-.09l-2.09-1.24c-.35-.2-.9.07-1.21.59l-1.64,2.38-.61.76c-.42.53-.48,1.23-.13,1.53l1.87,1.58a.22.22,0,0,1,0,.32A.21.21,0,0,1,89.27,83.57Z"/><path class="cls-1" d="M94.26,76.26a.2.2,0,0,1-.11,0L92,75.07a1.61,1.61,0,0,1-.38-2.14l.43-.86c.09-.17.16-.36.24-.54s.09-.22.13-.32l.74-1.77a1.42,1.42,0,0,1,1.63-1.09l2.31.78a.58.58,0,0,0,.46,0,1.79,1.79,0,0,0,.79-1,1.76,1.76,0,0,0-.11-1.28.55.55,0,0,0-.35-.29l-2.38-.61a.22.22,0,0,1-.16-.27.22.22,0,0,1,.28-.17L98,66a1,1,0,0,1,.64.5,2.25,2.25,0,0,1,.15,1.64,2.22,2.22,0,0,1-1,1.31,1,1,0,0,1-.81.07l-2.3-.78c-.38-.12-.87.25-1.06.82l-.75,1.78a3.05,3.05,0,0,1-.13.32c-.08.19-.16.39-.25.58l-.43.85c-.3.61-.22,1.31.18,1.54l2.16,1.16a.23.23,0,0,1,.09.31A.22.22,0,0,1,94.26,76.26Z"/><path class="cls-1" d="M97.65,68.08h-.07l-2.35-.69a1.63,1.63,0,0,1-.81-2,24.61,24.61,0,0,0,.6-2.78l.18-.95c.15-.89.74-1.48,1.38-1.4l2.42.28a.56.56,0,0,0,.44-.14A1.77,1.77,0,0,0,100,59.2a1.65,1.65,0,0,0-.33-1.2.66.66,0,0,0-.43-.24l-2.45-.11a.22.22,0,0,1-.22-.23.22.22,0,0,1,.24-.22l2.44.11a1.07,1.07,0,0,1,.76.39,2,2,0,0,1,.44,1.55,2.25,2.25,0,0,1-.72,1.48,1.05,1.05,0,0,1-.78.24l-2.41-.29c-.39,0-.77.4-.88,1l-.18.95a25.83,25.83,0,0,1-.61,2.82c-.17.65.06,1.32.5,1.46l2.35.69a.23.23,0,0,1,.15.29A.21.21,0,0,1,97.65,68.08Z"/><path class="cls-1" d="M99.26,59.38h0l-2.44-.2a1.19,1.19,0,0,1-.89-.6,2.19,2.19,0,0,1-.31-1.2l0-.72c0-.4,0-.8,0-1.19V55c0-.48,0-1,0-1.44,0-.89.43-1.61,1.08-1.67l2.43-.21a.63.63,0,0,0,.42-.24,1.91,1.91,0,0,0-.29-2.37.65.65,0,0,0-.47-.14l-2.41.39a.23.23,0,0,1-.27-.19.23.23,0,0,1,.19-.26l2.42-.39a1.08,1.08,0,0,1,.81.23,2.07,2.07,0,0,1,.74,1.44,2.09,2.09,0,0,1-.37,1.57,1.05,1.05,0,0,1-.73.42l-2.43.21c-.39,0-.69.57-.66,1.19s0,1,0,1.45v.47c0,.4,0,.8,0,1.2,0,.24,0,.48,0,.72a1.63,1.63,0,0,0,.24.94.72.72,0,0,0,.54.4l2.44.2a.23.23,0,0,1,0,.45Z"/><path class="cls-1" d="M96.56,50.83a1.63,1.63,0,0,1-1.4-1.53,35.45,35.45,0,0,0-.79-3.72,1.45,1.45,0,0,1,.72-1.85l2.33-.7a.62.62,0,0,0,.36-.33A1.9,1.9,0,0,0,97,40.45a.6.6,0,0,0-.48,0l-2.29.88a.22.22,0,0,1-.16-.42L96.36,40a1,1,0,0,1,.84,0,2,2,0,0,1,1,1.25,2.1,2.1,0,0,1,0,1.62,1,1,0,0,1-.63.55l-2.33.7c-.38.12-.56.7-.41,1.3.32,1.21.59,2.48.8,3.77.11.68.58,1.2,1,1.14l2.43-.29a.22.22,0,0,1,.25.19.23.23,0,0,1-.2.26l-2.43.3Z"/><path class="cls-1" d="M94.54,42.74a1.78,1.78,0,0,1-1.49-1.23A37.88,37.88,0,0,0,91.52,38a1.46,1.46,0,0,1,.32-2L94,34.9a.65.65,0,0,0,.29-.38A1.74,1.74,0,0,0,94,33.27a.23.23,0,0,1,.08-.31.22.22,0,0,1,.31.08,2.11,2.11,0,0,1,.3,1.6,1,1,0,0,1-.51.66l-2.13,1.17c-.35.19-.41.79-.14,1.36a34.79,34.79,0,0,1,1.56,3.51c.25.65.81,1.06,1.23.91L97,41.46a.23.23,0,1,1,.15.43l-2.32.8A1.19,1.19,0,0,1,94.54,42.74Z"/><path class="cls-1" d="M44.37,93.71l-1.69-.63a.22.22,0,0,0-.14,0,.23.23,0,0,0-.08.09.24.24,0,0,0,0,.12.22.22,0,0,0,.08.09v0a.84.84,0,0,1,0,.17l-.83,2.24a.54.54,0,0,1,0,.11l0,.06a.18.18,0,0,0-.11,0,.24.24,0,0,0-.08.09.24.24,0,0,0,0,.12.18.18,0,0,0,.11.1l1.69.62.07,0a.12.12,0,0,0,.09,0,.21.21,0,0,0,.08-.1l.18-.5a.15.15,0,0,0,0-.13.14.14,0,0,0-.09-.08.19.19,0,0,0-.13,0,.18.18,0,0,0-.08.09,1,1,0,0,1-.08.21.18.18,0,0,1-.08.09.31.31,0,0,1-.18,0,1.79,1.79,0,0,1-.38-.11l-.39-.14.48-1.3.29.11.09,0a.34.34,0,0,1,.11.07.15.15,0,0,1,.06.09.2.2,0,0,1,0,.13.13.13,0,0,0,0,.12.14.14,0,0,0,.09.09.15.15,0,0,0,.13,0,.14.14,0,0,0,.08-.09l.25-.68a.12.12,0,0,0,0-.13.18.18,0,0,0-.09-.08.16.16,0,0,0-.12,0,.14.14,0,0,0-.08.1.24.24,0,0,1-.08.11.31.31,0,0,1-.23,0l-.1,0-.28-.11.43-1.17.39.15a2.06,2.06,0,0,1,.36.17.46.46,0,0,1,.12.13.2.2,0,0,1,0,.13,1.28,1.28,0,0,1-.07.21.24.24,0,0,0,0,.12.18.18,0,0,0,.1.09.2.2,0,0,0,.13,0,.14.14,0,0,0,.08-.09l.19-.5a.3.3,0,0,0,0-.13S44.45,93.74,44.37,93.71Z"/><path class="cls-1" d="M47.78,95.46l.14-.52a.17.17,0,0,0,0-.12h0a.16.16,0,0,0-.12-.1l-2.17-.58a.16.16,0,0,0-.16,0,.24.24,0,0,0-.06.11l-.14.52a.14.14,0,0,0,0,.12.2.2,0,0,0,.11.08.2.2,0,0,0,.12,0,.2.2,0,0,0,.08-.11.93.93,0,0,1,.08-.22.27.27,0,0,1,.11-.1.53.53,0,0,1,.23,0l.32,0-.69,2.57a.56.56,0,0,1,0,.12l0,.06a.17.17,0,0,0-.11,0,.17.17,0,0,0-.07.1.15.15,0,0,0,.12.2l.62.17h0a.11.11,0,0,0,.08,0,.14.14,0,0,0,.08-.09.17.17,0,0,0,0-.12.15.15,0,0,0-.09-.08v-.07l0-.12L47,94.75a1.5,1.5,0,0,1,.31.15.43.43,0,0,1,.18.17.27.27,0,0,1,0,.14.78.78,0,0,1,0,.16.12.12,0,0,0,0,.13.13.13,0,0,0,.09.07A.15.15,0,0,0,47.78,95.46Z"/><path class="cls-1" d="M50.08,98.31h0l0,0s0-.06,0-.12,0-.19,0-.32l0-.44c0-.16,0-.33-.05-.51l-.06-.52-.09-.9c0-.1,0-.19,0-.27l0-.07a.2.2,0,0,0-.13-.1.16.16,0,0,0-.16,0l0,.06c-.05.09-.13.24-.23.46L48,97.77l0,.07a.08.08,0,0,1,0,0,.05.05,0,0,1,0,0H47.7v0a.15.15,0,0,0,.06.28l.57.11a.18.18,0,0,0,.12,0,.15.15,0,0,0,.06-.11.12.12,0,0,0,0-.13v0l-.09,0-.12,0s0,0,0,0,0,0,0-.05l.49-.92a.59.59,0,0,1,.19.11.9.9,0,0,1,.21.23,1.51,1.51,0,0,1,.15.28c0,.1.08.18.1.24s0,.2,0,.27v.11l-.08,0a.15.15,0,0,0-.06.1.15.15,0,0,0,.12.19l.61.11h0a.19.19,0,0,0,.09,0,.16.16,0,0,0,.06-.1.17.17,0,0,0,0-.12A.15.15,0,0,0,50.08,98.31Zm-1.19-1.57.3-.57,0,.26.05.35a.68.68,0,0,1,0,.14l-.07,0A1.26,1.26,0,0,0,48.89,96.74Z"/><path class="cls-1" d="M53.47,95.7a1.11,1.11,0,0,0-.35-.14,4.52,4.52,0,0,0-.46-.07l-.82-.07a.14.14,0,0,0-.13,0,.13.13,0,0,0-.05.11.12.12,0,0,0,0,.11.13.13,0,0,0,.1.06v.2l-.22,2.37a.51.51,0,0,1,0,.13.11.11,0,0,1,0,.06.16.16,0,0,0-.1,0,.15.15,0,0,0-.06.1.19.19,0,0,0,0,.12.14.14,0,0,0,.12.06l.82.08h.25l.26,0a1.09,1.09,0,0,0,.42-.13.76.76,0,0,0,.29-.3,1.29,1.29,0,0,0,.14-.48.82.82,0,0,0-.21-.65.93.93,0,0,0-.33-.26,1.15,1.15,0,0,0,.29-.16.85.85,0,0,0,.27-.56.83.83,0,0,0,0-.4A.53.53,0,0,0,53.47,95.7Zm-1,0,.18,0a.59.59,0,0,1,.2,0,.34.34,0,0,1,.14.09.37.37,0,0,1,.07.14,1.12,1.12,0,0,1,0,.27.62.62,0,0,1-.22.46.79.79,0,0,1-.49.14Zm.21,2.86a.56.56,0,0,1-.3,0l-.18,0,.14-1.45.28,0a.81.81,0,0,1,.27.11.53.53,0,0,1,.15.2,1.22,1.22,0,0,1,0,.41,1.59,1.59,0,0,1-.06.3.65.65,0,0,1-.13.23A.48.48,0,0,1,52.67,98.6Z"/><path class="cls-1" d="M56.93,98.2a.15.15,0,0,0-.16.16.33.33,0,0,1-.08.22.59.59,0,0,1-.23.14,1.41,1.41,0,0,1-.31.08l-.32,0h-.21V96.07s0,0,0-.08h0a.17.17,0,0,0,.12,0,.16.16,0,0,0,0-.12.15.15,0,0,0,0-.11.21.21,0,0,0-.13,0H55a.16.16,0,0,0-.14.07.16.16,0,0,0,0,.09.19.19,0,0,0,0,.11A.24.24,0,0,0,55,96a0,0,0,0,1,0,0,.28.28,0,0,1,0,.09.49.49,0,0,0,0,.12v2.33a1.21,1.21,0,0,1,0,.19h0a.17.17,0,0,0-.11.06.14.14,0,0,0,0,.1.19.19,0,0,0,0,.12.18.18,0,0,0,.13,0h1.93a.19.19,0,0,0,.15-.07.34.34,0,0,0,0-.12v-.54a.16.16,0,0,0-.06-.12A.19.19,0,0,0,56.93,98.2Z"/><path class="cls-1" d="M58.59,98.32a.34.34,0,0,0-.24.11.33.33,0,0,0-.08.25.35.35,0,0,0,.12.24.31.31,0,0,0,.22.09h0a.33.33,0,0,0,.23-.12.38.38,0,0,0,.09-.25h0a.35.35,0,0,0-.12-.24A.32.32,0,0,0,58.59,98.32Z"/><path class="cls-1" d="M62,97.79a.17.17,0,0,0-.12,0,.22.22,0,0,0-.12.06.31.31,0,0,0,0,.13c0,.13,0,.17,0,.17a.26.26,0,0,1-.15.06.22.22,0,0,1-.14,0l-.18-.11L61.05,98a.32.32,0,0,0-.14,0,2.08,2.08,0,0,1,.21-.21,3.39,3.39,0,0,0,.4-.45,2.11,2.11,0,0,0,.31-.52,1.24,1.24,0,0,0,.08-.61h0a1,1,0,0,0-.11-.34.65.65,0,0,0-.24-.28.86.86,0,0,0-.36-.17,1.31,1.31,0,0,0-.49,0,1.19,1.19,0,0,0-.39.12.78.78,0,0,0-.27.24.71.71,0,0,0-.16.31.88.88,0,0,0,0,.36.63.63,0,0,0,.2.44.39.39,0,0,0,.41.06.36.36,0,0,0,.19-.13.39.39,0,0,0,.07-.23.33.33,0,0,0-.09-.22.47.47,0,0,0-.25-.17c-.08,0-.1-.06-.1-.08a.22.22,0,0,1,0-.16.47.47,0,0,1,.15-.17.55.55,0,0,1,.28-.11.52.52,0,0,1,.26,0,.32.32,0,0,1,.14.12,1,1,0,0,1,.08.21c0,.09,0,.19,0,.28a1.22,1.22,0,0,1,0,.27,1.38,1.38,0,0,1-.08.29,1.85,1.85,0,0,1-.13.29l-.15.27a5.77,5.77,0,0,1-.45.59l-.09.1a1.47,1.47,0,0,0-.1.13,1,1,0,0,0-.06.16.44.44,0,0,0,0,.2l0,.24a.19.19,0,0,0,.07.12.2.2,0,0,0,.11,0h0a.19.19,0,0,0,.12-.07.28.28,0,0,0,0-.13s0-.06,0-.09a.46.46,0,0,1,.38-.07l.17.08a.88.88,0,0,0,.2.09.62.62,0,0,0,.28,0,.47.47,0,0,0,.38-.27,1,1,0,0,0,.06-.56A.2.2,0,0,0,62,97.79Z"/><path class="cls-1" d="M65,95.49a1.66,1.66,0,0,0-.36-.47,1,1,0,0,0-.43-.23.86.86,0,0,0-.42,0,1,1,0,0,0-.37.18,1,1,0,0,0-.29.39,1.84,1.84,0,0,0-.13.58,3,3,0,0,0,.07.8,2.82,2.82,0,0,0,.27.75,1.88,1.88,0,0,0,.36.48,1,1,0,0,0,.43.23,1,1,0,0,0,.24,0,.41.41,0,0,0,.16,0A1,1,0,0,0,65,98a1.32,1.32,0,0,0,.29-.39,1.84,1.84,0,0,0,.13-.59,2.58,2.58,0,0,0-.08-.79A2.7,2.7,0,0,0,65,95.49Zm-.23,2.08c0,.3-.18.37-.29.39s-.25,0-.4-.24a6,6,0,0,1-.51-2.31c0-.3.17-.37.27-.39H64a.4.4,0,0,1,.34.25,4.21,4.21,0,0,1,.37,1.13A4.57,4.57,0,0,1,64.81,97.57Z"/><path class="cls-1" d="M68.15,94.58a1.76,1.76,0,0,0-.41-.44,1.12,1.12,0,0,0-.45-.2,1,1,0,0,0-.42,0,1,1,0,0,0-.35.21,1.13,1.13,0,0,0-.25.41,1.82,1.82,0,0,0-.08.6,2.69,2.69,0,0,0,.14.78,2.62,2.62,0,0,0,.33.73,1.65,1.65,0,0,0,.41.45,1,1,0,0,0,.44.19l.16,0a.86.86,0,0,0,.24,0,.89.89,0,0,0,.37-.22,1,1,0,0,0,.25-.41,1.8,1.8,0,0,0,.09-.6,3.21,3.21,0,0,0-.15-.78A3,3,0,0,0,68.15,94.58Zm-.31,2.5h0c-.1,0-.25,0-.42-.2a4.44,4.44,0,0,1-.47-1.1,4.16,4.16,0,0,1-.24-1.16c0-.31.14-.38.24-.41l.1,0a.4.4,0,0,1,.34.22,4.39,4.39,0,0,1,.46,1.09,4.3,4.3,0,0,1,.24,1.16C68.09,97,68,97.05,67.84,97.08Z"/><path class="cls-1" d="M71.76,94.87a2.94,2.94,0,0,0-.22-.77,2.68,2.68,0,0,0-.38-.7,1.86,1.86,0,0,0-.45-.41,1,1,0,0,0-.46-.15,1,1,0,0,0-.42.06h0a.9.9,0,0,0-.32.25.93.93,0,0,0-.22.43,1.91,1.91,0,0,0,0,.6,2.71,2.71,0,0,0,.21.77,2.86,2.86,0,0,0,.39.7,1.79,1.79,0,0,0,.44.4,1.1,1.1,0,0,0,.46.16h.08a.83.83,0,0,0,.32-.06.91.91,0,0,0,.35-.25,1,1,0,0,0,.21-.43A1.64,1.64,0,0,0,71.76,94.87Zm-.69,1c-.1,0-.25.06-.44-.17a4.19,4.19,0,0,1-.56-1,4.61,4.61,0,0,1-.34-1.14c0-.3.1-.39.2-.43a.5.5,0,0,1,.13,0,.46.46,0,0,1,.33.2,4.13,4.13,0,0,1,.55,1,4.31,4.31,0,0,1,.34,1.14C71.31,95.79,71.17,95.88,71.07,95.92Z"/><circle class="cls-2" cx="56.7" cy="55.12" r="46.21"/><circle class="cls-3" cx="56.7" cy="55.12" r="36.31"/></svg>