<svg id="Layer_1" data-name="Layer 1" xmlns="http://www.w3.org/2000/svg" viewBox="0 0 69 31"><defs><style>.cls-1{fill:#fff;}</style></defs><title>JensenBlikk</title><path class="cls-1" d="M14.14,4.78a.37.37,0,0,1,.12.27.4.4,0,0,1-.11.26.39.39,0,0,1-.31.12.33.33,0,0,0-.32.23,2.22,2.22,0,0,0-.14.59,6.06,6.06,0,0,0,0,.75v9a6,6,0,0,1-.45,2.48A4,4,0,0,1,11.75,20a4.12,4.12,0,0,1-1.56.79A7,7,0,0,1,8.51,21a7.45,7.45,0,0,1-2.1-.29,5.12,5.12,0,0,1-1.67-.83,3.69,3.69,0,0,1-1.11-1.31,3.75,3.75,0,0,1-.39-1.72,2.13,2.13,0,0,1,.28-1.09,2,2,0,0,1,.7-.74,1.74,1.74,0,0,1,2,.08,1.65,1.65,0,0,1,.52.65,1.75,1.75,0,0,1,.13.81A1.77,1.77,0,0,1,5.78,18a.77.77,0,0,0-.51.64,1.2,1.2,0,0,0,.34.87,3.25,3.25,0,0,0,1.12.74,4.5,4.5,0,0,0,1.78.32A1.91,1.91,0,0,0,10,20a2.84,2.84,0,0,0,.65-1.28,6.55,6.55,0,0,0,.16-1.54c0-.52,0-.94,0-1.26V7a4.56,4.56,0,0,0-.06-.75,2.2,2.2,0,0,0-.15-.59.33.33,0,0,0-.32-.23A.39.39,0,0,1,10,5.31a.4.4,0,0,1-.11-.26A.4.4,0,0,1,10,4.78a.38.38,0,0,1,.31-.11h3.57A.4.4,0,0,1,14.14,4.78Zm25.69,9.84c.47.21,1,.39,1.49.6a8.71,8.71,0,0,1,1.33.72,4.19,4.19,0,0,1,1,1A2,2,0,0,1,44,18.17a2.77,2.77,0,0,1-.37,1.46,2.83,2.83,0,0,1-.9.92,3.46,3.46,0,0,1-1.19.48,6.93,6.93,0,0,1-1.22.16,5,5,0,0,1-1.16-.12,4.3,4.3,0,0,1-1.21-.45,3.1,3.1,0,0,1-.95-.81,1.88,1.88,0,0,1-.37-1.17,2.1,2.1,0,0,1,.15-.82,1.82,1.82,0,0,1,.41-.61,1.12,1.12,0,0,1,.56-.29,1,1,0,0,1,.62.09.9.9,0,0,1,.44.39,1,1,0,0,1,.13.5,1.19,1.19,0,0,1-.13.54,2,2,0,0,1-.33.51.66.66,0,0,0-.2.63,1,1,0,0,0,.37.56,3,3,0,0,0,.79.37,2.34,2.34,0,0,0,.88.09,2.17,2.17,0,0,0,1.32-.38,1.69,1.69,0,0,0,.68-.95,1.59,1.59,0,0,0-.22-1.17,2.75,2.75,0,0,0-1.29-1l-1.16-.5a7.3,7.3,0,0,1-1.28-.71,4.59,4.59,0,0,1-1-1,2.15,2.15,0,0,1-.44-1.38,3.18,3.18,0,0,1,.84-2.29,3.62,3.62,0,0,1,2.6-.94,3.79,3.79,0,0,1,1.44.19,3.38,3.38,0,0,1,1,.56,2.31,2.31,0,0,1,.63.78,1.85,1.85,0,0,1,.21.82,2.7,2.7,0,0,1-.14.92,1.36,1.36,0,0,1-.36.56,1,1,0,0,1-.48.26.78.78,0,0,1-.5-.05,1,1,0,0,1-.65-.79,1.43,1.43,0,0,1,.44-1.19,1.21,1.21,0,0,0,.31-.59.69.69,0,0,0-.15-.53,1.26,1.26,0,0,0-.61-.35,3.25,3.25,0,0,0-1.16-.12,2.13,2.13,0,0,0-1.52.64,1.39,1.39,0,0,0-.4,1,2.56,2.56,0,0,0,.35,1.34A2.26,2.26,0,0,0,39.83,14.62ZM23.75,17.89a4.25,4.25,0,0,1-1.53,1.91c-.86.44-3.12,1-3.81-.94a10.83,10.83,0,0,1-.4-3.41c0-3.49,1.4-4.73,2.26-4.72,1,0,1.51.8,1.49,2.36,0,2.59-1.09,2.51-2.24,2.74a9.42,9.42,0,0,1-.95.12.25.25,0,0,0-.19.25.26.26,0,0,0,.25.26h0a10.28,10.28,0,0,0,3.61-.62A2.68,2.68,0,0,0,24,13.15c0-1.76-1.28-2.81-3.73-2.85a5.15,5.15,0,0,0-5,5.19c0,3.59,1.89,5.43,4.77,5.48s3.9-1.87,4-2.58S23.84,17.67,23.75,17.89Zm30,0A4.25,4.25,0,0,1,52.2,19.8c-.85.44-3.12,1-3.81-.94A10.56,10.56,0,0,1,48,15.45c0-3.49,1.39-4.73,2.25-4.72s1.52.8,1.49,2.36c0,2.59-1.09,2.51-2.24,2.74a9.42,9.42,0,0,1-1,.12.24.24,0,0,0-.18.25.25.25,0,0,0,.24.26h0a10.28,10.28,0,0,0,3.61-.62A2.7,2.7,0,0,0,54,13.15c0-1.76-1.29-2.81-3.74-2.85a5.15,5.15,0,0,0-5,5.19c0,3.59,1.89,5.43,4.77,5.48s3.91-1.87,4-2.58S53.82,17.67,53.73,17.89Zm-18.6,2.32c-.34-.12-.52-.43-.52-1.9l0-5.32a7.73,7.73,0,0,0-.06-1,2.22,2.22,0,0,0-.32-.88,1.85,1.85,0,0,0-.71-.64,2.3,2.3,0,0,0-1.18-.25,3.7,3.7,0,0,0-1.29.25A4.07,4.07,0,0,0,30,11a5.42,5.42,0,0,0-.74.64,5.47,5.47,0,0,0-.46.57V11.08c0-.4-.07-.58-.29-.55a5,5,0,0,0-2.32.89,1.83,1.83,0,0,0-.55.48.24.24,0,0,0,0,.23.85.85,0,0,0,.34.24,1.06,1.06,0,0,1,.42.42.57.57,0,0,1,.08.29l0,5.26c0,1.46-.18,1.74-.52,1.86-.17.06-.41.12-.41.31s.16.32.37.32h3.33c.22,0,.37-.07.37-.31s-.24-.26-.4-.31c-.34-.12-.51-.38-.51-1.84l0-5.45c.09-.14.2-.3.33-.47a2.56,2.56,0,0,1,.49-.5,2.32,2.32,0,0,1,.67-.39,2.14,2.14,0,0,1,.87-.16,1.21,1.21,0,0,1,.64.11.81.81,0,0,1,.35.36,1.59,1.59,0,0,1,.13.51,6.08,6.08,0,0,1,0,.61l.08,5.35c0,1.47-.2,1.75-.54,1.87-.16.05-.4.12-.4.31s.15.31.37.31h3.33c.22,0,.37-.07.37-.31S35.29,20.26,35.13,20.21Zm29.73,0c-.34-.12-.53-.43-.53-1.9V13a6.2,6.2,0,0,0-.07-1,2.06,2.06,0,0,0-.31-.88,1.92,1.92,0,0,0-.71-.64A2.34,2.34,0,0,0,62,10.26a3.64,3.64,0,0,0-1.28.25,4,4,0,0,0-1,.52,6,6,0,0,0-.73.64,4.41,4.41,0,0,0-.46.57V11.08c0-.4-.08-.58-.29-.55a4.94,4.94,0,0,0-2.32.89,2,2,0,0,0-.56.48.27.27,0,0,0,0,.23.89.89,0,0,0,.35.24,1.3,1.3,0,0,1,.23.18,1.55,1.55,0,0,1,.19.24.57.57,0,0,1,.07.29l0,5.26c0,1.46-.18,1.74-.52,1.86-.16.06-.4.12-.4.31s.15.32.37.32h3.33c.22,0,.37-.07.37-.31s-.24-.26-.4-.31c-.34-.12-.51-.38-.51-1.84l0-5.45c.09-.14.2-.3.33-.47a2.81,2.81,0,0,1,.48-.5,2.62,2.62,0,0,1,.67-.39,2.23,2.23,0,0,1,.88-.16,1.15,1.15,0,0,1,.63.11.78.78,0,0,1,.36.36,1.59,1.59,0,0,1,.13.51c0,.2,0,.4,0,.61l.09,5.35c0,1.47-.2,1.75-.54,1.87-.16.05-.4.12-.4.31s.15.31.37.31h3.33c.22,0,.37-.07.37-.31S65,20.26,64.86,20.21Z"/><path class="cls-1" d="M25.14,25.88a1.13,1.13,0,0,1,.34.81,1.16,1.16,0,0,1-1.16,1.16H23v-4h1.28a1.16,1.16,0,0,1,.82,2Zm-1.41-.35h.59a.47.47,0,0,0,.47-.47.46.46,0,0,0-.47-.46h-.59Zm1.06,1.16a.47.47,0,0,0-.47-.47h-.59v.94h.59A.47.47,0,0,0,24.79,26.69Z"/><path class="cls-1" d="M31.09,27.16v.69H29v-4h.7v3.26Z"/><path class="cls-1" d="M34.57,27.85v-4h.69v4Z"/><path class="cls-1" d="M40.59,27.85l-.91-1.5-.2.31v1.19h-.7v-4h.7v1.51l1-1.51h.82L40.1,25.7l1.3,2.15Z"/><path class="cls-1" d="M46.62,27.85l-.91-1.5-.2.31v1.19h-.69v-4h.69v1.51l1-1.51h.83l-1.18,1.8,1.3,2.15Z"/></svg>