<svg id="Layer_1" data-name="Layer 1" xmlns="http://www.w3.org/2000/svg" viewBox="0 0 105 89"><defs><style>.cls-1{fill:#fff;}</style></defs><title>JensenBlikk</title><path class="cls-1" d="M14.35,75.13c0-.12-.08-.23-.11-.34a40.58,40.58,0,0,1-2-12.56c0-1.21.12-2.41.15-3.62a.84.84,0,0,1,.62-.89c2.49-1,5-2,7.44-3,.52-.21.52-.21.34-.75l0-.09c-.2-.6-.2-.6-.8-.37L6.54,58.65c-.32.12-.64.26-1,.37s-.32.24-.22.48l.08.21a48.2,48.2,0,0,0,2.35,5.66,50.21,50.21,0,0,0,6.08,9.49q.14.17.3.33a.12.12,0,0,0,.11,0S14.33,75.17,14.35,75.13Zm77,.17a.72.72,0,0,0,.2-.17c.22-.26.45-.52.66-.79a49.9,49.9,0,0,0,7.9-14.3c.27-.77.31-.67-.45-1L88,54.64l-2.76-1c-.32-.12-.35-.1-.46.21s-.14.43-.22.64a.24.24,0,0,0,.14.33l.33.14c2.57,1,5.13,2.07,7.7,3.08a.73.73,0,0,1,.53.72,43.21,43.21,0,0,1-.1,7.88,39,39,0,0,1-1.74,8.13c0,.13-.08.26-.11.39S91.32,75.21,91.33,75.3ZM14.06,63.93h0c.1,1,.18,2.05.3,3.07A37.7,37.7,0,0,0,17,77.1l.09.2c.07.13.16.17.29.09l.22-.16L21.55,74c.38-.32.38-.33,0-.69a42.78,42.78,0,0,1-7.22-10,1.09,1.09,0,0,0-.14-.23s-.08-.07-.1-.06a.14.14,0,0,0-.07.1Zm77.53-.26c0-.17,0-.38,0-.59a.56.56,0,0,0,0-.12s-.12,0-.15.07a2.34,2.34,0,0,0-.15.27c-.39.69-.76,1.39-1.16,2.08a43.2,43.2,0,0,1-6,7.86c-.3.32-.31.35,0,.6l4.06,3.31c.31.25.36.24.5-.12.37-1,.75-1.93,1.07-2.9A38.2,38.2,0,0,0,91.59,63.67ZM29.06,43.26A23.73,23.73,0,1,1,52.74,67,23.76,23.76,0,0,1,29.06,43.26Zm1.77,0A22,22,0,1,0,52.9,21.31,22,22,0,0,0,30.83,43.26Zm-5.35,17ZM78.85,31.05v.06c-1,0-2,0-3,0a.68.68,0,0,1-.67-.39,24.08,24.08,0,0,0-3.64-4.93.69.69,0,0,1-.17-.83c.71-1.79,1.4-3.6,2.09-5.4.17-.45.18-.48-.18-.76C72.15,18,71,17.16,69.9,16.36c-.47-.34-.49-.32-1,0-1.52,1.14-3,2.27-4.55,3.42a.86.86,0,0,1-1,.14,23.23,23.23,0,0,0-5.63-1.79.69.69,0,0,1-.63-.57c-.5-1.89-1-3.77-1.54-5.66-.13-.46-.13-.5-.59-.51-1.4,0-2.8,0-4.21,0-.55,0-.55,0-.71.54-.57,1.89-1.15,3.78-1.7,5.67a.74.74,0,0,1-.66.6A23.85,23.85,0,0,0,42,20.13a.62.62,0,0,1-.76-.08c-1.55-1.27-3.12-2.51-4.68-3.76-.41-.33-.43-.35-.85,0q-1.7,1.21-3.36,2.46c-.41.31-.4.33-.23.83.66,1.89,1.31,3.78,2,5.66a.78.78,0,0,1-.18.92,23.5,23.5,0,0,0-3.41,4.76.63.63,0,0,1-.69.36c-2.06-.12-4.12-.21-6.17-.32a.49.49,0,0,0-.54.37c-.2.58-.43,1.14-.62,1.72-.26.82-.49,1.64-.71,2.46-.11.4-.09.43.25.66l1.69,1.18c1.17.81,2.33,1.63,3.5,2.43a.5.5,0,0,1,.24.56c0,.3-.06.6-.09.9a24.68,24.68,0,0,0,.09,5,.71.71,0,0,1-.36.8c-1.71,1.1-3.41,2.23-5.1,3.35-.36.24-.37.25-.26.65.22.78.44,1.55.68,2.32.17.53.18.53.68.33l3.95-1.59,1.25-.5c.24-.11.37,0,.43.2l.06.17a25.48,25.48,0,0,0,8.83,11.88,25.56,25.56,0,0,0,38.18-9.25c.4-.81.72-1.65,1.07-2.47.16-.37.17-.38.55-.23l1.38.55,3.62,1.45c.33.14.39.13.49-.21.27-.87.51-1.75.78-2.62a.39.39,0,0,0-.2-.52,2.4,2.4,0,0,1-.26-.18c-1.55-1.1-3.1-2.2-4.65-3.28a.67.67,0,0,1-.32-.75,23.41,23.41,0,0,0,0-6c-.06-.48,0-.78.45-1a1.89,1.89,0,0,0,.3-.19l4.41-2.85c.38-.25.38-.25.28-.69a33.74,33.74,0,0,0-1.34-4.17.48.48,0,0,0-.54-.35Zm1-1.72v-.08c1,0,2,0,3,0a.7.7,0,0,1,.77.51,35.54,35.54,0,0,1,2.1,6.61c.1.48.1.48-.31.75-1.64,1.06-3.29,2.13-4.94,3.18a.62.62,0,0,0-.34.65,15.22,15.22,0,0,1,.1,1.79c0,1,0,1.94-.09,2.91a.51.51,0,0,0,.22.49c.51.34,1,.7,1.51,1q1.77,1.26,3.55,2.51a.56.56,0,0,1,.27.68c-.09.31-.16.64-.23,1s-.08.41.3.56l2.59,1c.64.24.64.24.8-.42a38,38,0,0,0,.38-16.7A37.67,37.67,0,0,0,69.94,9.92a37.34,37.34,0,0,0-37.09,1.59A37.53,37.53,0,0,0,15.26,43.16a35,35,0,0,0,.53,6.38c.18,1,.41,2,.64,3,.08.38.14.4.49.27.92-.34,1.84-.7,2.76-1,.38-.15.38-.16.29-.57s-.14-.7-.24-1.05a.41.41,0,0,1,.23-.55l.26-.17,5.1-3.33a.59.59,0,0,0,.32-.58c0-1.42,0-2.84,0-4.26a.68.68,0,0,0-.34-.69c-1.7-1.17-3.38-2.36-5.08-3.53-.34-.23-.53-.46-.36-.88a2.56,2.56,0,0,0,.1-.48,33.45,33.45,0,0,1,2-6.16c.1-.22.16-.42.49-.4,1.27.08,2.54.14,3.81.2l2.64.12a.56.56,0,0,0,.59-.3,25.78,25.78,0,0,1,2.54-3.52.56.56,0,0,0,.11-.64c-.69-2-1.36-3.92-2.06-5.88a.75.75,0,0,1,.22-.94A36.73,36.73,0,0,1,36,14c.37-.21.38-.22.74.07,1.56,1.25,3.13,2.5,4.67,3.77a.93.93,0,0,0,1.08.15c1.25-.45,2.51-.87,3.78-1.25a.9.9,0,0,0,.71-.69c.57-1.93,1.16-3.86,1.75-5.79.14-.47.14-.47.6-.51l1.39-.11a32.21,32.21,0,0,1,5.64.09c.49.05.48.07.61.54.52,1.93,1.05,3.86,1.57,5.8a.66.66,0,0,0,.55.55A22.7,22.7,0,0,1,63.23,18a.63.63,0,0,0,.78-.09,2.92,2.92,0,0,1,.28-.21L69,14.16a.5.5,0,0,1,.64-.08,35.65,35.65,0,0,1,5.78,4.22c.35.31.35.33.18.76-.71,1.83-1.41,3.66-2.13,5.48a.73.73,0,0,0,.14.88,23.13,23.13,0,0,1,2.58,3.49.74.74,0,0,0,.75.43C77.88,29.31,78.87,29.33,79.86,29.33Zm-26-25.4a5.62,5.62,0,0,0,.57.09,38.63,38.63,0,0,1,18,5.24,39.13,39.13,0,0,1,15.27,16,39.37,39.37,0,0,1,4.39,18.61,39.54,39.54,0,0,1-1.26,9.31s0,0,0,0c-.15.54-.15.54.37.74l10.47,4c.2.07.39.16.59.22s.29.21.21.45c-.26.74-.49,1.5-.76,2.25a51.22,51.22,0,0,1-9.28,16c-.91,1.07-1.89,2.08-2.85,3.1-.33.36-.34.35-.72,0L83.1,75.32l-.21-.17c-.38-.31-.38-.31-.74,0l-1.14,1a42.64,42.64,0,0,1-20,9.67,42,42,0,0,1-10.26.73A42.7,42.7,0,0,1,25.64,77c-.69-.56-1.35-1.14-2-1.73-.42-.37-.38-.41-.87,0L17,80c-.51.42-.42.45-.92-.05A51.48,51.48,0,0,1,3.33,59c-.07-.2-.12-.4-.19-.6a.28.28,0,0,1,.2-.41l1-.39,10-3.8.25-.1c.23-.08.28-.22.22-.45-.18-.74-.36-1.48-.51-2.23a39.37,39.37,0,0,1,3.19-24.93,38.51,38.51,0,0,1,6.68-9.66,39.16,39.16,0,0,1,15-10A37.92,37.92,0,0,1,48.73,4.2c.83-.08,1.67-.12,2.5-.18.18,0,.35-.06.53-.09ZM53,84.85l2.25-.1a37.53,37.53,0,0,0,6.25-.82A40.84,40.84,0,0,0,77,77.1a41.77,41.77,0,0,0,11.24-12A40.73,40.73,0,0,0,91,59.74c.18-.43.17-.44-.26-.62l-.16-.07-12-4.83c-.48-.2-.49-.19-.7.27a27.28,27.28,0,0,1-9,11A26.92,26.92,0,0,1,54.46,70.6a26.57,26.57,0,0,1-6.6-.42,27.43,27.43,0,0,1-20.06-16c-.17-.38-.18-.38-.57-.24l-.33.13L19.62,57l-4.77,1.93c-.45.18-.45.18-.27.61s.37.88.58,1.31A41.6,41.6,0,0,0,53,84.85ZM25.48,60.24h0c0,.06,0,.12-.05.17-.55,1.41-1.11,2.81-1.66,4.21-.07.19-.14.37-.2.55s0,.23.18.22h.31L28.3,65a4.26,4.26,0,0,1,.62,0,5.25,5.25,0,0,1-.42.4L23.75,69c-.27.2-.28.24-.09.5s.42.58.64.87.31.4.71.11l3.13-2.32L32,65.25c.34-.25.34-.29.08-.64s-.54-.68-.77-1a.78.78,0,0,0-.87-.37c-1,.13-2,.23-2.94.33-.44,0-.89.09-1.34.12-.26,0-.29,0-.19-.29s.23-.55.35-.82c.46-1.09.92-2.18,1.37-3.27.08-.18.16-.35,0-.54l-1.07-1.44a.24.24,0,0,0-.38-.05l-.22.16-5.15,3.82c-.63.47-1.27.95-1.91,1.41-.19.14-.24.28-.08.48s.52.69.78,1a.21.21,0,0,0,.34.06l.26-.18L25,60.52C25.17,60.42,25.33,60.34,25.48,60.24ZM41.7,70.92a1.63,1.63,0,0,0-.29-.23L35.8,67.5c-.34-.19-.37-.18-.56.15l-4.38,7.72c-.19.34-.18.36.15.55l2.54,1.44,3.12,1.77c.33.19.37.17.56-.14s.26-.44.38-.67c.22-.4.22-.41-.19-.65l-.23-.13-3.67-2.08c-.35-.2-.36-.24-.17-.59l.84-1.48c.18-.31.2-.32.53-.14l1.4.8,2.14,1.21c.15.08.3.19.43,0s.35-.59.5-.9a.3.3,0,0,0-.08-.26,1.1,1.1,0,0,0-.3-.19L35.54,72c-.44-.25-.44-.25-.18-.7s.5-.89.76-1.33.19-.33.51-.15.76.42,1.13.63l2.85,1.62c.31.17.34.16.53-.15l.42-.74C41.6,71.14,41.64,71.05,41.7,70.92ZM77.37,74a1.19,1.19,0,0,1,0-.14c-.23-.35-.46-.7-.7-1a.34.34,0,0,0-.27,0,1.39,1.39,0,0,0-.31.18c-1.24.81-2.47,1.63-3.71,2.43-.3.2-.33.19-.53-.1-.33-.48-.65-1-1-1.46-.19-.3-.19-.33.12-.53l3-2c.68-.44.69-.43.26-1.09s-.36-.59-.94-.21l-3.12,2c-.35.23-.37.23-.59-.11s-.58-.87-.86-1.31-.25-.39.12-.63l1.5-1,2.24-1.48c.33-.22.33-.23.12-.57s-.28-.42-.42-.63-.28-.37-.64-.13L66.4,69.69c-.4.26-.4.27-.14.66q2.38,3.66,4.79,7.3c.26.4.27.4.66.14l3.94-2.58,1.49-1A2.4,2.4,0,0,0,77.37,74ZM48.12,82.33h.36a2.84,2.84,0,0,0,2.9-2.62,2,2,0,0,0-.53-1.78,6,6,0,0,0-1.21-.9c-.6-.32-1.26-.55-1.88-.84a3.53,3.53,0,0,1-.87-.54,1,1,0,0,1,.36-1.74,1.64,1.64,0,0,1,.79-.07,6.9,6.9,0,0,1,1.36.41,6.1,6.1,0,0,1,1,.64.32.32,0,0,0,.5,0c.2-.24.42-.47.62-.7s.24-.3,0-.55l-.28-.22a6.19,6.19,0,0,0-3.93-1.13,2.81,2.81,0,0,0-2.77,2.7,2.08,2.08,0,0,0,.87,2,8.09,8.09,0,0,0,1.3.77c.49.25,1,.43,1.52.67a3.72,3.72,0,0,1,.85.57,1,1,0,0,1,.15,1.26,1.21,1.21,0,0,1-1,.54,3.75,3.75,0,0,1-1.86-.41A10.73,10.73,0,0,1,45,79.48c-.37-.26-.35-.28-.7,0l-.52.49c-.32.32-.33.35,0,.67A6.6,6.6,0,0,0,48.12,82.33ZM83.31,64l2.29.1a.64.64,0,0,0,.63-.32c.23-.37.49-.72.73-1.08s.21-.4-.23-.42l-.58,0-2.51-.07c-.48,0-.48,0-.41-.49A3.14,3.14,0,0,0,77.88,59a7.2,7.2,0,0,0-.71.86C76.42,60.91,75.69,62,75,63.06c-.26.38-.26.39.13.66l3.84,2.65,3.39,2.34c.33.23.33.23.56-.09s.45-.63.67-1,.19-.34-.1-.54c-.56-.4-1.13-.78-1.69-1.17s-.61-.41-.21-1l.09-.15c.71-1,.41-.79,1.5-.79ZM61.92,81.27c0-.16-.05-.25-.07-.33-.32-1.54-.64-3.07-1-4.6-.15-.72-.31-1.43-.46-2.15-.11-.54-.11-.54.46-.66h0l1.84-.39c.5-.11.5-.12.4-.63L63,71.93c-.13-.6-.13-.6-.74-.47-1.37.3-2.74.58-4.11.87l-2.67.58c-.38.08-.4.12-.33.48s.11.56.17.84.14.44.55.35l1.92-.41c.57-.12.57-.12.7.47.28,1.31.55,2.62.83,3.94.2,1,.41,1.92.61,2.89,0,.18.07.37.33.32.47-.09.94-.18,1.4-.3C61.8,81.46,61.87,81.33,61.92,81.27ZM80,60a1.64,1.64,0,0,1,1.49,2.35,8.54,8.54,0,0,1-.73,1.18c-.19.3-.42.58-.61.88s-.27.28-.5.11c-.73-.52-1.47-1-2.21-1.53a.3.3,0,0,1-.09-.49c.43-.59.83-1.21,1.27-1.79A1.65,1.65,0,0,1,80,60ZM54.68,39.16v7.13c0,.12,0,.24,0,.36s-.09.29-.3.29H51c-.23,0-.33-.1-.33-.32V32.06c0-.77,0-.71-.7-.72H47.65c-.4,0-.43,0-.44-.44V26.47c0-.43,0-.45.47-.46h2.46c.45,0,.45,0,.49-.43s0-.37.41-.37c1,0,1.92,0,2.87,0a1,1,0,0,1,.53.19q2,1.63,3.9,3.3a.71.71,0,0,1,.21.46c0,.58,0,1.16,0,1.74,0,.41,0,.44-.44.44H55c-.2,0-.31.08-.31.29v7.52Zm-1.4-1.38V30.7c0-.14,0-.27,0-.41s.1-.35.35-.34.69,0,1,0h2.11c.12,0,.33-.08.33-.13a.89.89,0,0,0-.13-.43c0-.07-.13-.12-.2-.18l-2.26-1.91a2,2,0,0,0-2.05-.69h0c-.27,0-.37.11-.39.37,0,.43-.06.43-.5.43H49c-.36,0-.41.05-.42.42,0,.55,0,1.11,0,1.66s0,.45.47.46h2.25c.71,0,.71,0,.71.71v14a4.87,4.87,0,0,0,0,.54c0,.29.09.31.66.31s.53,0,.57-.32c0-.13,0-.27,0-.4ZM43,50.05v7.17c0,.6,0,.61-.59.61H39.58c-.53,0-.55,0-.55-.56V43.1c0-.88.12-.86-.84-.86H36.08c-.41,0-.47-.06-.47-.47,0-1.47,0-2.93,0-4.4,0-.39,0-.43.45-.43h2.46c.46,0,.47,0,.51-.47,0-.25.12-.34.36-.34,1,0,2,0,3,0a.93.93,0,0,1,.52.22l3.77,3.17a.7.7,0,0,1,.28.58c0,.57,0,1.13,0,1.7,0,.41,0,.43-.43.43H43.74l-.45,0a.23.23,0,0,0-.24.25c0,.14,0,.27,0,.41Zm-1.4-1.42V41.45c0-.58,0-.58.6-.59h1.62c.45,0,.9,0,1.34,0,.11,0,.27-.07.29-.14a.64.64,0,0,0-.08-.37.67.67,0,0,0-.2-.17L43,38.26a2.06,2.06,0,0,0-2.08-.73h0c-.35,0-.36,0-.4.38s0,.42-.45.42H37.42c-.4,0-.43,0-.44.43s0,1,0,1.57,0,.52.51.52h2.24c.7,0,.7,0,.7.68V55.66c0,.85-.13.78.85.79.27,0,.38-.12.37-.38s0-.27,0-.41ZM62.56,50V43c0-.12,0-.24,0-.35,0-.37,0-.42-.41-.42h-2.6c-.35,0-.39,0-.4-.38s0-.42,0-.63V37.4c0-.44,0-.46.46-.46h2.46c.45,0,.47,0,.5-.47,0-.26.13-.34.37-.34h3a1,1,0,0,1,.48.2l3.8,3.21a.72.72,0,0,1,.29.61c0,.54,0,1.08,0,1.62s0,.45-.47.46H67.14c-.57,0-.57,0-.57.58V56c0,.46,0,.92,0,1.39s-.06.44-.45.44h-3c-.49,0-.51,0-.51-.51C62.55,54.88,62.56,52.45,62.56,50ZM64,48.67v7.22c0,.53,0,.55.55.57.7,0,.7,0,.7-.69V41.38c0-.47,0-.51.52-.51h2.33c.24,0,.48,0,.71,0a.36.36,0,0,0,.28-.16c0-.08,0-.22-.07-.32a.61.61,0,0,0-.16-.16c-1-.83-2-1.66-3-2.48a.82.82,0,0,0-.48-.19c-.35,0-.71,0-1.07,0s-.34.09-.36.34c0,.46-.06.46-.54.46H60.94c-.38,0-.4,0-.41.41,0,.54,0,1.08,0,1.62s0,.49.48.49h2.28c.65,0,.66,0,.66.64Z"/></svg>