<svg id="Layer_1" data-name="Layer 1" xmlns="http://www.w3.org/2000/svg" viewBox="0 0 74 80"><defs><style>.cls-1{fill:#fff;}</style></defs><title>JensenBlikk</title><path class="cls-1" d="M22,72.12a5.38,5.38,0,0,1-3.72,5.1,5.24,5.24,0,0,1-6.59-5,5.28,5.28,0,0,1,3.51-5.11,5,5,0,0,1,5.95,2.12A4.76,4.76,0,0,1,22,72.12ZM17,74.7a3.44,3.44,0,0,0,.7-.17A2.69,2.69,0,0,0,19,71.14a2.3,2.3,0,0,0-3.44-1.21,2.74,2.74,0,0,0-.83,3.38A2.34,2.34,0,0,0,17,74.7Z"/><path class="cls-1" d="M23.19,72.06V67.63c0-.56,0-.59.6-.59,1.07,0,2.15,0,3.22,0a4.84,4.84,0,0,1,2.75.84,4.16,4.16,0,0,1,1.72,2.66,8.6,8.6,0,0,1,.2,2,4.87,4.87,0,0,1-1.19,3.08,4.11,4.11,0,0,1-3,1.47c-1.26.06-2.51,0-3.77,0-.45,0-.49,0-.49-.53Zm2.56,0c0,.68,0,1.36,0,2,0,.22,0,.51.28.51a3.64,3.64,0,0,0,1.36-.11A2.36,2.36,0,0,0,29,72.07a2.42,2.42,0,0,0-2.69-2.52c-.42,0-.52.11-.52.53C25.75,70.75,25.76,71.41,25.75,72.08Z"/><path class="cls-1" d="M38.44,58.15V53.77c0-.59,0-.63.63-.63l3.94,0a3,3,0,0,1,1.87.69,2.76,2.76,0,0,1,.95,1.62,4.24,4.24,0,0,1,0,1.91,3.19,3.19,0,0,1-1.39,2c-.41.29-.43.31-.12.71l2.11,2.67.13.18c.12.18.11.34-.14.34-.83,0-1.66,0-2.49,0a.86.86,0,0,1-.5-.38c-.58-.8-1.13-1.62-1.7-2.43a.89.89,0,0,0-.16-.22.41.41,0,0,0-.3-.09.34.34,0,0,0-.14.26c0,.44,0,.88,0,1.33v.83c0,.7,0,.73-.7.73H39.12c-.59,0-.68-.09-.68-.67Zm2.71-1.39h0v.66c0,.95.16,1.09,1.09.94l.22-.06c.83-.17,1-.8,1.2-1.47a1.49,1.49,0,0,0-.85-1.47,5.07,5.07,0,0,0-1.24-.14c-.32,0-.43.14-.42.44S41.15,56.39,41.15,56.76Z"/><path class="cls-1" d="M33.11,72.09V67.71c0-.61.07-.67.67-.67s1,0,1.49,0,.55.07.55.55c0,.88,0,1.77,0,2.65a1.66,1.66,0,0,0,.14.43,1.79,1.79,0,0,0,.36-.3c.53-.94,1.07-1.88,1.57-2.84a.8.8,0,0,1,.82-.5c.68,0,1.37,0,2.05,0,.38,0,.43.1.23.43-.76,1.26-1.53,2.53-2.31,3.79a.77.77,0,0,0,0,.9c.88,1.48,1.75,3,2.61,4.45.26.46.22.53-.3.54s-1.25,0-1.88,0a.81.81,0,0,1-.84-.47c-.62-1.14-1.27-2.27-1.91-3.4a.61.61,0,0,0-.09-.2,4,4,0,0,0-.33-.24,1.16,1.16,0,0,0-.12.34c0,.72,0,1.45,0,2.17,0,.46,0,.92,0,1.38,0,.28-.13.41-.4.41-.63,0-1.26,0-1.89,0-.42,0-.43-.3-.43-.62Z"/><path class="cls-1" d="M10.64,74.15c0,.72,0,1.44,0,2.16a.59.59,0,0,1-.42.63,6.38,6.38,0,0,1-6.17-.6,4.69,4.69,0,0,1-1.72-2.49,6.33,6.33,0,0,1-.17-2.63,4.52,4.52,0,0,1,1.16-2.51,4.88,4.88,0,0,1,2.28-1.56A5,5,0,0,1,8.75,67c.35.11.71.17,1.06.27s.57.29.58.75,0,1,0,1.55-.1.5-.46.27a4,4,0,0,0-2.78-.46,2.59,2.59,0,0,0-2,1.53,3.05,3.05,0,0,0,.12,3,2.64,2.64,0,0,0,2.64,1.22.52.52,0,0,0,.49-.51c0-.17,0-.33,0-.5,0-.81,0-.82-.82-.86-.28,0-.41-.12-.4-.4s0-.67,0-1,.12-.41.4-.41h2.6c.35,0,.44.2.44.5C10.64,72.67,10.64,73.41,10.64,74.15Z"/><path class="cls-1" d="M56,72c0-1.49,0-3,0-4.49a2.42,2.42,0,0,1,.1-.45,1.42,1.42,0,0,1,.46.23c1.33,1.27,2.65,2.56,4,3.84.06,0,.09.13.15.16a.66.66,0,0,0,.34.1c.06,0,.12-.18.13-.28s0-.44,0-.66c0-.93,0-1.85,0-2.77,0-.52.08-.58.57-.59s.93,0,1.39,0,.64.08.64.65c0,1.36,0,2.73,0,4.1v4.49a2.16,2.16,0,0,1,0,.44c0,.15-.08.37-.18.42s-.32,0-.43-.14c-.39-.35-.76-.73-1.14-1.1l-3-2.88a1.13,1.13,0,0,0-.33-.16,1.52,1.52,0,0,0-.18.42c0,1.06,0,2.11,0,3.16,0,.7,0,.7-.71.71H56.77c-.78,0-.78,0-.78-.76Z"/><path class="cls-1" d="M20.43,58V53.58a1.82,1.82,0,0,1,0-.33c0-.1.07-.23.14-.26a.33.33,0,0,1,.28.1c.23.2.45.42.67.64C22.68,54.87,23.84,56,25,57.15a2.16,2.16,0,0,0,.44.27,2,2,0,0,0,.17-.55c0-1,0-2.07,0-3.1,0-.6,0-.63.62-.63h1.44c.36,0,.51.13.5.48,0,.54,0,1.07,0,1.61,0,2.46,0,4.91,0,7.37a3.25,3.25,0,0,1-.18.64,2.91,2.91,0,0,1-.59-.36c-1.29-1.23-2.56-2.48-3.84-3.72a1.56,1.56,0,0,0-.41-.2,1.53,1.53,0,0,0-.15.44c0,1.07,0,2.14,0,3.21,0,.6,0,.64-.63.64H21c-.52,0-.57-.06-.57-.58Z"/><path class="cls-1" d="M6.29,52.9A4.09,4.09,0,0,1,10,54.75c.26.38.21.53-.21.69s-.93.33-1.38.55a.37.37,0,0,1-.55-.14,1.61,1.61,0,0,0-1.5-.63.91.91,0,0,0-.79.58.7.7,0,0,0,.45.85c.74.33,1.51.59,2.24.91a2.82,2.82,0,0,1,1.76,1.71,2.93,2.93,0,0,1-2,4,5.68,5.68,0,0,1-3.75-.21,3.8,3.8,0,0,1-1.82-1.54c-.28-.44-.23-.53.28-.73s.89-.36,1.33-.56a.55.55,0,0,1,.77.16,2.07,2.07,0,0,0,1.07.73,1,1,0,0,0,1-.24.7.7,0,0,0-.12-1.23c-.51-.29-1.07-.47-1.6-.72a7.52,7.52,0,0,1-1.41-.73,2.8,2.8,0,0,1,.37-4.78A3.15,3.15,0,0,1,6.29,52.9Z"/><path class="cls-1" d="M11.89,58.16c0-1.48,0-3,0-4.43,0-.58,0-.59.59-.59h5.43c.58,0,.59,0,.6.59,0,.33,0,.66,0,1s-.07.5-.53.5H15.27c-.64,0-.64,0-.64.65,0,.29,0,.59,0,.89s.15.49.5.49c.77,0,1.55,0,2.32,0h.45c.29,0,.44.11.43.42s0,.71,0,1.06-.14.42-.44.41h-2.6c-.63,0-.65,0-.66.66q0,.36,0,.72c0,.49,0,.52.55.53h2.93a.38.38,0,0,1,.43.45c0,.4,0,.81,0,1.22s-.05.5-.52.51H12.43c-.48,0-.54-.07-.54-.55C11.88,61.19,11.89,59.67,11.89,58.16Z"/><path class="cls-1" d="M55.91,63.25h-1a.53.53,0,0,1-.59-.39c0-.12-.12-.23-.17-.35-.22-.55-.27-.59-.84-.59s-1.41,0-2.11,0a.73.73,0,0,0-.79.53c0,.1-.1.2-.13.3a.68.68,0,0,1-.8.52c-.51,0-1,0-1.55,0s-.67-.12-.42-.64c.38-.81.77-1.62,1.16-2.43,1-2.23,2.1-4.47,3.16-6.7a3.41,3.41,0,0,1,.45-.57,3,3,0,0,1,.46.57c1.07,2.23,2.12,4.47,3.17,6.7l1.21,2.52c.22.48.18.54-.33.55Zm-3.62-3h0c.28,0,.56,0,.83,0s.38-.15.24-.44c-.29-.6-.57-1.22-.86-1.83a1.73,1.73,0,0,0-.23-.24A1.13,1.13,0,0,0,52,58q-.44.91-.84,1.83c-.12.26,0,.41.28.43S52,60.26,52.29,60.26Z"/><path class="cls-1" d="M48.6,72.08V67.7c0-.65,0-.66.63-.66h4.38c.68,0,.71,0,.71.74,0,.29,0,.59,0,.88s-.15.5-.49.5H52c-.57,0-.6,0-.61.59,0,.35,0,.7,0,1s.12.4.4.4h1.83c.52,0,.55,0,.55.57q0,.39,0,.78c0,.59,0,.64-.62.65H51.89c-.53,0-.54,0-.55.57,0,.3,0,.6,0,.89s.13.43.43.42c.69,0,1.37,0,2.06,0,.48,0,.5,0,.51.5s0,.74,0,1.11-.1.45-.41.45H49c-.37,0-.4-.23-.39-.51Z"/><path class="cls-1" d="M34.7,59.39v3.27c0,.48-.1.58-.59.59H32.39c-.56,0-.64-.08-.64-.64V56c0-.34-.15-.5-.5-.5s-.81,0-1.22,0-.48-.11-.48-.44,0-1,0-1.44.05-.5.52-.5H36.5a.35.35,0,0,1,.41.39v1.55c0,.3-.13.44-.44.43s-.81,0-1.22,0-.55.07-.55.55C34.69,57.18,34.7,58.28,34.7,59.39Z"/><path class="cls-1" d="M69.64,73.39c0,1.07,0,2.14,0,3.21,0,.5,0,.54-.54.54s-1.14,0-1.71,0-.57,0-.57-.57V70.48c0-1,.09-1-1-1a3.2,3.2,0,0,1-.44,0,.39.39,0,0,1-.41-.42V67.43c0-.37.25-.39.53-.39h3.54c.78,0,1.55,0,2.33,0,.35,0,.5.12.49.49s0,1,0,1.49c0,.35-.14.51-.49.51H70.19c-.49,0-.54.06-.54.55C69.64,71.17,69.64,72.28,69.64,73.39Z"/><path class="cls-1" d="M66.86,59.42c0-1.09,0-2.18,0-3.27,0-.55-.09-.63-.65-.64-.37,0-.74,0-1.11,0s-.51,0-.52-.5,0-.89,0-1.33,0-.54.54-.54h6.42c.25,0,.38.1.38.36,0,.54,0,1.07,0,1.61,0,.32-.16.41-.45.4h-1c-.7,0-.77.08-.77.76v3.82c0,.87,0,1.74,0,2.6,0,.48-.07.55-.54.56H67.4c-.47,0-.53-.07-.54-.56Z"/><path class="cls-1" d="M58.51,58.15V53.71c0-.55,0-.56.55-.57h1.61c.53,0,.57,0,.57.57v6.16c0,1.07,0,.94.91.94h2.28c.48,0,.53.06.54.55s0,.92,0,1.38-.13.51-.48.51H59c-.43,0-.48-.07-.49-.55Z"/><path class="cls-1" d="M46.7,71.32c0,1.2,0,2.4,0,3.6a2.53,2.53,0,0,1-.56,1.57,2.61,2.61,0,0,1-1.79.88,6.6,6.6,0,0,1-1.65-.1.51.51,0,0,1-.49-.61c0-.4,0-.81,0-1.22s.1-.46.5-.39A1,1,0,0,0,44,74c0-2.1,0-4.21,0-6.31,0-.64,0-.65.65-.65h1.45c.59,0,.63,0,.64.62Z"/><path class="cls-1" d="M48.56,27.45l-31-25.13V25.91L2.26,13.42V45.53H71.57V9ZM5.27,19.75l12.29,10V42.53H5.27ZM20.56,42.53V32.24L33.15,42.53Zm19.42,0H37.9L20.56,28.36V8.62L46.17,29.37l-6.19,5Zm3-6.75,5.57-4.47,5.52,4.47v6.75H43Zm25.59,6.75H57.08V34.35l-6.13-5L68.57,15.23Z"/></svg>