<svg id="Layer_1" data-name="Layer 1" xmlns="http://www.w3.org/2000/svg" viewBox="0 0 178 53"><defs><style>.cls-1{fill:#3f549c;}</style></defs><title>JensenBlikk</title><path class="cls-1" d="M8.19,34.55a23.11,23.11,0,0,1,2.2-19.37H49.84A23.11,23.11,0,0,1,52,34.55c-4-9.7-12.34-16.37-21.92-16.37S12.22,24.85,8.19,34.55ZM48.35,13a23.1,23.1,0,0,0-36.47,0ZM9.24,37.16c.31.65.64,1.27,1,1.87H50a19.61,19.61,0,0,0,1-1.87c-.19-.54-.39-1.08-.6-1.61H9.84C9.63,36.08,9.43,36.62,9.24,37.16Zm6.43-10.65H44.56A22.4,22.4,0,0,0,40.22,23H20A22.4,22.4,0,0,0,15.67,26.51ZM39,22.34a18.82,18.82,0,0,0-17.81,0ZM10.67,39.72a22.59,22.59,0,0,0,2.75,3.49H46.81a22.59,22.59,0,0,0,2.75-3.49ZM15,27.2a26.58,26.58,0,0,0-2.67,3.49H47.88a26.58,26.58,0,0,0-2.67-3.49Zm5.1,20.87a23,23,0,0,0,20,0Zm-8.2-16.69a30,30,0,0,0-1.79,3.48h40a30,30,0,0,0-1.79-3.48Zm29.52,16a22.86,22.86,0,0,0,4.68-3.48h-32a23.14,23.14,0,0,0,4.68,3.48Zm80.32-13.15V20.33c.09-.06.13-.11.18-.11a50.49,50.49,0,0,1,5.51.14A3.66,3.66,0,0,1,130,26.3c-.06.08-.11.17-.19.3a4.28,4.28,0,0,0,.38.29,3.82,3.82,0,0,1,1.77,3.71A3.65,3.65,0,0,1,129.27,34a4.57,4.57,0,0,1-1.4.31c-1.93,0-3.85,0-5.77,0A1.5,1.5,0,0,1,121.76,34.23Zm1.95-1.79c1.3,0,2.55,0,3.8,0a4.45,4.45,0,0,0,.94-.18,2,2,0,0,0,1.57-2,2,2,0,0,0-1.46-2.06,15.13,15.13,0,0,0-4.85-.28Zm0-6.83a2.61,2.61,0,0,0,.42.07,17.17,17.17,0,0,0,1.76,0,8.43,8.43,0,0,0,1.87-.33,1.59,1.59,0,0,0,1-1.74,1.55,1.55,0,0,0-1.1-1.59,11.62,11.62,0,0,0-4-.21Zm24.21,8.64h1.78V23.9l.15,0c2.18,3.48,4.37,7,6.54,10.42a4.29,4.29,0,0,0,1.86-.08v-14H156.4V30.54l-.16.06-6.52-10.37h-1.8Zm24.42-14h-2.52l-6,6.58-.16-.07c0-1.08,0-2.17,0-3.26s0-2.16,0-3.22h-1.85v14h1.89V31.52c0-.92,0-1.85,0-2.73a4.16,4.16,0,0,1,5.23,2.46,14.08,14.08,0,0,1,.75,1.68c.54,1.46,1.91,2.14,3.68,1.25V33.05c-1.29.06-1.44,0-2-1.24-.31-.71-.6-1.43-1-2.11a5.12,5.12,0,0,0-2.85-2.56c-.33-.11-.67-.18-1.11-.31C168.36,24.58,170.39,22.53,172.34,20.22Zm-34.38,0h2.63l5.3,14h-2l-1.11-2.83h-7l-1.1,2.84h-2C134.45,29.54,136.2,24.88,138,20.22ZM142,29.41l-2.74-7.32c-.94,2.53-1.83,4.89-2.74,7.32ZM70.73,34.2a7.12,7.12,0,0,0,5-.13A3.55,3.55,0,0,0,78,30.21a4,4,0,0,0-2.35-3.13c-.87-.46-1.82-.77-2.73-1.15a16.47,16.47,0,0,1-1.81-.83,1.6,1.6,0,0,1-.85-1.69,1.55,1.55,0,0,1,1.16-1.29,4.13,4.13,0,0,1,.77-.19,7.29,7.29,0,0,1,3.9.67l.86.34V21a10,10,0,0,0-3.32-1,5.82,5.82,0,0,0-3.14.42,3.54,3.54,0,0,0-.68,6.22,9.78,9.78,0,0,0,1.69.9c.69.3,1.41.51,2.1.79a10.56,10.56,0,0,1,1.52.72A1.8,1.8,0,0,1,76,31a1.74,1.74,0,0,1-1.21,1.46,3.61,3.61,0,0,1-.93.22,7.65,7.65,0,0,1-4.76-1.07c-.22-.13-.45-.24-.78-.41v2.11C69.09,33.59,69.89,34,70.73,34.2ZM97,25.58l1.85-.7c0,.41.08.72.08,1,0,1.93,0,3.85,0,5.77,0,.37,0,.74,0,1,.42.58.94.34,1.47.33v1.15a2.69,2.69,0,0,1-3.5-.5,6,6,0,0,1-5,.6,4.28,4.28,0,0,1-2.26-1.69A5.65,5.65,0,0,1,90,26.2C91.41,24.5,94,24.25,97,25.58Zm0,2.1A4,4,0,0,0,93,26.54a2.54,2.54,0,0,0-2.2,2.24,3.29,3.29,0,0,0,1,3.43,3.94,3.94,0,0,0,5.07-.75Zm14.88-.84c0,.44,0,.87,0,1.29,0,1.28,0,2.57.14,3.84a2.38,2.38,0,0,0,1.34,2.14,6.09,6.09,0,0,0,4.86,0V32.41c-.35.08-.63.15-.91.19a5,5,0,0,1-2.38.07,1.21,1.21,0,0,1-1-1.13c-.06-1.52-.08-3-.11-4.56,0-.09.08-.19.17-.39h4.18v-1.7h-4.37V21.63l-2,.67v2.56l-2,.13v1.53C110.45,26.79,111.15,26.43,111.79,26.84Zm-24.47-.2V24.89H83V21.63l-2,.65v2.58L79,25v1.61l2.1.12v1c0,1.28,0,2.57,0,3.85a2.74,2.74,0,0,0,1.78,2.77,6.55,6.55,0,0,0,4.45-.2V32.42a7.74,7.74,0,0,1-.85.18,12.72,12.72,0,0,1-2.22.08,1.22,1.22,0,0,1-1.19-1.36c0-1.49,0-3,0-4.68Zm15.16,7.61h1.89V27.87a9.19,9.19,0,0,1,4.07-1.25v-2a8.52,8.52,0,0,0-4,1.41l-.13-1.57-1.81.61Z"/></svg>