<svg id="Layer_1" data-name="Layer 1" xmlns="http://www.w3.org/2000/svg" viewBox="0 0 103.71 94.46"><defs><style>.cls-1{fill:#3f549c;}</style></defs><title>JensenBlikk</title><path class="cls-1" d="M77,22.9a1.28,1.28,0,0,1,1.43,1.32,5.21,5.21,0,0,0,4.25,5.38,2,2,0,0,1,1.65,1.83,4,4,0,0,0,.83,2.22,3.73,3.73,0,0,0,5.59.84,3.76,3.76,0,0,0,1-5.56A4,4,0,0,0,90,27.41a2,2,0,0,1-1.19-2.15,5.22,5.22,0,0,0-3.69-5.78,1.27,1.27,0,0,1-.78-1.78c.67-1.4,1.33-3.38.51-4.53-1.33-1.87-4.11-1.83-6.17-.78a19.42,19.42,0,0,0-2.53,1.54,18.35,18.35,0,0,0-2.28,1.89c-1.67,1.6-2.62,4.21-1.29,6.09C73.4,23.05,75.49,23.08,77,22.9Zm3.08,7.66c-5.74,4.63-64.83,51.55-65.28,51.88-2.06,1.52-5-2.29-3.15-3.92.54-.48,58.3-45.34,66-51.46h0l0,0a2.25,2.25,0,0,0,.76,1.74,21.54,21.54,0,0,0,1.85,1.64Z"/></svg>