<svg id="Layer_1" data-name="Layer 1" xmlns="http://www.w3.org/2000/svg" viewBox="0 0 103.71 94.46"><defs><style>.cls-1{fill:#3f549c;}</style></defs><title>JensenBlikk</title><path class="cls-1" d="M37.29,31.18h5.6L5.53,86.92a.21.21,0,0,1-.35-.22Zm29.13,0h-5.6L98.18,86.92a.21.21,0,0,0,.35-.22Zm.74-1.07H59.44l-5.15-8.42a7.36,7.36,0,0,1-8.74-3.17.08.08,0,0,0-.14.06,7.55,7.55,0,0,0,3.43,4.05l-4.58,7.48H36.55L44.8,16.78A7.33,7.33,0,1,1,59.13,13.9a7.25,7.25,0,0,1-.23,2.88ZM55.26,14.77a3.41,3.41,0,1,0-3.41,3.41A3.4,3.4,0,0,0,55.26,14.77Z"/></svg>