<svg id="Layer_1" data-name="Layer 1" xmlns="http://www.w3.org/2000/svg" viewBox="0 0 103.71 94.46"><defs><style>.cls-1{fill:#3f549c;}</style></defs><title>JensenBlikk</title><path class="cls-1" d="M79.93,71.82a2.37,2.37,0,0,1,1.66.53h0a2.33,2.33,0,0,1,.82,1.34A9.7,9.7,0,0,0,85.91,79c3.28,2.69,7.31,3.19,9,1.12s.41-5.92-2.86-8.61a9.74,9.74,0,0,0-5.91-2.4,2.3,2.3,0,0,1-1.47-.53,2.39,2.39,0,0,1-.85-1.53,2.64,2.64,0,0,0-1-1.72,2.67,2.67,0,0,0-3.44,0l-1.75,2.06h0c-.22.26-1,1-.88,1.74.36,1.07.32.93.64,1.9A2.93,2.93,0,0,0,79.93,71.82Z"/><rect class="cls-1" x="10.65" y="18.11" width="16.55" height="6.53" rx="0.34" transform="translate(-9.6 22.45) rotate(-50.63)"/><rect class="cls-1" x="9.67" y="26.86" width="4.14" height="6.53" rx="0.34" transform="translate(-19 20.09) rotate(-50.63)"/><polygon class="cls-1" points="25.4 20.76 22.85 23.87 75.75 67.44 78.51 64.24 25.4 20.76"/></svg>