<svg id="Layer_1" class="tool2" data-name="Layer 1" xmlns="http://www.w3.org/2000/svg" viewBox="0 0 103.71 94.46"><defs><style>.cls-1{fill:#fff;}</style></defs><title>JensenBlikk</title><path class="cls-1" d="M52.28,34.11A1.15,1.15,0,1,1,51.13,33,1.14,1.14,0,0,1,52.28,34.11Zm-3-1.8c-1-.08-1.39.85-2.35,1.44s-4.16-.36-6.12,4.77S29.25,78.8,28.49,81.25s-1.14,6.48,2.23,6.48,2.45-3,1.85-3.81-1-1.14-.27-3.54S40,56.86,42.75,49.79s3.76-12.47,7.35-12.47a9.62,9.62,0,0,1,2,.11l.17-1.2s-2.12.29-2.89-.7C48.47,34.33,49.28,32.31,49.28,32.31Zm4.14,4.2L53,37.92s.16-.76,1.63,2.5S71.22,79.89,71.55,81.25A3,3,0,0,1,71,84c-.44.43-1.25,1.9,0,2.83s5.23.49,4.69-3.65S65,50.77,63,44.83s-2.34-7.73-3.92-9-2.45-.27-3.05.22S55.27,36.89,53.42,36.51ZM39.16,19.63c.05,8.87,2.35,13.46,4,13.77,1.14.22,1.91-.22,3.87-1.58s2.45-4.46,2.23-5.82-2.67-7.95-4-12.58-1.74-6.69-2.12-6.69C42.32,6.73,39.1,11,39.16,19.63ZM50.48,32.26c.55.05,1.42-.33,2.12.38s.33,1.8.28,2.4.81.81,1.57.76,3.33-.17,6-8.49-1-17-2-18.79S57.12,7,56.9,7.38s-7.24,23.25-7.24,23.25C49.5,31.61,49.94,32.2,50.48,32.26Z"/><path class="cls-1" d="M32.91,67.36Z"/></svg>